<svg xmlns="http://www.w3.org/2000/svg" viewBox="0 0 647.7 503.7"><defs><style>.a,.d{fill:#fff;}.b{fill:#0033a1;}.c{fill:#3a8dde;}.d,.e{stroke:#fff;stroke-miterlimit:10;}.d{stroke-width:1.28px;}.e,.f{fill:none;}.e{stroke-width:5.13px;}</style></defs><path class="a" d="M237,278.6a11,11,0,0,1,.9,1.4l.6,1.6a12,12,0,0,1,.3,2,4.1,4.1,0,0,1-.1,1.1,3.6,3.6,0,0,1-.2,1l-.3,1a5.9,5.9,0,0,1-.4.8l-.4.7-.4.5-.3.4-2.4-2.7.3-.2.4-.2.4-.3.4-.4.5-.6.4-.6.3-.7a5.1,5.1,0,0,0,.3-1.7,3.8,3.8,0,0,0,0-1.5A10.8,10.8,0,0,0,237,278.6Z"/><path class="a" d="M227.2,277a8,8,0,0,1,1.2,1.7,9.3,9.3,0,0,1,.8,2,2.8,2.8,0,0,1,.3,1.3,5.7,5.7,0,0,1,.1,1.3,6.1,6.1,0,0,1-.1,1.4,7.4,7.4,0,0,1-.4,1.4,6.1,6.1,0,0,1-.5,1.2l-.6,1-.6.8-.5.6-.5.5-2.8-3.9.4-.2.5-.2.5-.3c.2-.2.5-.3.6-.5s.5-.3.7-.6.4-.4.5-.7a4.1,4.1,0,0,0,.5-.9l.3-1a3.1,3.1,0,0,0,.1-1,6,6,0,0,0,0-1.9A11.8,11.8,0,0,0,227.2,277Z"/><path class="a" d="M415.4,277.5a5.6,5.6,0,0,1,.8,1.1,3.5,3.5,0,0,1,.6,1.4,5.2,5.2,0,0,1,.3,1.8,3.4,3.4,0,0,1-.1,1,3.2,3.2,0,0,1-.3.9,3.2,3.2,0,0,1-.3.9l-.4.7-.5.5-.3.4-.3.4-2-2.7h.3l.3-.2a.5.5,0,0,0,.4-.2l.4-.3.5-.4.3-.6a.9.9,0,0,0,.4-.6,6.3,6.3,0,0,0,.3-2.7A11.1,11.1,0,0,0,415.4,277.5Z"/><path class="a" d="M405.6,276.1a7.1,7.1,0,0,1,1.2,1.4,7.5,7.5,0,0,1,.8,1.8l.3,1.1v1.3a5,5,0,0,1-.2,1.2c-.1.4-.3.8-.4,1.2l-.6,1.1-.6.8a6.8,6.8,0,0,1-1.1,1.2l-.4.4-2.3-3.8h.3l1-.4.6-.4.6-.4.5-.6.4-.7.2-.4.2-.5a1.9,1.9,0,0,0,.1-.8,4.7,4.7,0,0,0-.1-1.7A3.9,3.9,0,0,0,405.6,276.1Z"/><path class="a" d="M410.7,270.5a3.9,3.9,0,0,0-3-.5,2.3,2.3,0,0,0-1.6,1.4,4.2,4.2,0,0,0-3.2-1.9c-2,0-2.5.9-3.8,1.9s-1.5,0-.4-1.9a4.9,4.9,0,0,1,3.1-2.2c1.1,0,2.9.1,3.9,1.1a4.4,4.4,0,0,1,3.1-1.8,3.5,3.5,0,0,1,2.7,1l1.5,2.7Z"/><path class="b" d="M471.5,67.2l-.5-4-2.3-1.1L464.2,61V58.9l-1.8-4.4-4.7-2-3.5,1-2.1,2.9L447.2,50l-11-2.6-12.9-.7-7.1,1.4-6.7,2.6,3.2,2.9v2.6l-8,5.9L392.4,72.9l-7.8,13.9L382,98.4l-1.2,15.5v7.5l6.8,4.7,9,1.1,5.6,13,10.5,1.7,9.9,8.1,5.9,10.2,2.7,9.3v9l7-3.3,7.9-8.5,11.6-3,8-6.1,6.9-10.7.9-7.4-1.8-6.8-7.8-5-10.8-11.9-7.6-8.4-.4-3.1s2.4-8.6-3.8-21.2,2.3-3.4,2.3-3.4l4.8-3,3.6-2.3,6.5,1,3.8-2.7,5.3-2.3"/><path class="c" d="M440.5,83.8s5.8,10.4,3.8,21.2,8,11.5,8,11.5l9.3,7.1,8,1.5h5.7l2.5,2.1,6.2.7,2.6-3.6,3.4-6.7,2.6-4.1,1.1-4.9V99.7l1.1-5.6-5.2-2.5L486.8,89l-4.5-1.5L480.8,84l-4.1-2.9-4.3-1.8v-7l-5.3-.5-6.5,1.8-5.1,1.5-6.3,1Z"/><path class="c" d="M201.9,104.8c14.6,5.5,3.8,32.3,3.8,32.3s-16.2,27.6-2.9,38.6,41.3-10.8,41.3-10.8l20.5-9,19-.8,19.9-3.5,51.6-11.4,20.4-10.5,11.3-4,20.7,15.5,12.4,6.9,9.1,12.8,2.3,15.8-.8,2.5,10.2-6.5,3.4,17.4-13,30.3-5.6,26.8,3.6,15.5-4.8,23.5-43-1.6,2-4.5,4.2-7.7-3.7-6v-6.1l2.2-7.7-2.4-8.2.2-9.2-4.2-6.4v-7.7l-14.6-.6L304.1,210l-39.5,19-11.5,9.1-18.3,7.6-6.1,9.2s-3.7,8.9-2.9,9.7,1.8,9.3,1.8,9.3l4.4-2.5,4,1.8,6.5-.8,5.6,8-.6,7.6-14.7,1.8-30-3.9,2.2-5.2.7-7-1.4-8.6-2.3-8.2,3.7-9.2,9-9.1,5.9-11.8,5.2-15.1,2.9-13.3,1.3-13.3h-7.2l-11.5,1.6-14-7.1-5-9.2.2-10.5,3.5-13.7,7.5-15.8,2.2-9.7-2.4-6.8-7.3-5.2-8.5.7-5.7,3.2-5.2,5.8-8.1.2,8-5.5s12.5-13.1,25.4-8.3"/><path class="a" d="M155.4,121.6c-.4.9-4,9.7-11.4,12.5a12.5,12.5,0,0,1-4.3.7,8.7,8.7,0,0,0,4.4.9h3.5a35.7,35.7,0,0,0,6-1c-3.8,3.5-10.4,5.2-10.5,5.2a36.7,36.7,0,0,1-4.9.9s1,.4,5.1.3a57.1,57.1,0,0,0,12.7-2.3,66.1,66.1,0,0,1-12.9,6.3l-1.6.5c-.8.1-2.3.5-4.2.7a27.5,27.5,0,0,0,5-.1c2.7-.3,24.6-4.7,28.6-5.9h.1l2.5-.8h0v-.6l.2.5a13.6,13.6,0,0,0,7.9-14.9A13.9,13.9,0,0,0,170,113.3a13.5,13.5,0,0,0-14.5,8.2"/><path class="d" d="M173.4,114.3s15.2-15.4,26.7-11.4,16.9,18.8,7.5,34.4-11.9,36.3,1.9,38.5S245,163.4,245,163.4s-6.2,5.8-8.1,9.8a135.6,135.6,0,0,0-13.9,4.1c-5.1,1.9-16.7,3-21.4-1.7s-5.3-15.2-3.2-22.7,7.9-19.2,7.9-19.2,6.2-10.1,2-20.5-14.8-9.4-16.9-8.6-10.4,3.9-15.9,10.8S173.4,114.3,173.4,114.3Z"/><path class="d" d="M176.5,116.2s11.6-14.2,23-8.6,7.3,19.3,7.3,19.3-8.1,16.6-10.1,21.5-4.5,15.6-.8,23.5,11.3,12.5,19.8,11.5,18.5-6.2,21.2-10.2l-6,20.7s.7-6.8-4.7-6.8-9.3,2.8-19.5.2-17.4-13-15.1-26.5,7.5-20.7,11.1-29.7,3.9-17.4-4-20.9-16.9,1.5-20.3,9.2S176.5,116.2,176.5,116.2Z"/><path class="e" d="M377.5,125.4c-10.5,10.5-29.3,16.3-29.3,16.3s-55.3,11.7-62.8,11.7c-11.3,0-20.9-1.9-36,7.1-17.9,10.7-18.5,31.7-23.1,51.4S213,241.6,209.6,245s-8.3,6.3-5.5,15.4,2.4,12.4,2.4,16.5-4.8,11.3-4.8,11.3h47.5s.7-15.4-5.7-17.4c-3-.8-4.2.1-4.7,1.4a1.3,1.3,0,0,1-2.1.4c-1.7-2-4.3-3.3-6.4,1.9,0,0-6-4.9-3.2-14.5s7.4-12.7,7.4-12.7,28.4-12.9,35.7-20.2c0,0-1.7,7.6.8,12.5a6.7,6.7,0,0,1,.5,4.6,32.9,32.9,0,0,1-2.2,6.7,4,4,0,0,0-.3,3c.9,2.7,3.2,8,8.5,14.6,7.7,9.6-.4,18.8-.4,18.8l43.5-.6s-1.1-11.9-4.4-15.2-12.5-1.2-15.2-3.9-4.1-9.6-4.1-9.6,6-13,4.5-18.8-3.3-13.5,2.8-19.6,19-5.8,24.3-1.9,36.4,8.5,51.7,1.2a19,19,0,0,0,3.1,13.5,6,6,0,0,1,1.1,4.5,22.4,22.4,0,0,0,2.2,13.2,5.6,5.6,0,0,1,.4,4.2l-2.3,6.7s.2,3.4,3,8.4-5.1,7.9-5.1,15.8l43.2.4s-1.2-15-6.9-15c-3.2,0-4,4.5-4,4.5s.1-3.9-1.5-5.5a20.4,20.4,0,0,1,1.7-6.4,14.5,14.5,0,0,1-1.2-10.3c1.4-6.1,4.3-8.2,3.7-9.7s-4-16.1,2-27.3.4-22.3.4-22.3-4-9.8-.2-16.6"/><path class="e" d="M456.4,172.8c-3.4,10.9-13.2,26.4-13.2,26.4a122.6,122.6,0,0,0-12,26.3c-4.8,15.1-1.8,29.3.3,33.7s-1.4,10.7-1.4,10.7c2.5,5.3,8.8,4.6,10.1,4.6s.1-2.1,5.7-2.1,2.9,12.8,2.9,12.8H426.7"/><path class="f" d="M435.8,58c8.3,4.1,17,14.9,17,14.9h4.4s4.5-10.8,4.9-12.8,1.2-5.7-3.4-6.5-4.4,3.5-4.4,3.5V68.9c-4.5-12.9-10.1-17.3-10.1-17.3-10.9-1.8-22.4,3.1-22.4,3.1A34.3,34.3,0,0,1,435.8,58Z"/><path class="f" d="M415.1,73.8c-4.2-2.3-13,1.4-13,1.4,4.3-4.3,14-5.8,19-5.1s4.9-.9,4.9-.9c-4.1-6-16.7-3.4-16.7-3.4,7.9-4.7,14.7-4,19.4-2.3a40.2,40.2,0,0,1,6.9-.6s-4.6-5.5-13.9-4.8-15.9,3.1-27.4,16.4-11.2,31.7-10.5,36c.4,2.7,1,4.9.4,8l.9-1.3c2.6-3.9-.3-4.9,8-22.9S415.1,73.8,415.1,73.8Z"/><path class="f" d="M462.4,71.2c.9-.9,5-1.4,6.3-2.1s3.4-4.3,0-6.2-4-.3-5.1.8-3.4,8.7-3.4,8.7A4.6,4.6,0,0,0,462.4,71.2Z"/><path class="f" d="M427.6,119c-10.8-7.2-12.9-25.7-12.9-25.7-6.6,14.3,2.1,28.5,2.1,28.5-13.9-10.5-4.6-38.5-4.6-38.5-24.9,9.5-19.3,34.9-19.3,34.9,1.7-6.4,8.1-10.7,8.1-10.7s-1.5,4.5,1.1,14.7,12,15.5,12,15.5.7-7.2.7-7.2.7,6.6,10.6,17.9,9.4,26.2,9.4,26.2,5.8-4.4,3.4-19.7c-2.1-13.5-12.8-24.3-15.3-26.7l-.6-.5.6.5a83.9,83.9,0,0,1,6.5,5.5c3,3,8.4,7.1,10.9,10.7s1.9,7.7,1.9,15.2a36.5,36.5,0,0,0,5-17.5C447.2,136.2,438.3,126.2,427.6,119Z"/><path class="f" d="M476.4,117.1c1.4.7,5.6-1.4,6.7-2.5s2.3-.5,3-1.2a17.1,17.1,0,0,0,2.7-2.7,21.4,21.4,0,0,0,1.9-3.4s1.2-3.6-.2-4.9-2.1-5.5-7-4.7c0,0-3.5,1.7-1.8-.4a2.6,2.6,0,0,1,3.2-.7s2.1-2.2,4-2.2a3.7,3.7,0,0,1,2.7.9,8.2,8.2,0,0,1,3-.7l-.4-.5a3.4,3.4,0,0,0-3.8-.4c-1.4.5-3.2-.9-4.9-1h0c1-.1,2.9-.4,3.2-1.6s-3.6-.6-5.2-.1-3.9.7-3.9.1,1.3-.7,2.9-1.1,2.2-1,1-1.4a3.9,3.9,0,0,0-3.4.2c-.6.7-1.1-.7.2-1.1s.3-.6-1-1.5-1-1.7-2.1-2.2-2.2-1.3-3.7-1.3-1-.7,1-.7,3.2.4,4.2,1.4,2.2,3.1,3.5,3.1-.7-3.2-2.6-4-5.8-2.4-9.5-2.9l.8-2.2c.5-1.4,1.3-4.1.9-4.5s-2.1-.6-4.5-.6a9.8,9.8,0,0,0-5.8,2.5c-.6.5,0,1.7,0,1.7,6.4,3.3,5.7,5.3,5.7,5.3-2.2-2.9-6.8-4.1-9.2-4.9a10.5,10.5,0,0,0-5.6,0l-3.8,3.6-1.9.5,1.9,3.1s-3.1.4-4.5-1a1.9,1.9,0,0,0-2.7,0c2.9,10.3-6.5,21.8-6.5,21.8-1.5-9.2,2.6-15.7,3.3-17.5s-1.4-4.1-3-5.8-5.2-2.7-6.8-3.4,2.8-4.3,6.4-5.2,5.7,1,7.9,2.2,4.7.2,4.7-1.7-5.3-4.4-9.2-5.6l-2.6-.3c-1.3.3-12.7,4.1-14.2,10.2s12.4,9.5,12.4,9.5c-14.4,1.2-13,13.2-13,13.2a8.7,8.7,0,0,1,7.5-3.4c-6,7.8,0,17.3,0,17.3,0-2.6,3.9-5.5,3.9-5.5-2.8,10.1,7.4,16.9,7.4,16.9s7.6,3.2,12.3,13.7c3.7,8.1.2,17-1.6,20.7,4.2-2.8,12.4-7.6,12.4-18.4s-12.5-10.5-19.1-17.1-5.7-11.7-4.9-16.3S443.2,96,443.2,96s-4.5,15.8.3,21.8,12.1,9.2,13.8,11.9c0,0-1.7-8.2-7.8-12.2s-4.3-13.2-4.3-13.2,1.1,4.7,4.6,6.6,4,2.9,4,2.9a8.7,8.7,0,0,0-.1-6,8.7,8.7,0,0,1-.9-4.9,3.6,3.6,0,0,1,4.5,1.5c1.7,2.7,7.6,3.1,10.3,3.1a5.4,5.4,0,0,0-2.3,4.8c0,3.4-4.2,2.5-4.2,2.5s-1,1.4,2.1,1a5.9,5.9,0,0,0,3.3-1.2l.4-.4a1.2,1.2,0,0,1-.4.4,4.3,4.3,0,0,0-1,3.6,7.1,7.1,0,0,0,4.2-1.9,6.7,6.7,0,0,0-1.2,3,12,12,0,0,1,3.2-1.2l2.3-.6m-7.5-32.8c.8-.3,3.6-.5,4.2,1.9s2.6,2.9,2.6,2.9a1.4,1.4,0,0,1-2,0c-1-1-.6-2.1-2.7-3.1a3.7,3.7,0,0,0-3.6,0C463,86.4,465.2,85,466.5,84.7Zm1.7,7.6a10.1,10.1,0,0,0-2.5-.3H462a5.1,5.1,0,0,1-2.2-.5,5.6,5.6,0,0,1-2.1-2.2l-.3-.8-5.3-1.7,8.3.7,2.6-.3a3.8,3.8,0,0,1,3.2,1.2l1.9,2,10.6,4.5Z"/><path class="f" d="M484.9,125.1c.2-1,1.1-1,1.4-1.6s.7-1.8.1-2.7a45.6,45.6,0,0,1-5.1.4c-.7,0-3.1-.7.6-2s7-1.7,6.7-2.9-3.6,0-5.7,1-5.3,3.4-9.2,4h.1a5.5,5.5,0,0,0-1.1,1.7,5.5,5.5,0,0,1,3.1-.1c2.3.9,3.6,3,4.3,3.2"/><path class="f" d="M493.5,105.7a3.7,3.7,0,0,0-1.6,1.5c-1.1,1.9.4,5.2.5,5.6a3.5,3.5,0,0,0,1-1.9C493.5,109.5,493.1,107.1,493.5,105.7Z"/><path d="M466.9,114.2l-.4.4A1.2,1.2,0,0,0,466.9,114.2Z"/><path d="M422.9,128.2l-.6-.5Z"/><path class="a" d="M468.1,90.4l-1.9-2a3.8,3.8,0,0,0-3.2-1.2l-2.6.3-8.3-.7,5.3,1.7.3.8a5.6,5.6,0,0,0,2.1,2.2,5.1,5.1,0,0,0,2.2.5h3.7a10.1,10.1,0,0,1,2.5.3l10.5,2.6Z"/><path class="a" d="M411.6,54.6c-10.5,4.5-10.9,4.2-22.5,18.8s-10.7,32.6-10.3,36.1a25.4,25.4,0,0,1-7.4,20,15.1,15.1,0,0,1-7.3,6.7l-10.7,4.6s-14.2,4.8-7.6,2.9c18.8-5.5,33.1,4,35.2-15.4,0,0-2.3,19.9,6.9,35.8,0,0-2.6-13.9,4.2-27.1,0,0,1.3,23.2,23.3,31.6,0,0-11-11.3-5.9-20.9,0,0,13,1.2,17.9,16.4s-2.1,25.7-2.1,25.7a62.7,62.7,0,0,0,9.1-7.8h0s3.9-3.1,9.1-10.5c3.1-2.6,13.2-11.3,18.2-16.3s8.5-21.3,8.5-21.3c2,4-.1,11.2-.1,11.2s-1.4,6.2-11.4,14.4-2.5,39.9-2.5,39.9c.6-1.7.7-14.1,1.5-17.3s-.2-3.2,2.4-10.7a24.4,24.4,0,0,1,6.3-9.3c3.4-3.4,8.1-11.3,9.2-18.1a19.1,19.1,0,0,0-3.4-13.7,10.6,10.6,0,0,1-.3-5,6,6,0,0,1,3.5-.4,2.4,2.4,0,0,1,1.2.9,8.7,8.7,0,0,1,2,3.8c1.6,6.5,6.3,8.6,6.3,8.6-.9-6.6.6-9.2.6-9.2,0,2.8,3.1,5.6,3.1,5.6a28.3,28.3,0,0,1,.4-9.5c1.6-4.7,2.7-5.4,5-9.8a11.5,11.5,0,0,0,1.6-6.5v-.3c0-2.9,3.4-6.6,3.4-6.6a9.5,9.5,0,0,0-3.3-11.1c-1.8-.8-4.4-.5-5.6-1.7s-5.9-2.9-5.9-2.9c0-1.7-1-2.4-2.3-3.7a72.5,72.5,0,0,0-7-4.9c.5-2.6.7-6.9-2.6-7.4,0,0,3.5-11.1-7.3-11.1,0,0,1.2-6.8-5.9-7.4s-7.2,2.5-7.2,2.5l-3.2-5.8a5.7,5.7,0,0,0-1.7-.9c-13.7-3.7-26.1-2.8-34.3.1,0,0-14.7,5.6-17.9,16C394.8,63.6,400.2,56.1,411.6,54.6Zm57.1,8.3c3.4,1.9,1.3,5.4,0,6.2s-5.4,1.2-6.3,2.1a4.6,4.6,0,0,1-2.2,1.2s2.2-7.5,3.4-8.7S465.3,61.1,468.7,62.9ZM444.2,51.6s5.6,4.4,10.1,17.3V57.1s-.2-4.3,4.4-3.5,3.8,4.5,3.4,6.5-4.9,12.8-4.9,12.8h-4.4s-5.6-10.4-15.1-15.4a53.7,53.7,0,0,0-25-6.3S429.3,46.2,444.2,51.6Zm-59.1,65.6-.9,1.3c.6-3.1,0-5.3-.4-8-.7-4.3-1-22.8,10.5-36s18.1-15.7,27.4-16.4,13.9,4.8,13.9,4.8a40.2,40.2,0,0,0-6.9.6c-4.7-1.7-11.5-2.4-19.4,2.3,0,0,12.6-2.6,16.7,3.4,0,0,.2,1.7-4.9.9s-14.7.8-19,5.1c0,0,8.8-3.7,13-1.4,0,0-13.7,2.6-22,20.5S387.7,113.3,385.1,117.2Zm57.1,42.4c0-7.5,0-12.3-1.9-15.2s-7.9-7.7-10.9-10.7a83.9,83.9,0,0,0-6.5-5.5c2.5,2.4,13.2,13.2,15.3,26.7,2.4,15.3-3.4,19.7-3.4,19.7s.6-14.8-9.4-26.2-10.6-17.9-10.6-17.9.5,6-.7,7.2-9.4-5.2-12-15.5-1.1-14.7-1.1-14.7-6.4,4.3-8.1,10.7c0,0-5.6-25.4,19.3-34.9,0,0-9.3,28,4.6,38.5,0,0-8.7-14.2-2.1-28.5,0,0,2.1,18.5,12.9,25.7s19.6,17.2,19.6,23.1A36.5,36.5,0,0,1,442.2,159.6Zm31.5-42.1-2,.6a12,12,0,0,0-3.2,1.2,6.7,6.7,0,0,1,1.2-3,7.1,7.1,0,0,1-4.2,1.9,4.3,4.3,0,0,1,1-3.6,5.9,5.9,0,0,1-3.3,1.2c-3.1.4-2.1-1-2.1-1s4.2.9,4.2-2.5a5.4,5.4,0,0,1,2.3-4.8c-2.7,0-8.6-.4-10.3-3.1a3.6,3.6,0,0,0-4.5-1.5,8.7,8.7,0,0,0,.9,4.9,8.7,8.7,0,0,1,.1,6s-.5-1.1-4-2.9-4.6-6.6-4.6-6.6-1.9,9.2,4.3,13.2,7.8,12.2,7.8,12.2c-1.7-2.7-9.1-5.9-13.8-11.9s-.3-21.8-.3-21.8-3.6,7.8-4.5,12.4-1.6,9.7,4.9,16.3,19.1,5.8,19.1,17.1-8.2,15.6-12.4,18.4c1.8-3.7,5.3-12.6,1.6-20.7-4.7-10.5-12.3-13.7-12.3-13.7s-10.2-6.8-7.4-16.9c0,0-3.9,2.9-3.9,5.5,0,0-6-9.5,0-17.3a8.7,8.7,0,0,0-7.5,3.4s-1.4-12,13-13.2c0,0-13.9-3.1-12.4-9.5s12.9-9.9,14.2-10.2l2.6.3c3.9,1.2,9.2,3.8,9.2,5.6s-2.4,2.9-4.7,1.7-4.4-3-7.9-2.2-7.9,4.6-6.4,5.2,5.1,1.8,6.8,3.4,3.7,4.1,3,5.8-4.8,8.3-3.3,17.5c0,0,9.4-11.5,6.5-21.8a1.9,1.9,0,0,1,2.7,0c1.4,1.4,4.5,1,4.5,1L446.7,81l1.9-.5,3.8-3.6a10.5,10.5,0,0,1,5.6,0c2.4.8,7,2,9.2,4.9,0,0,.7-2-5.7-5.3,0,0-.6-1.2,0-1.7a9.8,9.8,0,0,1,5.8-2.5c2.4,0,4.1.2,4.5.6s-.4,3.1-.9,4.5l-.8,2.2c3.7.5,7.6,2.2,9.5,2.9s2.6,4,2.6,4-2.5-2.1-3.5-3.1-2.2-1.4-4.2-1.4-2.5.7-1,.7,2.5.8,3.7,1.3.8,1.4,2.1,2.2,2.2,1,1,1.5-.8,1.8-.2,1.1a3.9,3.9,0,0,1,3.4-.2c1.2.4.5,1-1,1.4s-2.9.5-2.9,1.1,2.3.3,3.9-.1,5.7-1.8,5.2.1-2.2,1.5-3.2,1.6c1.7.1,3.5,1.5,4.9,1a3.4,3.4,0,0,1,3.8.4l.4.5a8.2,8.2,0,0,0-3,.7,3.7,3.7,0,0,0-2.7-.9c-1.9,0-4,2.2-4,2.2a2.6,2.6,0,0,0-3.2.7c-1.7,2.1,1.8.4,1.8.4,4.9-.8,5.7,3.3,7,4.7s.2,4.9.2,4.9a21.4,21.4,0,0,1-1.9,3.4,17.1,17.1,0,0,1-2.7,2.7c-.7.7-1.9.1-3,1.2s-5,3.3-6.4,2.6A4.8,4.8,0,0,0,473.7,117.5Zm6.4,7.3a36.2,36.2,0,0,0-4.3-1.9,5.5,5.5,0,0,0-3.1.1,5.5,5.5,0,0,1,1.1-1.7h-.1c3.9-.6,7.6-3.2,9.2-4s5.3-2.1,5.7-1-3.1,1.7-6.7,2.9-1.3,2-.6,2a45.6,45.6,0,0,0,5.1-.4,3.7,3.7,0,0,1,.1,2.9,3.7,3.7,0,0,1-2,1.9S483.1,126.6,480.1,124.8Zm13.3-13.9a3.5,3.5,0,0,1-1,1.9c-.1-.4-1.6-3.7-.5-5.6a3.7,3.7,0,0,1,1.6-1.5C493.1,107.1,493.5,109.5,493.4,110.9Z"/><path d="M485.5,92.7h0Z"/><path class="a" d="M465,86.4a3.7,3.7,0,0,1,3.6,0c2.1,1,1.7,2.1,2.7,3.1a1.4,1.4,0,0,0,2,0s-1.8-.1-2.6-2.9-3.4-2.2-4.2-1.9S463,86.4,465,86.4Z"/><path class="a" d="M420.2,190.9s6.5,6.7,6.5,12,2.2-3.1,6.1-7,8-11.7,7.1-17.8,10.9-17.7,10.9-17.7l7-4.7s-.3,16.7-4.8,25.6-18.9,29.6-23.7,52.4,5.5,20.6,1.4,34.9c0,0-1.7,5.9,9.5,5.9,0,0,12.3-8.1,8,9.2H426.7s-1.8-13.7-6.5-13.7-3.8,3-3.8,3l-4.3-4.5,1.8-5.3s-5.5-7.9,1.2-20.1c0,0-3.6-18.5,4.9-29.5S420.2,190.9,420.2,190.9Z"/><path class="a" d="M392.2,258.3s11-5.2,15,1.3c0,0,1.7-2.1-.2-3.8s-.3-10.7.2-15.3-.4-12.3.2-18.2,3.5-15.2,1.5-25.6c0,0,.3,9.4-1.9,17a62.1,62.1,0,0,0-2.5,18.4c.3,3.5-.4,15.6-1.6,19.1a12.1,12.1,0,0,0-.5,3.1h-1s2.4-9.4,1.8-17.4a80.1,80.1,0,0,1,1.7-21.4,36.3,36.3,0,0,0,1.7-7.8s-4,8.7-4.3,17.5-.5,17.8-1.1,20.3c-1.4,5.9-1.8,8.7-1.8,8.7l-1.1.2s1.9-9.5,1.6-14.6-.3-12.2.3-14.8c0,0-2.3,5.7-2,16s-2.6,13.9-2.6,13.9a46.3,46.3,0,0,0,1.2-16.5S395.6,252.8,392.2,258.3Z"/><path class="a" d="M392.9,189.3a13.6,13.6,0,0,0-4.5,6.2s.5-5.8,3.8-9.8Z"/><path class="a" d="M392.1,184.1s-4.1,1.7-5.8,8.8c0,0,.4-8.9,4.8-14.4Z"/><path class="a" d="M391,176.2a68.1,68.1,0,0,1-1.6-6.7s-5.6,14-6.6,19.9C382.8,189.4,387.9,178.5,391,176.2Z"/><path class="a" d="M383.7,214.7s2.7-6,1.9-8.6a2.4,2.4,0,0,1-2.6,1.6c-2.1,0-1.4-5.1,0-6.5a6.8,6.8,0,0,0-4.5,4.2l-2-2.8a23,23,0,0,0,5.1-6.7s-6.9,5-10.4,5.4c0,0-4.4-4.2.9-12.6s2.9-10,3.8-12.9,2.6-7.9,7.1-10.3c0,0-5.3.7-9.4,12.3s-29.8,10.5-28.6,5.7c0,0-.7,4.7,6.3,5.7s16.5-.2,21-5.7a13.2,13.2,0,0,1-3.5,6.9c-3,3-4.5,4.7-10,6.3s-13.7-.1-19.3-5.6-5.8-12.9-12.8-21.4-11.1-3.1-11.1-3.1a5.3,5.3,0,0,0,3.8,1.3c2.5,0,8.7,2.6,10.1,13.3a11.3,11.3,0,0,0-7.3.8s5,.3,7,2.3c0,0-.4.6-2.9.6s2.1.1,2.7,2,.5,3.2-.5,4.2-3.4.9-3.4.9a6.6,6.6,0,0,0,4.3,1.5c2.7,0-.7,2.4-2.7,1.5s-10.1-3.5-19.9-.4c0,0,8.8-6.9,17.5-5.7,0,0-7.8-9.2-26.9-2,0,0,6.2-.4,7.4.8l-3.8,3.4s4.8-3.3,8.3-2.9,4.6-.2,1.3,1.6-9.7,4.9-14,8.1S285.3,204,274,218.6a116.7,116.7,0,0,1-8.6,9.7l4.4,8.6,1.9,5.6-1.6,6.5-1.1,4.9,3,6.4,6.1,9,2.5,10.5-3.5,7.5,43.5-.6-.8-6.6-1.7-6.4-4.3-3.6-10.3-1.5-4.8-4.3-1-6.3,2-7.5,2.2-7.9-.3-6.4-1.6-5.1.8-7,2.7-4.2,8-4.2,6.3-.6,8.3,1.2,6.1,3,11.5,2.4,14.4,2,8.2-1.3,9.8-1.9,5.5-2.5Z"/><path class="a" d="M366.5,189.6s-15.9,6.7-25.3-2.7c0,0,2.4,7.2,10.1,8.1S363.6,192.4,366.5,189.6Z"/><path class="a" d="M287.4,160.8s-5.1,4.5-1.9,9l3.2,4.5h1.5s2.1-9.2,9.3-11.9c0,0-3.6-1.7-9.6,4.3C289.9,166.7,285.1,166.4,287.4,160.8Z"/><path class="a" d="M232.5,246s-5.2,2.1-11.8,8.8c0,0-5.1,4.6-4.5,1s4.1-7.3,8.3-9.9,6-3.3,16.3-5.4c6.3-1.3,10.2-4.2,13.9-6.2s12.2-16.3,17.7-23.6,13.3-9.9,17.4-16.8,2.2-9.7,3.5-13,4.1-8.6,8.9-9.9c0,0-6.1,4.8-5.2,10.2,0,0,11.7-7.8,26-4.8,0,0-17.1-.6-25.4,8.5,0,0-2.7,3.8-4.7,11.4a34.2,34.2,0,0,1-9.6,16.2c-4.2,4.2-12.9,12.4-17.9,16.9s-21.1,14.2-21.1,14.2Z"/><path class="a" d="M235.5,209.3s-6.1-61.8,66.4-50.8c0,0-30-14.6-46.1-1.3C243.4,167.4,223,177.3,235.5,209.3Z"/><path class="a" d="M417.4,176s2.7-5.2,6.4-7.5c0,0,.6,6.8-2,10s-3.3,2.2-3.3,2.2Z"/><polygon class="a" points="567.5 296.4 77.2 296.4 80.9 283.9 571.2 283.9 567.5 296.4"/><path class="a" d="M121.8,373.8c-.5,1.7-2.3,3.2-5.6,4.3a34.1,34.1,0,0,1-11.6,1.8H73.3a26.8,26.8,0,0,1-10.7-1.8c-2.7-1.1-3.8-2.6-3.4-4.3l16.9-66.9q.2-.9,1.8-1.5a14.8,14.8,0,0,1,3.9-.5H92.2a11.8,11.8,0,0,1,3.7.5c.8.4,1.2.9,1,1.5L82.1,365.7c-.4,1.7-2.3,3.2-5.6,4.3a33.7,33.7,0,0,1-11.6,1.8H96.2a11.4,11.4,0,0,0,3.9-.6q1.7-.6,1.8-1.5l15.9-62.8a2.8,2.8,0,0,1,1.8-1.5,14.8,14.8,0,0,1,3.9-.5H134a11.5,11.5,0,0,1,3.6.5c.9.4,1.2.9,1.1,1.5Z"/><path class="a" d="M201.7,304.9a29.1,29.1,0,0,1,10.8,1.7c2.7,1.2,3.8,2.6,3.4,4.4L199,377.9c-.2.6-.8,1-1.9,1.4a10.7,10.7,0,0,1-3.9.6H182.8a8.7,8.7,0,0,1-3.6-.6c-.9-.4-1.3-.8-1.1-1.4l6.1-24.4c.2-.6-.2-1.1-1-1.4a9.2,9.2,0,0,0-3.7-.6H148.3a28.9,28.9,0,0,1,10.7,1.7c2.7,1.2,3.8,2.7,3.4,4.4l-5.2,20.3c-.1.6-.7,1-1.8,1.4a10.7,10.7,0,0,1-3.9.6H141.1a8.4,8.4,0,0,1-3.6-.6c-.9-.4-1.3-.8-1.1-1.4L153.3,311c.4-1.8,2.3-3.2,5.6-4.4a36.4,36.4,0,0,1,11.6-1.7ZM194,315c.1-.6-.2-1.1-1.1-1.5a11.5,11.5,0,0,0-3.6-.5H158a28.9,28.9,0,0,1,10.7,1.7c2.7,1.2,3.8,2.6,3.4,4.4l-5.6,22.3c-.2.6.2,1.1,1,1.4a9.2,9.2,0,0,0,3.7.6h10.4a11.4,11.4,0,0,0,3.9-.6c1.1-.3,1.7-.8,1.8-1.4Z"/><path class="a" d="M232.5,306.9a2.8,2.8,0,0,1,1.8-1.5,14.8,14.8,0,0,1,3.9-.5h10.5a11.5,11.5,0,0,1,3.6.5c.9.4,1.2.9,1.1,1.5l-14.9,58.8c-.4,1.7-2.3,3.2-5.6,4.3a33.7,33.7,0,0,1-11.6,1.8h52.2a11.5,11.5,0,0,1,3.6.5c.9.4,1.2.9,1.1,1.5l-1,4.1c-.2.6-.8,1-1.9,1.4a10.7,10.7,0,0,1-3.9.6H229.7a26.8,26.8,0,0,1-10.7-1.8c-2.7-1.1-3.8-2.6-3.4-4.3Z"/><path class="a" d="M297.5,379.9a9,9,0,0,1-3.6-.6c-.9-.4-1.2-.8-1.1-1.4l17.9-71c.2-.6.8-1.1,1.9-1.5a13.7,13.7,0,0,1,3.9-.5h10.4a11.5,11.5,0,0,1,3.6.5c.9.4,1.2.9,1.1,1.5l-17.9,71c-.2.6-.8,1-1.9,1.4a10.7,10.7,0,0,1-3.9.6Z"/><path class="a" d="M394.7,304.9a28.9,28.9,0,0,1,10.7,1.7c2.7,1.2,3.8,2.6,3.4,4.4l-16.9,66.9c-.2.6-.8,1-1.8,1.4a11.4,11.4,0,0,1-3.9.6H375.7a9,9,0,0,1-3.6-.6c-.9-.4-1.2-.8-1.1-1.4l6.2-24.4c.1-.6-.2-1.1-1.1-1.4a9,9,0,0,0-3.6-.6H341.2a28.9,28.9,0,0,1,10.7,1.7c2.7,1.2,3.8,2.7,3.4,4.4l-5.1,20.3c-.2.6-.8,1-1.9,1.4a10.7,10.7,0,0,1-3.9.6H334a9,9,0,0,1-3.6-.6c-.9-.4-1.2-.8-1.1-1.4L346.2,311c.4-1.8,2.3-3.2,5.6-4.4a36.4,36.4,0,0,1,11.6-1.7ZM386.9,315c.1-.6-.2-1.1-1.1-1.5a11.5,11.5,0,0,0-3.6-.5H350.9a28.9,28.9,0,0,1,10.7,1.7c2.7,1.2,3.9,2.6,3.4,4.4l-5.6,22.3c-.2.6.2,1.1,1.1,1.4a8.4,8.4,0,0,0,3.6.6h10.4a10.7,10.7,0,0,0,3.9-.6c1.1-.3,1.7-.8,1.8-1.4Z"/><path class="a" d="M470.1,377.9c-.2.6-.8,1-1.8,1.4a11.4,11.4,0,0,1-3.9.6H453.9a9,9,0,0,1-3.6-.6c-.9-.4-1.2-.8-1.1-1.4L465.1,315c.2-.6-.2-1.1-1.1-1.5a10.6,10.6,0,0,0-3.6-.5H429.1a28.5,28.5,0,0,1,10.7,1.7c2.7,1.2,3.9,2.6,3.4,4.4l-14.8,58.8c-.2.6-.8,1-1.8,1.4a11.4,11.4,0,0,1-3.9.6H412.2a9,9,0,0,1-3.6-.6c-.9-.4-1.2-.8-1.1-1.4l17.9-71c.2-.6.8-1.1,1.9-1.5a13.7,13.7,0,0,1,3.9-.5h41.7a28.9,28.9,0,0,1,10.7,1.7c2.7,1.2,3.8,2.6,3.4,4.4Z"/><path class="a" d="M511.3,379.9a8.4,8.4,0,0,1-3.6-.6c-.9-.4-1.3-.8-1.1-1.4L522.5,315c.1-.6-.2-1.1-1.1-1.5a11.5,11.5,0,0,0-3.6-.5H507.3a9,9,0,0,1-3.6-.6c-.9-.4-1.2-.8-1.1-1.4l1.1-4.1q.2-.9,1.8-1.5a13.7,13.7,0,0,1,3.9-.5h52.1a11.8,11.8,0,0,1,3.7.5c.8.4,1.2.9,1,1.5l-1,4.1c-.1.6-.8,1-1.8,1.4a11.4,11.4,0,0,1-3.9.6H528.2a28.9,28.9,0,0,1,10.7,1.7c2.7,1.2,3.8,2.6,3.4,4.4l-14.9,58.8c-.1.6-.7,1-1.8,1.4a10.7,10.7,0,0,1-3.9.6Z"/><path class="a" d="M531.1,415h3.5v1.2h-1.2v5h-1.2v-5h-1.1Z"/><path class="a" d="M536,415h1.1l1.5,4.3L540,415h1.2l1,6.2h-1.1l-.7-3.9-1.3,3.9H538l-1.3-3.9-.7,3.9h-1.1Z"/><path class="a" d="M80.7,411.3a18.5,18.5,0,0,1-16.6,10.5c-8.6,0-14-6.8-12-15.6s10.7-15.5,19.3-15.5c5.4,0,9.3,2.4,10.7,6.3l1.3-5.7h2l-2.3,9.9H81c-.1-5.1-3.9-8.5-10-8.5-7.6,0-15,5.9-16.8,13.5s2.8,13.6,10.4,13.6a15.6,15.6,0,0,0,14-8.5Z"/><path class="a" d="M146.8,421.2h-8.6l.5-1.8-6-9.7h-7.2l-2.3,9.7h5l-.4,1.8H115.9l.4-1.8h4.9l6.2-26.3h-4.9l.4-1.8h15.4c6.7,0,10.3,3.5,9,9.3s-6,8.7-12.1,9.1l6,9.7h6ZM134.3,408c5.5,0,9.8-2.8,10.9-7.4s-1.9-7.4-7.4-7.4h-8.4L125.9,408Z"/><path class="a" d="M211,393.2H194.6l-2.9,12.2h13.1l-.4,1.8H191.3l-2.9,12.1h16.5l1.4-6.1h1.9l-1.5,6.1h.1l-.5,1.9H181.1l.4-1.8h4.9l6.2-26.3h-4.9l.5-1.8h25.2l-.4,1.9h-.1l-1.4,6.1h-1.9Z"/><path class="a" d="M278.7,421.2h-12l.5-1.8h6l-2-8.5h-16l-5.9,8.5h5.9l-.4,1.8H243l.4-1.8h3.7l18.5-26.3h-5.8l.4-1.8h8.7l6.5,28.1h3.7Zm-11.4-27.5-10.8,15.4h14.3Z"/><path class="a" d="M343.8,393.2l-1.5,6.1h-1.9l1.5-6.1H331.7l-6.2,26.2h6l-.5,1.8H317.2l.5-1.8h5.8l6.2-26.2H319.6l-1.5,6.1h-1.8l1.8-8h26.2l-.5,1.9Z"/><path class="a" d="M382.1,419.4h5l-.5,1.8H374.8l.4-1.8h4.9l6.2-26.3h-4.8l.4-1.8h11.8l-.4,1.8h-4.9Z"/><path class="a" d="M460.5,393.1l-20,28.3h-2L432,393.1h-4.2l.4-1.8h12.4l-.5,1.8h-5.8l5.8,25.7,18-25.7h-5.8l.4-1.8H465l-.4,1.8Z"/><path class="a" d="M522.4,393.2H506l-2.9,12.2h13.1l-.4,1.8H502.7l-2.9,12.1h16.4l1.5-6.1h1.9l-1.5,6.1h.1l-.5,1.9H492.5l.4-1.8h4.9l6.2-26.3h-4.9l.5-1.8h25.2l-.4,1.9h-.1l-1.4,6.1H521Z"/></svg>