<svg xmlns="http://www.w3.org/2000/svg" viewBox="0 0 792 612"><defs><style>.a{fill:#231f20;}.b,.c{fill:#fff;}.c{stroke:#fff;stroke-miterlimit:10;stroke-width:0.58px;}.d{fill:none;}</style></defs><path class="a" d="M298.4,247.9l-.2-2.4-1.4-.6-2.6-.6V243l-1-2.5-2.7-1.1-2,.5-1.3,1.7-2.8-3.7-6.3-1.5-7.5-.4-4.1.8-3.9,1.5,1.9,1.7v1.5l-4.6,3.4-7.2,6.2-4.5,8-1.5,6.7-.6,9v4.3l3.9,2.8,5.2.6,3.2,7.5,6.1,1,5.7,4.7,3.4,5.9,1.6,5.3v5.2l4.1-1.8,4.5-5,6.7-1.7,4.7-3.5,3.9-6.2.5-4.3-1-3.9-4.5-2.9-6.2-6.9-4.4-4.9-.3-1.7s1.4-5-2.2-12.3,1.4-1.9,1.4-1.9l2.7-1.8,2.1-1.3,3.8.5,2.2-1.5,3.1-1.3"/><path class="a" d="M281,257s3.4,6.1,2.2,12.3,4.7,6.6,4.7,6.6l5.3,4.1,4.7.9h3.2l1.5,1.2,3.6.4,1.5-2.1,1.9-3.9,1.6-2.3.6-2.9v-5.1l.6-3.3-3-1.4-1.6-1.5-2.6-.9-.9-2-2.3-1.6-2.5-1.1v-4l-3.1-.3-3.7,1-3,.9-3.6.6Z"/><path class="a" d="M143.2,269.1c8.4,3.2,2.2,18.7,2.2,18.7s-9.4,16-1.7,22.3,23.9-6.2,23.9-6.2l11.8-5.2,11-.5,11.5-2,29.8-6.6,11.8-6.1,6.5-2.3,11.9,9,7.2,3.9,5.3,7.5,1.3,9.1-.5,1.4,5.9-3.7,2,10-7.5,17.5-3.3,15.5,2.2,9L271.7,374l-24.9-1,1.2-2.6,2.4-4.4-2.1-3.5V359l1.3-4.5-1.4-4.7v-5.3l-2.4-3.7v-4.5l-8.4-.3-35.2-6.1-22.8,11-6.6,5.2-10.6,4.5-3.5,5.3s-2.2,5.1-1.7,5.6,1,5.3,1,5.3l2.6-1.4,2.3,1.1,3.7-.5,3.3,4.6-.4,4.4-8.5,1-17.3-2.2,1.3-3,.4-4-.8-5.1-1.4-4.7,2.2-5.3,5.2-5.3,3.4-6.8,3-8.7,1.7-7.7.7-7.7h-4.2l-6.6,1-8.1-4.1-2.9-5.3V301l2.1-7.9,4.3-9.1,1.3-5.6-1.4-4-4.2-3-5,.4-3.2,1.8-3,3.4h-4.7l4.6-3.2s7.2-7.5,14.7-4.8"/><path class="b" d="M115.8,279.2c-.2.6-2.3,5.7-6.6,7.3a7.7,7.7,0,0,1-2.5.4,5.7,5.7,0,0,0,2.6.5h2a25.7,25.7,0,0,0,3.5-.6,17,17,0,0,1-6.1,3,18.3,18.3,0,0,1-2.8.5,6.6,6.6,0,0,0,2.9.1,37.5,37.5,0,0,0,7.4-1.2,39.8,39.8,0,0,1-7.5,3.6l-.9.2-2.4.5a16,16,0,0,0,2.9-.1c1.5-.2,14.2-2.7,16.4-3.4h.1l1.5-.5h0v0a7.9,7.9,0,1,0-10.5-10.3"/><path class="c" d="M126.2,275s8.8-8.9,15.5-6.5,9.7,10.8,4.3,19.8-6.9,21,1.1,22.3,20.5-7.2,20.5-7.2-3.6,3.3-4.7,5.7c0,0-5.1,1.2-8,2.3s-9.7,1.8-12.4-1-3.1-8.7-1.8-13a85,85,0,0,1,4.5-11.2s3.6-5.8,1.2-11.8a8.1,8.1,0,0,0-9.8-4.9c-1.2.5-6,2.2-9.2,6.2S126.2,275,126.2,275Z"/><path class="c" d="M128,276.1s6.7-8.2,13.3-4.9,4.2,11.1,4.2,11.1-4.7,9.6-5.8,12.5-2.6,9-.5,13.5a11,11,0,0,0,11.5,6.7c4.9-.6,10.7-3.6,12.2-5.9l-3.5,12s.4-4-2.7-4-5.3,1.6-11.2.1-10.1-7.5-8.8-15.3,4.4-12,6.5-17.1,2.2-10.1-2.4-12.1-9.7.8-11.7,5.3S128,276.1,128,276.1Z"/><path class="b" d="M163,370l.5.8.3.9a3.7,3.7,0,0,1,.2,1.2,1.3,1.3,0,0,1-.1.6,1.3,1.3,0,0,1-.1.6,10989471255366.6,10989471255366.6,0,0,0-.4,1c-.1.2-.2.3-.2.4l-.2.3-.2.2-1.4-1.5.2-.2h.4l.3-.3c.1-.1.2-.2.2-.3l.3-.4c0-.1.1-.2.2-.4s.1-.6.2-.9a2.2,2.2,0,0,0-.1-.9A3.1,3.1,0,0,0,163,370Z"/><path class="b" d="M157.3,369.1l.7.9.5,1.2c0,.2.1.5.1.7a3.3,3.3,0,0,1,0,1.6,2.4,2.4,0,0,1-.2.8l-.3.7-.3.6c-.2.1-.3.3-.4.4l-.3.4-.2.3-1.7-2.3h.5l.3-.2.4-.3.4-.3.3-.4c.1-.2.2-.3.2-.5a1.4,1.4,0,0,0,.2-.6,1.3,1.3,0,0,0,.1-.6v-1.1A3.9,3.9,0,0,0,157.3,369.1Z"/><path class="b" d="M266.1,369.3a2.2,2.2,0,0,1,.4.7,5.9,5.9,0,0,1,.4.8c0,.3.1.7.1,1v.6l-.2.5a.8.8,0,0,1-.2.5c-.1.2-.2.3-.2.4l-.3.3-.2.3-.2.2-1.1-1.6h.3l.3-.2.2-.2.3-.2c0-.1.1-.2.2-.3s.1-.2.2-.3a3,3,0,0,0,.1-1.6A2.8,2.8,0,0,0,266.1,369.3Z"/><path class="b" d="M260.4,368.5l.7.8c.1.3.3.7.4,1.1a1.4,1.4,0,0,1,.2.6v.7c0,.3-.1.5-.1.8l-.3.7-.3.6-.3.5-.7.6-.2.3-1.4-2.2h.3l.5-.2.3-.2.4-.3.3-.3.3-.4V371a1.1,1.1,0,0,0,.1-.5,3.3,3.3,0,0,0,0-1A3.9,3.9,0,0,0,260.4,368.5Z"/><path class="b" d="M286.5,375.7l-13.9-.2v-3.2h11.5c.2-1.8.2-3.7-.3-4.3s0-.1-.1-.1a3.5,3.5,0,0,0-1.6.2H282a2,2,0,0,1-1.7.9h-.1c-3.5.1-5.8-1.1-7-3.5l-.4-.7.4-.7c.4-.8,1.5-3.4.8-4.8s-3.1-11.5-.2-20.5a72.5,72.5,0,0,1,7.1-15.6c0-.1,5.5-8.9,7.4-14.9l2.8.9c-2,6.4-7.5,15.2-7.7,15.6a67.3,67.3,0,0,0-6.8,14.9c-2.6,8.1-1,16,.1,18.3s.1,5.4-.5,6.8a4.6,4.6,0,0,0,3.7,1.3c.6-.7,1.5-1.3,3.8-1.3a2.9,2.9,0,0,1,2.4,1.2c1.8,2.2.9,7.1.7,8Z"/><path class="d" d="M277.8,242.5c4.8,2.4,9.9,8.6,9.9,8.6h2.5s2.6-6.2,2.8-7.4.7-3.2-2-3.7a1.9,1.9,0,0,0-2.5,2v6.8c-2.6-7.5-5.9-10-5.9-10-6.2-1-12.9,1.8-12.9,1.8A21.1,21.1,0,0,1,277.8,242.5Z"/><path class="d" d="M265.9,251.6c-2.5-1.3-7.5.8-7.5.8,2.4-2.4,8-3.3,10.9-2.9s2.9-.5,2.9-.5c-2.4-3.5-9.7-2-9.7-2,4.6-2.7,8.5-2.3,11.2-1.3a27.2,27.2,0,0,1,4-.3,9.7,9.7,0,0,0-8-2.8c-5.4.4-9.2,1.8-15.9,9.4s-6.4,18.4-6,20.9a11.6,11.6,0,0,1,.2,4.6l.5-.8c1.5-2.2-.1-2.8,4.6-13.2S265.9,251.6,265.9,251.6Z"/><path class="d" d="M293.2,250.1c.5-.5,2.8-.8,3.6-1.2s2-2.5,0-3.5-2.3-.2-2.9.4-2,5-2,5A3.2,3.2,0,0,0,293.2,250.1Z"/><path class="d" d="M273.1,277.8c-6.2-4.2-7.5-14.9-7.5-14.9-3.8,8.3,1.3,16.5,1.3,16.5-8.1-6.1-2.7-22.3-2.7-22.3-14.4,5.5-11.2,20.2-11.2,20.2,1-3.7,4.7-6.2,4.7-6.2s-.8,2.6.7,8.5a15.6,15.6,0,0,0,6.9,9c.7-.7.4-4.2.4-4.2s.4,3.8,6.1,10.4,5.4,15.1,5.4,15.1,3.4-2.6,2-11.4-7.4-14-8.8-15.4l-.4-.3.4.3a34.8,34.8,0,0,1,3.7,3.2c1.7,1.7,4.9,4,6.3,6.2s1.1,4.4,1.1,8.7a21.1,21.1,0,0,0,2.9-10.1C284.4,287.7,279.3,281.9,273.1,277.8Z"/><path class="d" d="M301.3,276.7c.8.4,3.2-.8,3.8-1.5s1.4-.3,1.8-.7a7.1,7.1,0,0,0,1.5-1.5,6.9,6.9,0,0,0,1.1-2s.7-2.1-.1-2.8-1.2-3.2-4-2.7c0,0-2,.9-1.1-.3a1.6,1.6,0,0,1,1.9-.4,4.2,4.2,0,0,1,2.3-1.2,2.7,2.7,0,0,1,1.6.4,8,8,0,0,1,1.7-.4l-.2-.2a2.3,2.3,0,0,0-2.3-.3c-.7.4-1.8-.5-2.8-.6s-.5,0-.1,0h.1c.6,0,1.7-.2,1.9-.8s-2.1-.4-3-.1-2.3.4-2.3.1.8-.5,1.7-.7,1.3-.6.6-.8-1.6-.3-2,.1-.6-.4.1-.6.2-.4-.6-.9-.5-1-1.2-1.3a4.4,4.4,0,0,0-2.1-.7c-.9,0-.6-.4.6-.4a3.1,3.1,0,0,1,2.4.8c.6.6,1.3,1.8,2,1.8s-.4-1.9-1.5-2.3a26.7,26.7,0,0,0-5.4-1.7l.4-1.3c.3-.8.7-2.4.5-2.6a6.1,6.1,0,0,0-2.6-.3,6.8,6.8,0,0,0-3.4,1.4c-.3.3,0,1,0,1,3.8,1.9,3.4,3.1,3.4,3.1-1.3-1.7-4-2.4-5.4-2.9a6.2,6.2,0,0,0-3.2,0l-2.2,2.1-1.1.3,1.1,1.8s-1.8.2-2.6-.6a1.1,1.1,0,0,0-1.6,0c1.7,6-3.7,12.6-3.7,12.6a16.7,16.7,0,0,1,1.9-10.1c.4-1-.8-2.4-1.7-3.3s-3.1-1.6-3.9-2,1.6-2.5,3.6-3,3.3.5,4.6,1.2,2.7.2,2.7-.9-3-2.6-5.3-3.2a4,4,0,0,0-1.5-.3c-.7.3-7.3,2.4-8.2,5.9s7.2,5.5,7.2,5.5c-8.3.7-7.5,7.6-7.5,7.6a5,5,0,0,1,4.3-1.9c-3.5,4.5,0,10,0,10s2.2-3.2,2.2-3.2c-1.6,5.9,4.3,9.8,4.3,9.8s4.4,1.8,7.1,7.9.1,9.8-.9,12c2.4-1.6,7.1-4.4,7.1-10.6s-7.1-6.2-10.9-10-3.3-6.7-2.9-9.3a40.7,40.7,0,0,1,2.6-7.2s-2.6,9.1.2,12.6,7,5.3,7.9,6.9c0,0-.9-4.8-4.5-7.1s-2.5-7.6-2.5-7.6a6.7,6.7,0,0,0,2.7,3.8c2,1,2.3,1.7,2.3,1.7a5.3,5.3,0,0,0,0-3.5,4.4,4.4,0,0,1-.5-2.8,2,2,0,0,1,2.5.8c1.1,1.6,4.5,1.8,6,1.8a3.3,3.3,0,0,0-1.3,2.8c0,2-2.5,1.4-2.5,1.4s-.5.8,1.2.6a3.2,3.2,0,0,0,2-.7l.2-.2-.2.2a2.5,2.5,0,0,0-.6,2.1,3.7,3.7,0,0,0,2.4-1.1,4,4,0,0,0-.7,1.7,7.4,7.4,0,0,1,1.8-.7l1.4-.3m-4.4-19c.5-.1,2.1-.3,2.5,1.1s1.5,1.7,1.5,1.7a.8.8,0,0,1-1.2,0c-.5-.5-.3-1.2-1.5-1.8a2.4,2.4,0,0,0-2.1,0C293.5,258.9,294.8,258.1,295.5,257.9Zm1,4.5a3.2,3.2,0,0,0-1.4-.2h-2.2a2.8,2.8,0,0,1-1.2-.4,2.3,2.3,0,0,1-1.2-1.2l-.2-.4-3.1-1.1,4.8.5,1.6-.2a2.2,2.2,0,0,1,1.8.7l1.1,1.1,6.1,2.7Z"/><path class="d" d="M306.2,281.3c.1-.6.6-.6.8-.9s.4-1.1.1-1.6l-3,.3c-.4,0-1.8-.5.3-1.2s4.1-1,3.9-1.7-2.1,0-3.2.5-3.1,2.1-5.4,2.4h.1a3.6,3.6,0,0,0-.7,1,3.1,3.1,0,0,1,1.9-.1c1.3.5,2,1.7,2.4,1.9"/><path class="d" d="M311.2,270.1a2.4,2.4,0,0,0-1,.8c-.6,1.1.2,3,.3,3.3a2.4,2.4,0,0,0,.6-1.1C311.2,272.3,310.9,270.9,311.2,270.1Z"/><path d="M295.8,275l-.2.2Z"/><path d="M270.4,283.1l-.4-.3Z"/><path class="b" d="M296.5,261.2l-1.1-1.1a2.2,2.2,0,0,0-1.8-.7l-1.6.2-4.8-.5,3.1,1.1.2.4a2.3,2.3,0,0,0,1.2,1.2,2.8,2.8,0,0,0,1.2.4h2.2a3.2,3.2,0,0,1,1.4.2l6.1,1.5Z"/><path class="b" d="M263.9,240.6c-6.1,2.6-6.3,2.4-13.1,10.8s-6.2,18.9-5.9,20.9a14.6,14.6,0,0,1-4.3,11.5,8.5,8.5,0,0,1-4.2,3.9l-6.2,2.6s-8.2,2.8-4.4,1.7c10.9-3.1,19.1,2.3,20.4-8.9,0,0-1.4,11.5,3.9,20.7a26.5,26.5,0,0,1,2.5-15.6s.7,13.4,13.5,18.2c0,0-6.4-6.5-3.5-12.1,0,0,7.5.7,10.4,9.5s-1.3,14.9-1.3,14.9a36.1,36.1,0,0,0,5.3-4.5h0a30.2,30.2,0,0,0,5.3-6.1c1.7-1.5,7.6-6.5,10.5-9.4s4.9-12.3,4.9-12.3c1.1,2.3,0,6.4,0,6.4s-.9,3.6-6.7,8.3-1.4,23.1-1.4,23.1.4-8.1.9-10-.1-1.8,1.4-6.2a13.9,13.9,0,0,1,3.6-5.3,23.1,23.1,0,0,0,5.3-10.5,10.8,10.8,0,0,0-2-7.9,6.7,6.7,0,0,1-.1-2.9,2.8,2.8,0,0,1,2-.2c.2,0,.4.2.7.5a4.6,4.6,0,0,1,1.1,2.2,7.5,7.5,0,0,0,3.7,5c-.5-3.9.3-5.4.3-5.4,0,1.7,1.8,3.3,1.8,3.3a17,17,0,0,1,.2-5.5c1-2.7,1.6-3.1,3-5.7a7.8,7.8,0,0,0,.9-3.7v-.2c0-1.7,1.9-3.8,1.9-3.8a5.4,5.4,0,0,0-1.9-6.4c-1-.5-2.5-.3-3.2-1a14.9,14.9,0,0,0-3.4-1.7c0-1-.6-1.4-1.3-2.1a37.1,37.1,0,0,0-4.1-2.8c.3-1.6.4-4.1-1.5-4.4,0,0,2-6.3-4.2-6.3,0,0,.7-4-3.4-4.3s-4.2,1.4-4.2,1.4l-1.9-3.3a3.1,3.1,0,0,0-.9-.6c-7.9-2.1-15.1-1.6-19.8.1,0,0-8.5,3.2-10.4,9.3A14.5,14.5,0,0,1,263.9,240.6Zm32.9,4.8c2,1,.8,3.1,0,3.5s-3.1.7-3.6,1.2a3.2,3.2,0,0,1-1.3.7s1.3-4.3,2-5S294.9,244.3,296.8,245.4Zm-14.2-6.6s3.3,2.5,5.9,10V242a1.9,1.9,0,0,1,2.5-2c2.7.5,2.3,2.5,2,3.7s-2.8,7.4-2.8,7.4h-2.5s-3.3-6-8.8-8.9a31,31,0,0,0-14.4-3.6S274.1,235.7,282.6,238.8Zm-34.1,37.9-.5.8a11.6,11.6,0,0,0-.2-4.6c-.4-2.5-.6-13.2,6-20.9s10.5-9,15.9-9.4a9.7,9.7,0,0,1,8,2.8,27.2,27.2,0,0,0-4,.3c-2.7-1-6.6-1.4-11.2,1.3,0,0,7.3-1.5,9.7,2,0,0,.1,1-2.9.5s-8.5.5-10.9,2.9c0,0,5-2.1,7.5-.8,0,0-8,1.5-12.8,11.9S250,274.5,248.5,276.7Zm33,24.5c0-4.3,0-7.1-1.1-8.7s-4.6-4.5-6.3-6.2a34.8,34.8,0,0,0-3.7-3.2c1.4,1.4,7.6,7.6,8.8,15.4s-2,11.4-2,11.4.4-8.6-5.4-15.1-6.1-10.4-6.1-10.4.3,3.5-.4,4.2a15.6,15.6,0,0,1-6.9-9c-1.5-5.9-.7-8.5-.7-8.5s-3.7,2.5-4.7,6.2c0,0-3.2-14.7,11.2-20.2,0,0-5.4,16.2,2.7,22.3,0,0-5.1-8.2-1.3-16.5,0,0,1.3,10.7,7.5,14.9s11.3,9.9,11.3,13.3A21.1,21.1,0,0,1,281.5,301.2Zm18.2-24.3-1.2.3a7.4,7.4,0,0,0-1.8.7,4,4,0,0,1,.7-1.7,3.7,3.7,0,0,1-2.4,1.1,2.5,2.5,0,0,1,.6-2.1,3.2,3.2,0,0,1-2,.7c-1.7.2-1.2-.6-1.2-.6s2.5.6,2.5-1.4a3.3,3.3,0,0,1,1.3-2.8c-1.5,0-4.9-.2-6-1.8a2,2,0,0,0-2.5-.8,4.4,4.4,0,0,0,.5,2.8,5.3,5.3,0,0,1,0,3.5s-.3-.7-2.3-1.7a6.7,6.7,0,0,1-2.7-3.8s-1,5.3,2.5,7.6,4.5,7.1,4.5,7.1c-.9-1.6-5.2-3.5-7.9-6.9s-.2-12.6-.2-12.6a40.7,40.7,0,0,0-2.6,7.2c-.4,2.6-1,5.5,2.9,9.3s10.9,3.4,10.9,10-4.7,9-7.1,10.6c1-2.2,3-7.3.9-12s-7.1-7.9-7.1-7.9-5.9-3.9-4.3-9.8c0,0-2.2,1.7-2.2,3.2s-3.5-5.5,0-10a5,5,0,0,0-4.3,1.9s-.8-6.9,7.5-7.6c0,0-8.1-1.7-7.2-5.5s7.5-5.6,8.2-5.9a4,4,0,0,1,1.5.3c2.3.6,5.3,2.1,5.3,3.2s-1.4,1.6-2.7.9-2.5-1.7-4.6-1.2-4.5,2.7-3.6,3,2.9,1,3.9,2,2.1,2.3,1.7,3.3a16.7,16.7,0,0,0-1.9,10.1s5.4-6.6,3.7-12.6a1.1,1.1,0,0,1,1.6,0c.8.8,2.6.6,2.6.6l-1.1-1.8,1.1-.3,2.2-2.1a6.2,6.2,0,0,1,3.2,0c1.4.5,4.1,1.2,5.4,2.9,0,0,.4-1.2-3.4-3.1,0,0-.3-.7,0-1a6.8,6.8,0,0,1,3.4-1.4,6.1,6.1,0,0,1,2.6.3c.2.2-.2,1.8-.5,2.6l-.4,1.3a26.7,26.7,0,0,1,5.4,1.7c1.1.4,1.5,2.3,1.5,2.3s-1.4-1.2-2-1.8a3.1,3.1,0,0,0-2.4-.8c-1.2,0-1.5.4-.6.4a4.4,4.4,0,0,1,2.1.7c.7.3.5.8,1.2,1.3s1.3.6.6.9-.5,1-.1.6,1.3-.3,2-.1.3.6-.6.8-1.7.3-1.7.7,1.3.1,2.3-.1,3.3-1.1,3,.1-1.3.8-1.9.8c1,.1,2.1,1,2.8.6a2.3,2.3,0,0,1,2.3.3l.2.2a8,8,0,0,0-1.7.4,2.7,2.7,0,0,0-1.6-.4,4.2,4.2,0,0,0-2.3,1.2,1.6,1.6,0,0,0-1.9.4c-.9,1.2,1.1.3,1.1.3,2.8-.5,3.3,1.9,4,2.7s.1,2.8.1,2.8a6.9,6.9,0,0,1-1.1,2,7.1,7.1,0,0,1-1.5,1.5c-.4.4-1.1.1-1.8.7s-2.8,1.9-3.6,1.5A3.2,3.2,0,0,0,299.7,276.9Zm3.7,4.2L301,280a3.1,3.1,0,0,0-1.9.1,3.6,3.6,0,0,1,.7-1h-.1c2.3-.3,4.4-1.9,5.4-2.4s3-1.1,3.2-.5-1.7,1-3.9,1.7-.7,1.2-.3,1.2l3-.3a2.5,2.5,0,0,1,0,1.7,2.6,2.6,0,0,1-1.2,1.1S305.1,282.2,303.4,281.1Zm7.7-8a2.4,2.4,0,0,1-.6,1.1c-.1-.3-.9-2.2-.3-3.3a2.4,2.4,0,0,1,1-.8C310.9,270.9,311.2,272.3,311.1,273.1Z"/><path d="M306.5,262.5h-.1C306,262.5,306.2,262.6,306.5,262.5Z"/><path class="b" d="M294.7,258.9a2.4,2.4,0,0,1,2.1,0c1.2.6,1,1.3,1.5,1.8a.8.8,0,0,0,1.2,0s-1,0-1.5-1.7-2-1.2-2.5-1.1S293.5,258.9,294.7,258.9Z"/><path class="b" d="M268.8,319.3s3.8,3.9,3.8,6.9,1.2-1.8,3.5-4,4.6-6.8,4.1-10.3,6.3-10.2,6.3-10.2l4-2.7s-.2,9.6-2.8,14.7-10.9,17.2-13.6,30.3,3.2,11.9.8,20.2c0,0-1,3.4,5.4,3.4,0,0,7.1-4.7,4.7,5.3H272.6s-1.1-7.9-3.8-7.9-2.2,1.7-2.2,1.7l-2.5-2.6,1.1-3.1s-3.2-4.5.7-11.6c0,0-2.1-10.6,2.8-17S268.8,319.3,268.8,319.3Z"/><path class="b" d="M263.3,365.3a2.3,2.3,0,0,0-1.7-.3,1.3,1.3,0,0,0-.9.8,2.5,2.5,0,0,0-1.9-1.1c-1.2,0-1.5.6-2.2,1.1s-.9,0-.2-1.1a2.9,2.9,0,0,1,1.8-1.3,3.2,3.2,0,0,1,2.2.7,2.7,2.7,0,0,1,1.8-1,2.3,2.3,0,0,1,1.6.5l.8,1.5Z"/><path class="b" d="M252.6,358.2s6.4-3,8.7.8a1.6,1.6,0,0,0-.1-2.2c-1.2-1-.2-6.2.1-8.9s-.2-7.1.1-10.5,2-8.7.9-14.7a35.9,35.9,0,0,1-1.1,9.8,31.7,31.7,0,0,0-1.4,10.6c.1,2-.3,9-1,11a10.6,10.6,0,0,0-.3,1.8h-.6a38.5,38.5,0,0,0,1.1-10.1,45.4,45.4,0,0,1,1-12.4,17.2,17.2,0,0,0,.9-4.4,32,32,0,0,0-2.4,10.1c-.2,5-.3,10.2-.7,11.7-.8,3.4-1,5-1,5h-.6a42.8,42.8,0,0,0,.9-8.4,39.5,39.5,0,0,1,.1-8.6,25.9,25.9,0,0,0-1.1,9.3c.1,5.9-1.5,8-1.5,8a27.6,27.6,0,0,0,.7-9.5S254.6,355,252.6,358.2Z"/><path class="b" d="M253.1,318.4a7.9,7.9,0,0,0-2.7,3.6,11.8,11.8,0,0,1,2.2-5.7Z"/><path class="b" d="M252.6,315.4s-2.4,1-3.4,5.1c0,0,.3-5.2,2.8-8.4Z"/><path class="b" d="M251.9,310.8s-.7-2.9-.9-3.9-3.2,8.1-3.8,11.5C247.2,318.4,250.1,312.1,251.9,310.8Z"/><path class="b" d="M247.7,333s1.6-3.4,1.1-4.9c0,0-.2.9-1.5.9s-.8-2.9,0-3.8a3.9,3.9,0,0,0-2.6,2.5l-1.1-1.6a15,15,0,0,0,2.9-3.9s-4,2.9-6,3.1c0,0-2.6-2.4.5-7.3s1.7-5.8,2.2-7.4,1.5-4.6,4.1-6c0,0-3.1.4-5.4,7.1s-17.2,6.1-16.5,3.3c0,0-.5,2.7,3.6,3.3s9.5-.1,12.2-3.3a7.4,7.4,0,0,1-2.1,4c-1.7,1.7-2.6,2.8-5.8,3.7a12.1,12.1,0,0,1-11.1-3.3c-3.2-3.2-3.4-7.4-7.4-12.4s-6.4-1.7-6.4-1.7a3.1,3.1,0,0,0,2.1.7c1.5,0,5.1,1.5,5.9,7.7a6.5,6.5,0,0,0-4.2.4s2.9.2,4,1.4-.2.3-1.6.3,1.2.1,1.5,1.2.3,1.8-.2,2.4a4,4,0,0,1-2,.5,3.6,3.6,0,0,0,2.4.9c1.6,0-.4,1.4-1.5.9a17.3,17.3,0,0,0-11.5-.3s5.1-3.9,10.1-3.2c0,0-4.5-5.4-15.6-1.2,0,0,3.6-.2,4.4.5l-2.3,1.9s2.8-1.9,4.9-1.6,2.6-.2.7.8a76.9,76.9,0,0,0-8.1,4.8c-2.5,1.8-6.6,3.5-13.1,11.9-2.1,2.7-4.9,5.6-4.9,5.6l2.5,5,1.1,3.2-.9,3.7-.6,2.9,1.7,3.7,3.5,5.2,1.4,6-2,4.4,25.2-.4-.5-3.7-1-3.7-2.5-2.1-5.9-.9-2.8-2.5-.6-3.6,1.2-4.4,1.3-4.5-.2-3.7-1-3,.5-4,1.6-2.5,4.6-2.4,3.6-.3,4.8.7,3.5,1.7,6.7,1.4,8.3,1.2,4.7-.8,5.7-1.1,3.2-1.5Z"/><path class="b" d="M237.8,318.5s-9.2,3.9-14.7-1.5a7.5,7.5,0,0,0,5.9,4.7A10.2,10.2,0,0,0,237.8,318.5Z"/><path class="b" d="M192.1,301.9s-3,2.6-1.1,5.2l1.8,2.6h.9s1.2-5.3,5.4-6.9c0,0-2.1-.9-5.6,2.5C193.5,305.3,190.7,305.2,192.1,301.9Z"/><path class="b" d="M160.4,351.1a26.1,26.1,0,0,0-6.9,5.1s-2.9,2.7-2.6.6,2.4-4.2,4.8-5.8,3.5-1.8,9.5-3c3.6-.8,5.9-2.5,8-3.6s7-9.5,10.2-13.7,7.7-5.7,10-9.6,1.3-5.7,2.1-7.6,2.3-5,5.1-5.7c0,0-3.5,2.8-3,5.9,0,0,6.8-4.5,15-2.8,0,0-9.8-.3-14.6,4.9a21.9,21.9,0,0,0-2.8,6.6,18.8,18.8,0,0,1-5.5,9.4c-2.4,2.4-7.5,7.1-10.3,9.7s-12.2,8.3-12.2,8.3Z"/><path class="b" d="M162.1,329.9s-3.6-35.7,38.4-29.3c0,0-17.4-8.4-26.7-.8C166.7,305.7,154.9,311.4,162.1,329.9Z"/><path class="b" d="M245.6,373.8v1.4l28,.3v-1.6c-.7-9.3-4.3-10-5.4-10a3.1,3.1,0,0,0-1.7.4,12.3,12.3,0,0,1,.8-2.6l.4-.7-.5-.7a7.8,7.8,0,0,1-.5-4.9,11.4,11.4,0,0,1,1.5-3.6c.5-.9,1-1.8.6-2.8s-2-8.9,1-14.6a16.2,16.2,0,0,0,.3-14.1c-.5-1.5-1.6-5.6-.1-8.3h0c1.3-1.9,1-5.7,1-5.7a14.8,14.8,0,0,0-3.6,4.2h-.1c-2.4,4.5,0,10.5.1,10.7h.1c0,.1,2.8,5.8-.3,11.5s-1.9,14.7-1.3,16.7c0,.2-.2.4-.3.6a18.8,18.8,0,0,0-1.8,4.5,11.4,11.4,0,0,0,.5,6.3,16.5,16.5,0,0,0-.8,3.5v.7l.5.5a3.7,3.7,0,0,1,.4,2.1l3,.3c0-.3.4-1.4.9-1.4s1.8,2.7,2.3,5.7l-21.6-.2a9.4,9.4,0,0,1,1.5-2.8c1-1.5,2.3-3.3,1-5.6a12.4,12.4,0,0,1-1.5-3.9l1.2-3.6a4.6,4.6,0,0,0-.3-3.6,11.7,11.7,0,0,1-1.1-6.7,4.8,4.8,0,0,0-.9-3.7,9.2,9.2,0,0,1-1.5-6.6l.6-2.9-2.7,1.3c-8.4,3.9-25.8,1.2-28.4-.6s-12-2.7-16,1.2-2.8,9.6-2,12.8-1.2,7.1-2.5,9.9l-.2.4v.5c.1.4,1,4.5,2.8,6.3s2.9,1.2,4.9,1.4,3.2.2,3.8.8,1.6,3.8,2,6.3l-20.8.3a9.6,9.6,0,0,0-1.3-10.3,26.1,26.1,0,0,1-4.6-8,.4.4,0,0,1,0-.5,15.6,15.6,0,0,0,1.4-4.2,4.7,4.7,0,0,0-.4-3.7c-1-2-.6-5.2-.3-6.3l1.1-4.9-3.6,3.6c-4,3.9-20,11.3-20.2,11.4h-.2c-.3.2-3.2,2.2-4.9,8.1s2.2,9.8,2.3,9.9l1.6,1.3.7-1.8a5.8,5.8,0,0,1,.7-1.2l.6.5a2.2,2.2,0,0,0,1.9.7,2.1,2.1,0,0,0,1.7-1.4,1.9,1.9,0,0,1,1,.1c1.5.4,2.2,4,2.2,7.1H145.2a11.7,11.7,0,0,0,1.6-5v-.9c.1-2.1.1-4.2-1.4-9.1s.2-5,1.9-6.6l.9-.8c2.6-2.6,7.4-8.7,10-19.8.5-2.1.9-4.2,1.3-6.2,1.8-9.2,3.5-17.8,11.4-22.6s11.7-4.1,17.1-3.9h2.9c4.5,0,35.3-6.5,36.6-6.8h.1c.5-.2,11.3-3.5,17.6-9.8l-2.1-2.1c-5.5,5.5-15.4,8.8-16.3,9-8.9,1.9-32.4,6.7-35.9,6.7h-2.8c-5.4-.1-10.9-.3-18.7,4.4s-11,15.1-12.8,24.5c-.4,2-.8,4.1-1.3,6.1-2.4,10.5-6.8,16-9.2,18.4l-.8.7c-1.9,1.8-4.5,4.2-2.7,9.7a24.1,24.1,0,0,1,1.3,8.2v.9c0,1.4-1.6,4.2-2.5,5.7l-1.6,2.3h31.6v-1.4a27.5,27.5,0,0,0-.3-4.9c-.5-3.8-1.9-6-4-6.6s-3.4,0-4,.7a3.2,3.2,0,0,0-2.5-.8,3.5,3.5,0,0,0-1.8,1,7.6,7.6,0,0,1-.3-5.4c1.3-4.4,3.3-6.1,3.7-6.4s12.1-5.6,18-9.7a10.6,10.6,0,0,0,1,4.6,3,3,0,0,1,.2,1.6,20.9,20.9,0,0,1-1.2,3.6,3.3,3.3,0,0,0-.2,2.9,30,30,0,0,0,5.1,8.9c3.6,4.4-.1,8.7-.2,8.9l-2.2,2.5,30.1-.4v-1.6c-.2-1.3-.9-7.5-3.1-9.7s-3.7-1.5-5.7-1.7-2.7-.2-3-.5-1.5-2.9-1.9-4.4,3.4-8,2.5-11.4-1.6-7.1,1.2-9.9,9.7-2.7,12.2-.9,19.3,4.8,29.1,1.7a12.6,12.6,0,0,0,2.2,6.5,1.9,1.9,0,0,1,.3,1.5,15.1,15.1,0,0,0,1.5,8.5,2,2,0,0,1,.1,1.3l-1.4,4.1v.3a15.6,15.6,0,0,0,2,5.5c.3.5.1.9-.9,2.4A10,10,0,0,0,245.6,373.8Z"/><path class="b" d="M351.6,340c-.3,1.3-1.7,2.4-4.1,3.2a25.7,25.7,0,0,1-8.7,1.3H315.4a20,20,0,0,1-8-1.3c-2-.8-2.9-1.9-2.5-3.2l12.6-50c.1-.5.6-.9,1.4-1.1a7.6,7.6,0,0,1,2.9-.5h7.8a6.8,6.8,0,0,1,2.7.5c.6.2.9.6.8,1.1L322,333.9q-.5,2-4.2,3.3a28,28,0,0,1-8.7,1.3h23.4a8.5,8.5,0,0,0,3-.5,1.8,1.8,0,0,0,1.3-1l11.9-47a1.7,1.7,0,0,1,1.3-1.1,8.5,8.5,0,0,1,3-.5h7.8a6.8,6.8,0,0,1,2.7.5c.6.2.9.6.8,1.1Z"/><path class="b" d="M411.5,288.4a22.3,22.3,0,0,1,8,1.3c2,.9,2.8,2,2.5,3.3l-12.6,50c-.1.5-.6.8-1.4,1.1a8.5,8.5,0,0,1-2.9.4h-7.8a6.4,6.4,0,0,1-2.7-.4c-.7-.3-.9-.6-.8-1.1l4.6-18.2c.1-.4-.2-.8-.8-1.1a7.2,7.2,0,0,0-2.8-.4H371.5a20.3,20.3,0,0,1,8,1.3c2,.9,2.8,2,2.5,3.3L378.2,343c-.1.5-.6.8-1.4,1.1a8.5,8.5,0,0,1-2.9.4h-7.8a6.4,6.4,0,0,1-2.7-.4c-.7-.3-.9-.6-.8-1.1l12.6-50q.4-2,4.2-3.3a27.5,27.5,0,0,1,8.7-1.3Zm-5.9,7.6c.2-.4-.1-.8-.8-1.1a6.4,6.4,0,0,0-2.7-.4H378.7a19.6,19.6,0,0,1,8,1.3c2.1.9,2.9,2,2.6,3.3l-4.2,16.6c-.1.5.1.8.8,1.1a6.4,6.4,0,0,0,2.7.4h7.8a8.5,8.5,0,0,0,2.9-.4c.8-.3,1.2-.6,1.4-1.1Z"/><path class="b" d="M434.5,290c.1-.5.5-.9,1.3-1.1a8.4,8.4,0,0,1,2.9-.5h7.8a7,7,0,0,1,2.8.5c.6.2.9.6.8,1.1L439,333.9q-.6,2-4.2,3.3a28.4,28.4,0,0,1-8.7,1.3h39a6.4,6.4,0,0,1,2.7.4c.7.3.9.6.8,1.1l-.7,3c-.2.5-.6.8-1.4,1.1a8.5,8.5,0,0,1-2.9.4H432.4a20,20,0,0,1-8-1.3c-2.1-.8-2.9-1.9-2.6-3.2Z"/><path class="b" d="M483.1,344.5a6.4,6.4,0,0,1-2.7-.4c-.7-.3-1-.6-.9-1.1l13.4-53a1.8,1.8,0,0,1,1.4-1.1,8.4,8.4,0,0,1,2.9-.5H505a6.2,6.2,0,0,1,2.7.5c.7.2,1,.6.8,1.1l-13.4,53c-.1.5-.5.8-1.3,1.1a8.5,8.5,0,0,1-2.9.4Z"/><path class="b" d="M555.7,288.4a21.9,21.9,0,0,1,8,1.3c2,.9,2.9,2,2.6,3.3l-12.7,50c-.1.5-.5.8-1.3,1.1a8.7,8.7,0,0,1-3,.4h-7.8a7,7,0,0,1-2.7-.4c-.6-.3-.9-.6-.8-1.1l4.6-18.2c.1-.4-.1-.8-.8-1.1a6.4,6.4,0,0,0-2.7-.4H515.7a20,20,0,0,1,8,1.3c2,.9,2.9,2,2.6,3.3L522.4,343c-.1.5-.5.8-1.3,1.1a8.5,8.5,0,0,1-2.9.4h-7.8a7.2,7.2,0,0,1-2.8-.4c-.6-.3-.9-.6-.8-1.1l12.7-50q.4-2,4.2-3.3a27.3,27.3,0,0,1,8.6-1.3Zm-5.8,7.6c.1-.4-.2-.8-.8-1.1a7,7,0,0,0-2.7-.4H523a20,20,0,0,1,8,1.3c2,.9,2.9,2,2.5,3.3l-4.2,16.6c-.1.5.2.8.8,1.1a7,7,0,0,0,2.7.4h7.8a8.7,8.7,0,0,0,3-.4c.8-.3,1.2-.6,1.3-1.1Z"/><path class="b" d="M612.1,343c-.1.5-.6.8-1.3,1.1a8.7,8.7,0,0,1-3,.4H600a7,7,0,0,1-2.7-.4c-.6-.3-.9-.6-.8-1.1l11.9-47c.1-.4-.2-.8-.8-1.1a7,7,0,0,0-2.7-.4H581.5a20,20,0,0,1,8,1.3c2,.9,2.9,2,2.5,3.3L580.9,343c-.1.5-.5.8-1.3,1.1a8.7,8.7,0,0,1-3,.4h-7.8a7,7,0,0,1-2.7-.4c-.6-.3-.9-.6-.8-1.1l13.4-53c.1-.5.6-.9,1.4-1.1a8.4,8.4,0,0,1,2.9-.5h31.2a21.9,21.9,0,0,1,8,1.3c2,.9,2.9,2,2.6,3.3Z"/><path class="b" d="M642.9,344.5a7,7,0,0,1-2.7-.4c-.6-.3-.9-.6-.8-1.1l11.9-47c.1-.4-.2-.8-.8-1.1a7,7,0,0,0-2.7-.4H640a6.4,6.4,0,0,1-2.7-.4c-.7-.3-1-.7-.9-1.1l.8-3c.1-.5.6-.9,1.4-1.1a7.9,7.9,0,0,1,2.9-.5h39a6.8,6.8,0,0,1,2.7.5c.6.2.9.6.8,1.1l-.8,3c-.1.4-.5.8-1.3,1.1a8.5,8.5,0,0,1-2.9.4H655.6a20.3,20.3,0,0,1,8,1.3c2,.9,2.8,2,2.5,3.3L655,343c-.1.5-.6.8-1.4,1.1a8.1,8.1,0,0,1-2.9.4Z"/><path class="b" d="M657.7,370.8h2.6v.9h-.8v3.7h-.9v-3.7h-.9Z"/><path class="b" d="M661.4,370.8h.8l1.1,3.2,1.1-3.2h.9l.7,4.6h-.8l-.5-2.9-1,2.9h-.8l-1-2.9-.5,2.9h-.8Z"/><path class="b" d="M321,368a14.1,14.1,0,0,1-12.5,7.9c-6.4,0-10.5-5.1-8.9-11.7s8-11.6,14.4-11.6c4.1,0,7,1.8,8,4.7l1-4.2h1.5l-1.8,7.4h-1.5c-.1-3.8-3-6.4-7.5-6.4a13.4,13.4,0,0,0-12.5,10.1c-1.4,5.7,2,10.2,7.7,10.2a11.8,11.8,0,0,0,10.5-6.4Z"/><path class="b" d="M370.4,375.4H364l.3-1.3-4.5-7.3h-5.4l-1.7,7.3h3.8l-.4,1.3h-8.9l.3-1.3h3.7l4.7-19.7h-3.7l.3-1.3H364c5,0,7.7,2.6,6.7,6.9s-4.5,6.5-9,6.8l4.5,7.3h4.5Zm-9.4-9.9c4.2,0,7.4-2,8.2-5.5s-1.4-5.5-5.5-5.5h-6.4l-2.6,11Z"/><path class="b" d="M418.4,354.5H406.1l-2.1,9.1h9.8l-.4,1.4h-9.8l-2.1,9h12.3l1.1-4.6h1.4l-1.1,4.6h0l-.3,1.4H396l.3-1.3H400l4.6-19.7H401l.3-1.3h18.9l-.4,1.4h0l-1.1,4.5h-1.4Z"/><path class="b" d="M469,375.4h-9l.4-1.3h4.5l-1.5-6.4h-12l-4.4,6.4h4.4l-.3,1.3h-8.8l.3-1.3h2.7l13.9-19.7h-4.3l.3-1.3h6.5l4.8,21h2.8Zm-8.5-20.6-8.1,11.6h10.7Z"/><path class="b" d="M517.7,354.5l-1.1,4.5h-1.4l1.1-4.5h-7.6L504,374.1h4.5l-.4,1.3H497.8l.3-1.3h4.4l4.6-19.6h-7.5l-1.1,4.5h-1.4l1.4-5.9H518l-.3,1.4Z"/><path class="b" d="M546.3,374.1H550l-.3,1.3h-8.8l.3-1.3h3.6l4.7-19.7h-3.7l.4-1.3H555l-.3,1.3H551Z"/><path class="b" d="M604.9,354.4,590,375.6h-1.5l-4.9-21.2h-3.1l.3-1.3H590l-.3,1.3h-4.4l4.4,19.2,13.5-19.2h-4.4l.3-1.3h9.2l-.3,1.3Z"/><path class="b" d="M651.2,354.5H639l-2.2,9.1h9.8l-.3,1.4h-9.8l-2.2,9h12.3l1.1-4.6h1.4L648,374h.1l-.4,1.4H628.9l.3-1.3h3.6l4.7-19.7h-3.7l.3-1.3H653l-.3,1.4h0l-1.1,4.5h-1.4Z"/></svg>