<?xml version="1.0" encoding="utf-8"?>
<!-- Generator: Adobe Illustrator 22.1.0, SVG Export Plug-In . SVG Version: 6.00 Build 0)  -->
<svg version="1.1" baseProfile="basic" id="Layer_1"
	 xmlns="http://www.w3.org/2000/svg" xmlns:xlink="http://www.w3.org/1999/xlink" x="0px" y="0px" viewBox="0 0 584 146"
	 xml:space="preserve">
<style type="text/css">
	.st0{fill:none;}
	.st1{fill:#3A8DDE;}
	.st2{fill:#FFFFFF;}
	.st3{fill:none;stroke:#000000;stroke-width:0;stroke-linecap:round;stroke-linejoin:round;}
	.st4{fill:#0033A1;}
</style>
<g>
	<path class="st0" d="M179,36.09998l0.09705,0.87317c0.02679-0.25146,0.05011-0.5,0.10297-0.77313C180.40002,30,177,24,177,24
		l0.51721-0.44623c-0.41602,0.04901-0.71716,0.34619-0.71722,0.34625C180.39996,31.10004,179,36.09998,179,36.09998z"/>
	<path class="st1" d="M160.40002,5.59998c0,0,7.09998-0.29999,14.39996,3.60004c5.5,2.89996,8.80005,8.89996,8.80005,8.89996h2.5
		c0,0,2.59998-6.19995,2.79999-7.39996c0.20001-1.10004,0.70001-3.20001-2-3.70001c-2.60004-0.5-2.5,2-2.5,2v6.79999
		c-2.60004-7.5-5.79999-10-5.79999-10C170.10004,2.70001,160.40002,5.59998,160.40002,5.59998z"/>
	<path class="st1" d="M143.79999,39.90002C144,41.5,144.40002,42.70001,144,44.5c0.29999-0.5,0.5-0.79999,0.5-0.79999
		C146,41.5,144.5,41,149.20001,30.59998c4.70001-10.39996,12.70001-11.89996,12.70001-11.89996
		c-2.5-1.29999-7.5,0.79999-7.5,0.79999c2.5-2.5,8.09998-3.40002,11-2.90002s2.79999-0.5,2.79999-0.5
		c-2.39996-3.39996-9.70001-1.89996-9.70001-1.89996c4.5-2.79999,8.5-2.40002,11.20001-1.40002c1.60004-0.29999,4-0.29999,4-0.29999
		s-2.59998-3.20001-8-2.79999c-5.40002,0.39996-9.09998,1.70001-15.79999,9.39996
		C143.20001,26.70001,143.40002,37.40002,143.79999,39.90002z"/>
	<path class="st1" d="M179,36.09998c0,0,1.39996-4.99994-2.20001-12.19995l0,0c1.70001,6-3.70001,12.59998-3.70001,12.59998
		c-0.89996-5.29999,1.5-9.09998,1.90002-10.09998s-0.79999-2.5-1.70001-3.40002c-0.89996-0.90002-3-1.5-3.89996-1.90002
		c-0.80005-0.29999,1.59998-2.5,3.69995-3c2.10004-0.5,3.30005,0.5,4.60004,1.20001
		c1.29999,0.79999,2.70001,0.10004,2.70001-0.89996s-3-2.60004-5.30005-3.20001c-0.5-0.10004-1-0.20001-1.5-0.20001
		c-0.69995,0.20001-7.39996,2.40002-8.19995,5.90002c-0.90002,3.69995,7.19995,5.5,7.19995,5.5
		c-8.29999,0.69995-7.5,7.59998-7.5,7.59998c1.60004-2.20001,4.30005-1.90002,4.30005-1.90002c-3.5,4.5,0,10,0,10
		c0-1.5,2.19995-3.19995,2.19995-3.19995c-1.59998,5.79999,4.30005,9.69995,4.30005,9.69995s4.39996,1.90002,7.09998,8
		c2.10004,4.70001,0.20001,9.80005-0.89996,12C184.5,67,189.20001,64.20001,189.20001,58c0-6.5-7.20001-6.09998-11-9.90002
		c-3.79999-3.79999-3.29999-6.69995-2.79999-9.39996S178,31.5,178,31.5s-2.5,9.09998,0.20001,12.59998
		c2.79999,3.40002,7,5.30005,8,6.90002c0,0-0.89996-4.79999-4.5-7.09998c-2.45557-1.56891-2.72357-4.53125-2.64636-6.25763
		c0.00433-0.21448,0.01868-0.43707,0.0434-0.66925L179,36.09998z"/>
	<path class="st1" d="M169.09998,44.79999c-6.19995-4.20001-7.39996-14.89996-7.39996-14.89996
		c-3.90002,8.29999,1.20001,16.5,1.20001,16.5c-8.10004-6-2.70001-22.20001-2.70001-22.20001
		C145.70001,29.70001,149,44.40002,149,44.40002c1-3.70001,4.70001-6.20001,4.70001-6.20001s-0.90002,2.59998,0.59998,8.5
		c1.5,5.89996,6.90002,8.89996,6.90002,8.89996c0.70001-0.70001,0.39996-4.20001,0.39996-4.20001s0.30005,3.80005,6.10004,10.40002
		c5.79999,6.5,5.39996,15.09998,5.39996,15.09998s3.40002-2.5,2-11.39996c-1.19995-7.79999-7.29999-14-8.79999-15.40002
		c0.90002,0.79999,2.29999,1.70001,3.79999,3.20001C171.79999,55,175,57.40002,176.40002,59.5
		C177.5,61.09998,177.5,63.90002,177.5,68.20001c1.70001-2.70001,2.90002-6.90002,2.90002-10
		C180.40002,54.70001,175.29999,49,169.09998,44.79999z M166.09998,49.79999c0,0,0.10004,0.10004,0.30005,0.29999
		C166.20001,50,166.10004,49.90002,166.09998,49.79999z"/>
	<path class="st1" d="M193.70001,53.20001c0,0-1.5,8.89996-4.90002,12.29999c-0.64099,0.64099-1.42767,1.39221-2.27753,2.18555
		c-0.01764,0.28717-0.03949,0.60529-0.06561,0.94806c0.20068-0.22852,0.41119-0.44489,0.64313-0.63361
		c5.70001-4.70001,6.60004-8.29999,6.60004-8.29999S194.90002,55.5,193.70001,53.20001z"/>
	<path class="st1" d="M189.20001,17.09998c0.5-0.5,2.79999-0.79999,3.59998-1.19995c0.80005-0.40002,1.90002-2.40002,0-3.5
		c-1.89996-1.10004-2.29999-0.20001-3,0.39996c-0.59998,0.70001-1.89996,5-1.89996,5S188.70001,17.59998,189.20001,17.09998z"/>
	<path class="st2" d="M207.5,30.5c-0.40002-0.5-1.40002-0.70001-2.20001-0.29999C204.5,30.5,203.5,29.70001,202.5,29.59998
		c0.5,0,1.59998-0.19995,1.79999-0.89996c0.29999-1.10004-2.10004-0.40002-3-0.10004c-0.90002,0.30005-2.20001,0.5-2.20001,0.10004
		c0-0.40002,0.70001-0.5,1.60004-0.70001c0.89996-0.20001,1.29999-0.59998,0.59998-0.79999
		c-0.70001-0.29999-1.59998-0.29999-2,0.09998c-0.39996,0.29999-0.59998-0.39996,0.10004-0.70001
		c0.69995-0.19995,0.19995-0.29999-0.60004-0.79999s-0.59998-0.89996-1.20001-1.29999
		C197,24.09998,196.39996,23.70001,195.5,23.70001c-0.90002,0-0.59998-0.40002,0.59998-0.40002
		c1.10004,0,1.79999,0.20001,2.40002,0.79999c0.59998,0.60004,1.29999,1.80005,2,1.80005c0,0-0.40002-1.80005-1.5-2.30005
		s-3.29999-1.39996-5.40002-1.69995L194,20.59998c0.20001-0.79999,0.70001-2.39996,0.5-2.59998
		c-0.20001-0.29999-1.20001-0.40002-2.60004-0.40002c-1.39996,0-3.09998,1.10004-3.39996,1.40002s0,1,0,1
		c3.70001,1.90002,3.29999,3.09998,3.29999,3.09998c-1.29999-1.69995-4-2.39996-5.39996-2.89996c-1.40002-0.5-3.20001,0-3.20001,0
		C182.5,20.90002,181,22.29999,181,22.29999l-1.09998,0.29999L181,24.40002c0,0-1.79999,0.29999-2.59998-0.5
		c-0.3103-0.3103-0.6192-0.37732-0.88281-0.34625L177,24c0,0,3.40002,6,2.20001,12.20001
		c-0.05286,0.27313-0.07617,0.52167-0.10297,0.77313c-0.02472,0.23218-0.03906,0.45477-0.0434,0.66925
		c0.03601-0.8045,0.14636-1.34241,0.14636-1.34241s0.70001,2.70001,2.70001,3.79999c2,1.10004,2.29999,1.70001,2.29999,1.70001
		s0.70001-1.89996-0.09998-3.5c-0.80005-1.59998-0.5-2.79999-0.5-2.79999s1.59998-0.70001,2.59998,0.79999s4.5,1.79999,6,1.79999
		c0,0-1.29999,0.70001-1.29999,2.70001s-2.40002,1.5-2.40002,1.5s-0.59998,0.79999,1.20001,0.60004
		c1.09998-0.20001,1.59998-0.5,1.90002-0.70001c-0.30005,0.39996-0.80005,1.20001-0.60004,2.09998c0,0,1.29999,0,2.40002-1.09998
		c0,0-0.70001,1.09998-0.70001,1.79999c0.5-0.40002,1.79999-0.70001,1.79999-0.70001l1.20001-0.39996
		c1-0.40002,1.79999-0.20001,1.89996,0c0.79999,0.39996,3.09998-0.90002,3.70001-1.5
		c0.59998-0.60004,1.39996-0.30005,1.70001-0.70001c0.29999-0.40002,1-0.90002,1.5-1.60004c0.5-0.89996,1-1.5,1.09998-2
		c0,0,0.70001-2-0.09998-2.79999c-0.80005-0.79999-1.30005-3.20001-4.10004-2.70001c0,0-2,0.90002-1-0.29999
		c0,0,0.60004-0.89996,1.79999-0.39996c0,0,1.20001-1.20001,2.30005-1.20001c1.09998,0,1.5,0.5,1.5,0.5
		s0.89996-0.40002,1.69995-0.40002C207.59998,30.70001,207.59998,30.59998,207.5,30.5z M191.60004,42.29999
		C191.70001,42.09998,191.79999,42,191.79999,42S191.70001,42.09998,191.60004,42.29999z M191.5,24.90002
		C192,24.79999,193.60004,24.59998,194,26c0.5,1.59998,1.5,1.70001,1.5,1.70001s-0.70001,0.59998-1.20001,0
		c-0.5-0.60004-0.29999-1.20001-1.5-1.79999c-1.20001-0.60004-2.09998,0-2.09998,0
		C189.5,25.90002,190.79999,25.09998,191.5,24.90002z M192.59998,29.20001C192.20001,29.09998,191.70001,29,191.20001,29H189
		c-0.5,0-0.90002-0.09998-1.29999-0.29999c-0.5-0.20001-1-0.70001-1.20001-1.20001l-0.20001-0.40002l-3-1L188.09998,26.5
		l1.5-0.20001C190.29999,26.20001,190.90002,26.5,191.40002,27L192.5,28.20001l6.20001,2.5L192.59998,29.20001z M202.40002,29.5
		H202.5C202.20001,29.59998,202,29.5,202.40002,29.5z"/>
	<path class="st2" d="M206.29999,38c-0.59998,1.09998,0.20001,3,0.30005,3.20001c0.19995-0.29999,0.39996-0.70001,0.5-1.10004
		c0.09998-0.79999-0.20001-2.19995,0.09998-3C206.90002,37.29999,206.60004,37.5,206.29999,38z"/>
	<path class="st2" d="M200.5,44.90002c2.10004-0.70001,4.10004-1,3.90002-1.70001s-2.10004-0.10004-3.29999,0.5
		c-0.90002,0.39996-3,2-5.30005,2.29999c-0.20001,0.29999-0.39996,0.70001-0.59998,1c0.5-0.09998,1.20001-0.20001,1.79999,0
		c1.29999,0.5,2,0.90002,2.40002,1.09998c1.70001,1.10004,2.5,0.5,2.70001,0.5c0.59998-0.19995,1-0.69995,1.09998-1.09998
		c0.10004-0.29999,0.29999-1.20001,0-1.70001c-1.29999,0.20001-2.70001,0.29999-3,0.29999
		C199.70001,46.09998,198.40002,45.59998,200.5,44.90002z"/>
	<path class="st2" d="M32.59998,36.40002c-1.19995,0.5-6,2.19995-9.19995,6.19995c-0.01349,0.01685-0.02313,0.02747-0.03644,0.04401
		c0.22107,0.14709,0.42853,0.30957,0.63373,0.47748C23.99896,43.10803,24,43.09998,24,43.09998s6.70001-8.19995,13.29999-4.89996
		C43.90002,41.5,41.5,49.29999,41.5,49.29999s-4.70001,9.59998-5.79999,12.5c-1.10004,2.90002-2.60004,9-0.5,13.59998
		c2.09998,4.60004,6.5,7.20001,11.5,6.60004c3.26642-0.40002,6.92627-1.86743,9.45215-3.48212
		c0.29456-0.70435,0.60931-1.39746,0.95459-2.0733c-1.74939,0.44873-4.40302,1.17126-6.20673,1.85541
		C48,79.40002,41.29999,80,38.59998,77.29999C35.90002,74.59998,35.5,68.5,36.70001,64.20001s4.59998-11.10004,4.59998-11.10004
		s3.60004-5.79999,1.10004-11.79999S33.90002,35.90002,32.59998,36.40002z"/>
	<path class="st2" d="M164,133.79999c-0.5,0-0.79999,1-0.90002,1.40002l-2.89996-0.30005c0-0.79999-0.20001-1.89996-0.40002-2.09998
		l-0.5-0.5c0,0-0.69995-0.5-1.69995-0.29999c0,0-0.60004,0.09998-0.90002,0.79999c0,0-0.70001-1.09998-1.89996-1.09998
		c-1.20001,0-1.5,0.59998-2.20001,1.09998c-0.60004,0.5-0.90002,0-0.29999-1.09998c0.29999-0.5,1.19995-1.30005,1.79999-1.30005
		c0.59998,0,1.70001,0.10004,2.29999,0.70001c0,0,0.70001-1,1.79999-1c0.70282,0,1.1358,0.23773,1.37488,0.41461
		c0.13599-0.65826,0.36249-1.53387,0.7251-2.41461c-0.5-1.09998-1.19995-3.39996-0.5-6.29999
		c0.25458-1.06909,0.58673-1.9549,0.91766-2.68756c0.27905-0.7959,0.64941-1.63373,1.13049-2.51007
		c-0.62665-2.3551-1.95746-10.27295,1.35187-16.50238c3-5.70001,0.20001-11.40002,0.20001-11.5V88.5
		c-0.10004-0.20001-2.5-6.20001-0.10004-10.70001c0,0,0.10004,0,0.10004-0.09998v-0.10004
		c0.40002-0.70001,1.79999-3,3.59998-4.20001c0,0,0.40002,3.70001-1,5.60004c-1.5,2.70001-0.39996,6.89996,0.20001,8.29999
		c0.06323,0.16864,0.24829,0.60742,0.46436,1.23895c0.96179,1.34436,1.93567,3.09155,1.93567,4.66107
		c0,3.09998,1.19995-1.79999,3.5-4.10004c2.29999-2.29999,4.59998-6.69995,4.09998-10.19995
		c-0.06262-0.36542-0.02771-0.77155,0.05676-1.19543C174.3172,80.06744,173,81.09998,173,81.09998
		c-2.59998,2.70001-5.29999,4.5-5.29999,4.5s4-6.09998,1.20001-14.89996c-2.80005-8.79999-10.30005-9.5-10.30005-9.5
		c-3,5.59998,3.40002,12.09998,3.40002,12.09998C149.20001,68.5,148.5,55.09998,148.5,55.09998
		c-3.90002,7.60004-2.40002,15.70001-2.40002,15.70001c-5.29999-9.20001-3.89996-20.70001-3.89996-20.70001
		c-1.08691,9.36432-7.06903,7.12659-15.31268,7.95258c-1.85217,0.72601-3.12366,1.11469-3.28735,1.14746H123.5
		c-1.07635,0.24835-22.36377,4.74402-32.21448,6.28442C94.40735,66.48529,96.5,67.5,96.5,67.5
		c-41.90002-6.29999-38.40002,29.40002-38.40002,29.40002c-1.09271-2.80768-1.74219-5.31671-2.04248-7.5802
		c-0.22272,1.01843-0.43915,2.04608-0.65747,3.0802c-0.40002,2-0.80005,4.10004-1.30005,6.20001
		c-2.59998,11.20001-7.39996,17.29999-10,19.90002c-0.19995,0.29999-0.5,0.5-0.79999,0.79999
		c-1.79999,1.59998-3.20001,2.90002-2,6.59998c1.60004,4.79999,1.5,7,1.5,9.10004c0,0.29999,0,0.59998,0,0.89996
		c0,1.5-0.79999,3.5-1.59998,5H52.5c0.09998-0.10004,0.29999-0.20001,0.40002-0.30005
		C53,140.5,53.10004,140.29999,53.20001,140.20001c0.09998-0.20001,0.20001-0.29999,0.29999-0.5s0.09998-0.40002,0.20001-0.60004
		c0-0.19995,0.09998-0.39996,0.09998-0.59998c0-0.40002,0-0.79999,0-1.10004c-0.29999-0.89996-0.5-1.29999-0.5-1.29999
		s0.29999,0.30005,0.70001,1c0.20001,0.30005,0.40002,0.70001,0.5,1.20001c0.09998,0.20001,0.09998,0.5,0.20001,0.70001
		c0,0.29999,0.09998,0.5,0.09998,0.79999s0,0.5-0.09998,0.79999c0,0.11255-0.02405,0.20514-0.04688,0.30005h3.8468L58.5,140.89996
		c0.09998-0.09998,0.20001-0.19995,0.29999-0.29999C58.90002,140.5,59,140.39996,59,140.20001
		c0.09998-0.10004,0.09998-0.30005,0.20001-0.40002c0.09998-0.29999,0.20001-0.59998,0.20001-0.89996c0-0.30005,0-0.60004,0-0.90002
		C59.09998,137.29999,59,137,59,137s0.20001,0.29999,0.5,0.79999c0.09998,0.29999,0.29999,0.60004,0.29999,0.90002
		C59.90002,139.09998,60,139.39996,60,139.89996c0,0.20001,0,0.40002,0,0.60004c0,0.13336-0.03705,0.26666-0.06665,0.40002h4.46661
		c0-3.09998-0.69995-6.70001-2.19995-7.09998c-0.80005-0.20001-1-0.10004-1-0.10004C60.89996,134.40002,60.29999,135,59.5,135.10004
		c-0.79999,0.09998-1.5-0.10004-2-0.70001c-0.20001-0.29999-0.40002-0.40002-0.5-0.5
		c-0.10004,0.09998-0.40002,0.39996-0.70001,1.20001L55.5,136.90002l-1.5-1.29999c-0.10004-0.10004-4.20001-3.5-2.29999-9.90002
		c1.11804-3.88037,2.75134-6.06641,3.82654-7.17029c-1.16412,0.6311-3.38733,2.03107-6.02655,4.67029
		c0,0-2.90002,2.69995-2.59998,0.59998c0.29999-2.09998,2.39996-4.20001,4.79999-5.70001
		c2.29999-1.5,3.39996-1.89996,9.39996-3.09998c0.729-0.14178,1.3927-0.3324,2.02423-0.5437
		c2.02631-1.01294,4.29926-2.18921,6.44604-3.38794c2.42535-1.99011,6.73438-9.33698,9.72974-13.26837
		C82.40002,93.59998,87,92.09998,89.40002,88.09998c2.29999-3.89996,1.29999-5.59998,2-7.5
		c0.69995-1.89996,2.29999-5,5.09998-5.69995c0,0-3.5,2.79999-3,5.89996c0,0,6.70001-4.5,15-2.79999
		c0,0-9.90002-0.40002-14.70001,4.90002c0,0-1.5,2.19995-2.70001,6.59998c-0.3147,1.15399-0.68036,2.17871-1.0896,3.11395
		c1.41083-0.98926,2.56116-1.64545,3.48962-2.31396c2.5-1.79999,6.20001-3.70001,8.10004-4.70001
		c1.89996-1,1.29999-0.59998-0.70001-0.89996c-2-0.30005-4.79999,1.59998-4.79999,1.59998l2.20001-1.90002
		c-0.70001-0.69995-4.30005-0.5-4.30005-0.5c11.10004-4.09998,15.60004,1.20001,15.60004,1.20001
		C104.60004,84.5,99.5,88.39996,99.5,88.39996c5.60004-1.79999,10.40002-0.29999,11.5,0.20001
		c1.10004,0.5,3.10004-0.90002,1.5-0.90002c-1.59998,0-2.5-0.89996-2.5-0.89996s1.5-0.10004,2-0.60004s0.5-1.29999,0.20001-2.39996
		c-0.29999-1.10004-2.90002-1.20001-1.5-1.20001c1.5,0,1.70001-0.29999,1.70001-0.29999c-1.10004-1.10004-4-1.29999-4-1.29999
		c2-1,4.20001-0.40002,4.20001-0.40002c-0.80005-6.20001-4.40002-7.70001-5.90002-7.70001S104.5,72.19995,104.5,72.19995
		s2.40002-3.09998,6.40002,1.80005c4,4.89996,4.20001,9.09998,7.39996,12.29999C121.5,89.5,126.20001,90.5,129.40002,89.59998
		c3.20001-0.89996,4.09998-2,5.79999-3.70001c1.70001-1.79999,2-4,2-4C134.5,85,129,85.79999,125,85.20001
		c-3.17688-0.47656-3.57672-2.27368-3.60742-2.99481c-0.01062-0.06427-0.00854-0.13049-0.00128-0.19757
		c0.00323-0.06744,0.00873-0.10767,0.00873-0.10767c-0.00922,0.0368-0.00488,0.07159-0.00873,0.10767
		c-0.00244,0.05005-0.00208,0.11804,0.00128,0.19757c0.41742,2.5285,14.29401,2.84277,16.50745-3.60522
		c2.29999-6.70001,5.39996-7.09998,5.39996-7.09998c-2.59998,1.29999-3.59998,4.20001-4.09998,5.89996
		c-0.5,1.70001,0.90002,2.60004-2.20001,7.5c-3.09998,4.90002-0.59998,7.30005-0.59998,7.30005c2-0.20001,6-3.10004,6-3.10004
		C141.60004,91.09998,139.5,93,139.5,93l1.20001,1.59998c0.59998-1.89996,2.59998-2.39996,2.59998-2.39996
		C142.5,93.09998,142.10004,96,143.29999,96c1.20001,0,1.5-0.90002,1.5-0.90002C145.29999,96.5,143.70001,100,143.70001,100
		l-0.0304,0.047l-0.56964,2.75299c0,0-0.70001,3.60004,1.5,6.60004c0.79999,1.09998,1.09998,2.39996,0.90002,3.69995
		c-0.29999,1.60004-0.29999,4.10004,1.09998,6.70001c0.60004,1.20001,0.70001,2.40002,0.29999,3.59998L145.70001,127
		c0.09998,0.5,0.39996,2,1.5,3.89996c1.29999,2.30005,0,4.10004-1,5.60004c-0.60004,0.90002-1.20001,1.79999-1.5,2.79999
		l10.89905,0.10095c0.06702-0.06702,0.13397-0.13397,0.20093-0.20099c0.10004-0.09998,0.20001-0.19995,0.30005-0.29999
		c0.09998-0.09998,0.19995-0.29999,0.29999-0.39996l0.09998-0.20001l0.10004-0.20001c0.09998-0.20001,0.09998-0.29999,0.09998-0.5
		c0-0.29999,0-0.70001-0.09998-1c0-0.70001-0.20001-1.09998-0.20001-1.09998s0.29999,0.29999,0.69995,0.79999
		c0.20001,0.29999,0.30005,0.60004,0.5,1c0.10004,0.20001,0.10004,0.40002,0.10004,0.70001v0.39996c0,0.10004,0,0.20001,0,0.40002
		c0,0.26135-0.06757,0.44385-0.08716,0.61957l3.94745,0.03656c0.07434-0.05133,0.13971-0.07806,0.13971-0.15613
		c0.09998-0.10004,0.20001-0.20001,0.20001-0.29999c0.09998-0.10004,0.09998-0.20001,0.19995-0.40002
		c0.20001-0.5,0.20001-1.09998,0.20001-1.59998c-0.09998-0.40002-0.19995-0.70001-0.19995-0.70001s0.19995,0.20001,0.5,0.70001
		c0.09998,0.20001,0.19995,0.5,0.29999,0.79999c0.09998,0.29999,0.20001,0.70001,0.09998,1c0,0.20001,0,0.40002-0.09998,0.60004
		c0,0.0238-0.0094,0.04474-0.0119,0.06836l3.41187,0.03162C165.79999,136.40002,164.79999,133.79999,164,133.79999z
		 M89.70001,76.70001h-0.79999c0,0-0.10004,0-1.90002-2.60004c-1.79999-2.59998,1.09998-5.19995,1.09998-5.19995
		C86.70001,72.20001,89.5,72.29999,89.5,72.29999c3.5-3.5,5.60004-2.5,5.60004-2.5
		C90.90002,71.39996,89.70001,76.70001,89.70001,76.70001z M133.79999,85.5c-1.69995,1.70001-4.39996,3.70001-8.79999,3.20001
		c-4.39996-0.5-5.79999-4.70001-5.79999-4.70001C124.60004,89.40002,133.79999,85.5,133.79999,85.5z M143.20001,85.40002
		C143.79999,82,147,73.90002,147,73.90002c0.09998,1.09998,0.90002,3.89996,0.90002,3.89996
		C146.10004,79.09998,143.20001,85.40002,143.20001,85.40002z M145.20001,87.5c0,0,0.29999-5.20001,2.79999-8.29999l0.60004,3.20001
		C148.60004,82.40002,146.29999,83.40002,145.20001,87.5z M146.5,89c0,0,0.29999-3.40002,2.20001-5.70001l0.40002,2.10004
		C149.10004,85.40002,147.10004,86.79999,146.5,89z M151.40002,113.29999c0.59998,4.79999-0.70001,9.5-0.70001,9.5
		s1.59998-2.09998,1.5-8c-0.10004-6,1.20001-9.29999,1.20001-9.29999C153,107.09998,153,111.09998,153.20001,114.09998
		s-0.90002,8.5-0.90002,8.5l0.60004-0.09998c0,0,0.20001-1.60004,1-5c0.29999-1.40002,0.40002-6.60004,0.59998-11.70001
		c0.20001-5.09998,2.5-10.09998,2.5-10.09998c-0.19995,1.79999-0.5,2.59998-1,4.5c-0.5,1.89996-1.29999,7.79999-1,12.39996
		c0.29999,4.70001-1.09998,10.10004-1.09998,10.10004H154.5c-0.09998-0.60004,0.30005-1.80005,0.30005-1.80005
		c0.69995-2,1.09998-9,0.89996-11s0.09998-6.19995,1.40002-10.59998c1.29999-4.40002,1.09998-9.79999,1.09998-9.79999
		c1.10004,6-0.59998,11.39996-0.89996,14.79999c-0.30005,3.40002,0.19995,7.79999-0.10004,10.5
		C157,117.5,156,122.70001,157.10004,123.70001c1.19995,1,0.19995,2.19995,0.19995,2.19995
		c-2.29999-3.69995-8.69995-0.69995-8.69995-0.69995C150.60004,122,151.29999,113.79999,151.40002,113.29999z"/>
	<path class="st2" d="M42.24847,38.56158c-0.63959-0.99994-1.54706-1.81342-2.79187-2.34619
		C40.52698,36.82642,41.46631,37.6167,42.24847,38.56158z"/>
	<path class="st3" d="M191.60004,42.29999C191.70001,42.09998,191.79999,42,191.79999,42"/>
	<path d="M166.40002,50.09998c-0.20001-0.19995-0.30005-0.29999-0.30005-0.29999
		C166.10004,49.90002,166.20001,50,166.40002,50.09998z"/>
	<path class="st4" d="M191.40002,27c-0.5-0.5-1.10004-0.79999-1.80005-0.70001l-1.5,0.20001l-4.79999-0.40002l3,1L186.5,27.5
		c0.20001,0.5,0.70001,1,1.20001,1.20001C188.09998,28.90002,188.5,29,189,29h2.20001c0.5,0,1,0.09998,1.39996,0.20001l6.10004,1.5
		l-6.20001-2.5L191.40002,27z"/>
	<path class="st4" d="M208.40002,28.09998c-1-0.5-2.5-0.29999-3.20001-1c-0.70001-0.69995-3.5-1.69995-3.5-1.69995
		c0-0.90002-0.5-1.40002-1.29999-2.10004C199.79999,22.70001,197.09998,21,196.29999,20.5c0.29999-1.5,0.40002-4-1.5-4.29999
		c0,0,2.10004-6.40002-4.20001-6.40002c0,0,0.70001-4-3.39996-4.29999c-4.10004-0.40002-4.10004,1.5-4.10004,1.5l-1.89996-3
		c0,0-0.5-0.40002-0.90002-0.5C172.40002,1.40002,165.20001,1.90002,160.5,3.59998c0,0-8.5,3.20001-10.39996,9.30005
		c0-0.10004,3.09998-4.5,9.79999-5.30005c-6.10004,2.60004-6.30005,2.40002-13,10.90002
		c-6.70001,8.40002-6.20001,18.79999-6,20.79999c0.14801,1.48041,0.07214,4.76917-1.71875,8.0813l-0.0813-0.0813
		c-5.5,5.5-15.39996,8.79999-16.29999,9C113.89996,58.20001,90.29999,63,86.89996,63c-1,0-1.89996,0-2.79999,0
		c-5.39996-0.09998-10.89996-0.29999-18.70001,4.40002c-2.49872,1.49921-4.44312,3.33856-6.00818,5.40222
		c-4.35809,2.36859-11.22552,5.4577-16.29181,4.69775C35.09998,76.29999,36.5,64.29999,42,55.29999
		c4.00647-6.55603,3.43622-12.88745,0.24847-16.7384c-0.78217-0.94489-1.7215-1.73517-2.79187-2.34619
		c-0.55585-0.31732-1.13477-0.60187-1.75659-0.81537C31,33.09998,22.20001,42,22.20001,42s-0.00262,0.00623-0.00293,0.0069
		c-0.63202-0.28198-1.29663-0.50073-1.99707-0.60687c-3.60004-0.40002-7,1.5-8.40002,4.79999
		C11.59998,46.79999,9.5,51.79999,5.20001,53.5c0,0-1.5,0.5-2.5,0.40002c0,0,0.79999,0.5,2.59998,0.5c0,0,1.10004,0,2,0
		c0.79999-0.10004,2.5-0.30005,3.5-0.60004c-2.20001,2-6,3-6.09998,3c0,0-1.5,0.40002-2.79999,0.5
		c0,0,0.59998,0.29999,2.89996,0.20001c3.40002-0.20001,5.79999-0.79999,7.40002-1.29999
		c-2.79999,1.79999-6.10004,3.20001-7.5,3.59998C4.5,59.79999,4,60,3.79999,60c-0.5,0.09998-1.29999,0.29999-2.39996,0.40002
		c0,0,1.09998,0.09998,2.89996-0.10004c1.60004-0.20001,14.20001-2.70001,16.5-3.39996c0.5-0.10004,1-0.30005,1.40002-0.5
		c3.29999-1.5,5.20001-5,4.59998-8.60004c-0.22192-1.2207-0.73419-2.34351-1.4549-3.30176
		c2.0672-4.11188,7.03375-6.72052,11.4549-4.79828c4.60004,2,4.40002,6.90002,2.29999,12.10004C37,57,34.09998,61.20001,32.70001,69
		C31.29999,76.79999,35.5,82.79999,41.40002,84.29999c5.89996,1.5,8.19995-0.09998,11.29999-0.09998
		c0.61786,0,1.09192,0.159,1.46259,0.4071c-0.61243,2.39813-1.09576,4.85486-1.56262,7.29291
		C52.19995,93.90002,51.79999,96,51.29999,98c-2.40002,10.5-6.79999,16.09998-9.20001,18.5
		c-0.20001,0.20001-0.5,0.5-0.79999,0.70001c-1.90002,1.79999-4.5,4.19995-2.79999,9.69995
		c1.39996,4.40002,1.39996,6.20001,1.29999,8.20001c0,0.29999,0,0.60004,0,0.90002c0,1.39996-1.5,4.19995-2.5,5.59998
		l-1.59998,2.29999h31.59998L67.39996,142.5c0-0.10004,0.10004-2.40002-0.29999-4.90002C66.5,133.90002,65.19995,131.59998,63,131
		c-2.20001-0.70001-3.40002,0-4,0.70001c-1-0.80005-1.90002-0.90002-2.5-0.80005c-0.70001,0.10004-1.30005,0.5-1.70001,0.90002
		c-0.60004-1.10004-1-2.90002-0.29999-5.40002C55.79999,122,57.79999,120.29999,58.09998,120
		c1.40002-0.60004,12.09998-5.60004,18-9.70001c0,1.5,0.20001,3.20001,1,4.59998c0.29999,0.5,0.29999,1.10004,0.20001,1.60004
		c-0.40002,1.59998-0.79999,2.89996-1.20001,3.59998C75.59998,121,75.59998,122,75.89996,123
		c0.5,1.59998,1.90002,4.89996,5.10004,8.89996c3.59998,4.5,0,8.79999-0.20001,9l-2.20001,2.5L108.70001,143L108.5,141.39996
		c-0.10004-1.20001-0.79999-7.5-3-9.70001c-1.40002-1.39996-3.70001-1.59998-5.70001-1.69995c-1-0.10004-2.70001-0.20001-3-0.5
		c-0.79999-0.80005-1.5-2.90002-1.79999-4.30005c0.79999-1.79999,3.29999-8,2.5-11.39996
		c-0.90002-3.60004-1.60004-7.20001,1.20001-9.90002c3-3,9.69995-2.70001,12.19995-1
		c3.30005,2.40002,19.30005,4.90002,29.10004,1.79999c0.09998,1.80005,0.5,4.20001,2.20001,6.5
		c0.29999,0.40002,0.39996,1,0.29999,1.5c-0.29999,2-0.29999,5.20001,1.39996,8.5c0.20001,0.40002,0.30005,0.90002,0.10004,1.30005
		l-1.40002,4.19995V127c0,0.19995,0.20001,2.39996,1.90002,5.5c0.29999,0.59998,0.20001,0.89996-0.90002,2.5
		c-0.69995,1.20001-1.99994,3.09998-1.99994,5.79999v1.5l28,0.29999l-0.00525-0.08435L182.5,142.70001l0.09998-1.60004
		c0.20001-0.89996,1.10004-5.79999-0.70001-8c-0.69995-0.79999-1.5-1.19995-2.5-1.19995c-2.19995,0-3.19995,0.5-3.79999,1.19995
		c-1.29999,0-2.79999-0.19995-3.70001-1.29999c0.60004-1.40002,1.70001-4.39996,0.5-6.79999
		c-1.09998-2.29999-2.70001-10.09998-0.09998-18.29999c2.70001-8.40002,6.79999-14.79999,6.79999-14.90002
		c0.20697-0.276,2.88922-4.55151,5.18964-9.27802c0.4519,4.67346,1.4104,8.578,1.4104,8.578c0.39996-1,0.39996-8.19995,0.89996-10
		C187.20001,78.5,186.5,79.29999,188,74.90002c0.70001-1.90002,1.70001-3.5,3.59998-5.40002c2-2,4.70001-6.5,5.30005-10.5
		c0.69995-4.5-2-7.90002-2-7.90002s-0.5-1.29999-0.20001-2.89996c0.59998-0.29999,1.39996-0.40002,2.09998-0.20001
		C197,48,197.20001,48.20001,197.5,48.5c0.60004,0.59998,1,1.40002,1.20001,2.20001c0.89996,3.79999,3.59998,5,3.59998,5
		c-0.5-3.79999,0.30005-5.40002,0.30005-5.40002c0,1.60004,1.79999,3.29999,1.79999,3.29999
		c-0.40002-2.89996,0.20001-5.5,0.20001-5.5C205.5,45.40002,206.10004,45,207.5,42.40002
		c0.79999-1.5,0.90002-2.90002,0.90002-3.80005c0-0.09998,0-0.09998,0-0.19995c0-1.70001,1.89996-3.90002,1.89996-3.90002
		C211.59998,31.40002,209.40002,28.59998,208.40002,28.09998z M207.10004,40.09998c-0.10004,0.40002-0.30005,0.80005-0.5,1.10004
		C206.5,41,205.70001,39.09998,206.29999,38c0.30005-0.5,0.60004-0.70001,0.90002-0.90002
		C206.90002,37.90002,207.20001,39.29999,207.10004,40.09998z M206,31.20001c0,0-0.40002-0.5-1.5-0.5
		c-1.10004,0-2.30005,1.20001-2.30005,1.20001c-1.19995-0.5-1.79999,0.39996-1.79999,0.39996c-1,1.20001,1,0.29999,1,0.29999
		c2.79999-0.5,3.29999,1.90002,4.10004,2.70001c0.79999,0.79999,0.09998,2.79999,0.09998,2.79999
		c-0.09998,0.5-0.59998,1.10004-1.09998,2c-0.5,0.70001-1.20001,1.20001-1.5,1.60004
		c-0.30005,0.39996-1.10004,0.09998-1.70001,0.70001c-0.60004,0.59998-2.90002,1.89996-3.70001,1.5
		c-0.09998-0.20001-0.89996-0.40002-1.89996,0L194.5,44.29999c0,0-1.29999,0.29999-1.79999,0.70001
		c0-0.70001,0.70001-1.79999,0.70001-1.79999C192.29999,44.29999,191,44.29999,191,44.29999
		c-0.20001-0.89996,0.29999-1.70001,0.60004-2.09998c-0.30005,0.20001-0.80005,0.5-1.90002,0.70001
		c-1.79999,0.19995-1.20001-0.60004-1.20001-0.60004s2.40002,0.5,2.40002-1.5s1.29999-2.70001,1.29999-2.70001
		c-1.5,0-5-0.29999-6-1.79999S183.60004,35.5,183.60004,35.5s-0.30005,1.20001,0.5,2.79999c0.79999,1.60004,0.09998,3.5,0.09998,3.5
		s-0.29999-0.59998-2.29999-1.70001c-2-1.09998-2.70001-3.79999-2.70001-3.79999s-0.11035,0.5379-0.14636,1.34241
		c-0.07721,1.72638,0.1908,4.68872,2.64636,6.25763c3.60004,2.29999,4.5,7.09998,4.5,7.09998c-1-1.59998-5.20001-3.5-8-6.90002
		C175.5,40.59998,178,31.5,178,31.5s-2.09998,4.5-2.59998,7.20001s-1,5.59998,2.79999,9.39996
		c3.79999,3.80005,11,3.40002,11,9.90002c0,6.20001-4.70001,9-7.09998,10.59998c1.09998-2.19995,3-7.29999,0.89996-12
		c-2.70001-6.09998-7.09998-8-7.09998-8S170,44.70001,171.59998,38.90002c0,0-2.19995,1.69995-2.19995,3.19995c0,0-3.5-5.5,0-10
		c0,0-2.70001-0.29999-4.30005,1.90002c0,0-0.79999-6.90002,7.5-7.59998c0,0-8.09998-1.80005-7.19995-5.5
		c0.79999-3.5,7.5-5.70001,8.19995-5.90002c0.5,0,1,0.09998,1.5,0.20001c2.30005,0.59998,5.30005,2.20001,5.30005,3.20001
		S179,20.09998,177.70001,19.29999c-1.29999-0.70001-2.5-1.70001-4.60004-1.20001c-2.09998,0.5-4.5,2.70001-3.69995,3
		c0.89996,0.40002,3,1,3.89996,1.90002c0.90002,0.90002,2.10004,2.40002,1.70001,3.40002s-2.79999,4.79999-1.90002,10.09998
		c0,0,5.40002-6.59998,3.70001-12.59998l0,0c0.00006-0.00006,0.30121-0.29724,0.71722-0.34625
		c0.26361-0.03107,0.57251,0.03595,0.88281,0.34625c0.79999,0.79999,2.59998,0.5,2.59998,0.5l-1.09998-1.80005L181,22.29999
		c0,0,1.5-1.39996,2.20001-2.09998c0,0,1.79999-0.5,3.20001,0c1.39996,0.5,4.09998,1.20001,5.39996,2.89996
		c0,0,0.40002-1.19995-3.29999-3.09998c0,0-0.29999-0.70001,0-1s2-1.40002,3.39996-1.40002
		c1.40002,0,2.40002,0.10004,2.60004,0.40002c0.20001,0.20001-0.29999,1.79999-0.5,2.59998l-0.40002,1.30005
		c2.10004,0.29999,4.30005,1.19995,5.40002,1.69995s1.5,2.30005,1.5,2.30005c-0.70001,0-1.40002-1.20001-2-1.80005
		c-0.60004-0.59998-1.29999-0.79999-2.40002-0.79999c-1.19995,0-1.5,0.40002-0.59998,0.40002c0.89996,0,1.5,0.39996,2.09998,0.79999
		c0.60004,0.40002,0.40002,0.79999,1.20001,1.29999s1.29999,0.60004,0.60004,0.79999c-0.70001,0.30005-0.5,1-0.10004,0.70001
		c0.40002-0.39996,1.29999-0.39996,2-0.09998C202,27.40002,201.59998,27.79999,200.70001,28
		c-0.90002,0.20001-1.60004,0.29999-1.60004,0.70001c0,0.39996,1.29999,0.20001,2.20001-0.10004
		c0.89996-0.29999,3.29999-1,3,0.10004C204.09998,29.40002,203,29.59998,202.5,29.59998c1,0.10004,2,0.90002,2.79999,0.60004
		C206.09998,29.79999,207.09998,30,207.5,30.5c0.09998,0.09998,0.09998,0.20001,0.19995,0.29999
		C206.89996,30.79999,206,31.20001,206,31.20001z M200.20001,46.09998c0.29999,0,1.70001-0.09998,3-0.29999
		c0.29999,0.5,0.10004,1.40002,0,1.70001c-0.09998,0.40002-0.5,0.90002-1.09998,1.09998c-0.20001,0-1,0.60004-2.70001-0.5
		C199,47.90002,198.29999,47.5,197,47c-0.59998-0.20001-1.29999-0.09998-1.79999,0c0.20001-0.29999,0.39996-0.70001,0.59998-1
		c2.30005-0.29999,4.40002-1.90002,5.30005-2.29999c1.19995-0.60004,3.09998-1.20001,3.29999-0.5s-1.79999,1-3.90002,1.70001
		C198.40002,45.59998,199.70001,46.09998,200.20001,46.09998z M162.88812,139.46838c0.0025-0.02362,0.0119-0.04456,0.0119-0.06836
		C163,139.20001,163,139,163,138.79999c0.10004-0.29999,0-0.70001-0.09998-1c-0.10004-0.29999-0.20001-0.59998-0.29999-0.79999
		c-0.30005-0.5-0.5-0.70001-0.5-0.70001s0.09998,0.29999,0.19995,0.70001c0,0.5,0,1.09998-0.20001,1.59998
		C162,138.79999,162,138.89996,161.90002,139c0,0.09998-0.10004,0.19995-0.20001,0.29999c0,0.07806-0.06537,0.1048-0.13971,0.15613
		l-3.94745-0.03656c0.01959-0.17572,0.08716-0.35822,0.08716-0.61957c0-0.20001,0-0.29999,0-0.40002V138
		c0-0.29999,0-0.5-0.10004-0.70001c-0.19995-0.39996-0.29999-0.70001-0.5-1c-0.39996-0.5-0.69995-0.79999-0.69995-0.79999
		s0.20001,0.39996,0.20001,1.09998c0.09998,0.29999,0.09998,0.70001,0.09998,1c0,0.20001,0,0.29999-0.09998,0.5L156.5,138.29999
		L156.40002,138.5c-0.10004,0.09998-0.20001,0.29999-0.29999,0.39996C156,139,155.90002,139.09998,155.79999,139.19995
		c-0.06696,0.06702-0.13391,0.13397-0.20093,0.20099l-10.89905-0.10095c0.29999-1,0.89996-1.89996,1.5-2.79999
		c1-1.5,2.29999-3.29999,1-5.60004C146.09998,129,145.79999,127.5,145.70001,127l1.19995-3.60004
		c0.40002-1.19995,0.30005-2.39996-0.29999-3.59998c-1.39996-2.59998-1.39996-5.09998-1.09998-6.70001
		c0.19995-1.29999-0.10004-2.59998-0.90002-3.69995c-2.20001-3-1.5-6.60004-1.5-6.60004l0.56964-2.75299l0.0304-0.047
		c0,0,1.59998-3.5,1.09998-4.90002c0,0-0.29999,0.90002-1.5,0.90002c-1.19995,0-0.79999-2.90002,0-3.79999
		c0,0-2,0.5-2.59998,2.39996L139.5,93c0,0,2.10004-1.90002,2.90002-3.90002c0,0-4,2.90002-6,3.10004
		c0,0-2.5-2.40002,0.59998-7.30005c3.10004-4.89996,1.70001-5.79999,2.20001-7.5c0.5-1.69995,1.5-4.59998,4.09998-5.89996
		c0,0-3.09998,0.39996-5.39996,7.09998c-2.21344,6.448-16.09003,6.13373-16.50745,3.60522
		c0.0307,0.72113,0.43054,2.51825,3.60742,2.99481c4,0.59998,9.5-0.20001,12.20001-3.30005c0,0-0.29999,2.20001-2,4
		c-1.70001,1.70001-2.59998,2.80005-5.79999,3.70001C126.20001,90.5,121.5,89.5,118.29999,86.29999
		c-3.19995-3.20001-3.39996-7.40002-7.39996-12.29999c-4-4.90002-6.40002-1.80005-6.40002-1.80005s0.70001,0.70001,2.20001,0.70001
		s5.09998,1.5,5.90002,7.70001c0,0-2.20001-0.59998-4.20001,0.40002c0,0,2.89996,0.19995,4,1.29999
		c0,0-0.20001,0.29999-1.70001,0.29999c-1.40002,0,1.20001,0.09998,1.5,1.20001C112.5,84.89996,112.5,85.69995,112,86.19995
		s-2,0.60004-2,0.60004s0.90002,0.89996,2.5,0.89996c1.60004,0-0.39996,1.40002-1.5,0.90002c-1.09998-0.5-5.89996-2-11.5-0.20001
		c0,0,5.10004-3.89996,10.10004-3.29999c0,0-4.5-5.29999-15.60004-1.20001c0,0,3.60004-0.19995,4.30005,0.5l-2.20001,1.90002
		c0,0,2.79999-1.90002,4.79999-1.59998c2,0.29999,2.59998-0.10004,0.70001,0.89996C99.70001,86.59998,96,88.5,93.5,90.29999
		c-0.92847,0.66852-2.0788,1.32471-3.48962,2.31396c0.40924-0.93524,0.7749-1.95996,1.0896-3.11395
		c1.20001-4.40002,2.70001-6.59998,2.70001-6.59998C98.59998,77.59998,108.5,78,108.5,78c-8.29999-1.70001-15,2.79999-15,2.79999
		c-0.5-3.09998,3-5.89996,3-5.89996c-2.79999,0.69995-4.40002,3.79999-5.09998,5.69995c-0.70001,1.90002,0.29999,3.60004-2,7.5
		c-2.40002,4-7,5.5-10.10004,9.70001c-2.99536,3.9314-7.30438,11.27826-9.72974,13.26837
		c-2.14679,1.19873-4.41974,2.375-6.44604,3.38794c-0.63153,0.2113-1.29523,0.40192-2.02423,0.5437
		c-6,1.20001-7.09998,1.59998-9.39996,3.09998c-2.40002,1.5-4.5,3.60004-4.79999,5.70001
		c-0.30005,2.09998,2.59998-0.59998,2.59998-0.59998c2.63922-2.63922,4.86243-4.03918,6.02655-4.67029
		c-1.0752,1.10388-2.7085,3.28992-3.82654,7.17029C49.79999,132.10004,53.89996,135.5,54,135.60004l1.5,1.29999l0.79999-1.79999
		C56.59998,134.29999,56.89996,134,57,133.90002c0.09998,0.09998,0.29999,0.20001,0.5,0.5c0.5,0.59998,1.20001,0.79999,2,0.70001
		c0.79999-0.10004,1.39996-0.70001,1.70001-1.40002c0,0,0.19995-0.09998,1,0.10004c1.5,0.39996,2.19995,4,2.19995,7.09998h-4.46661
		C59.96295,140.76666,60,140.63336,60,140.5c0-0.20001,0-0.40002,0-0.60004c0-0.5-0.09998-0.79999-0.20001-1.19995
		c0-0.29999-0.20001-0.60004-0.29999-0.90002C59.20001,137.29999,59,137,59,137s0.09998,0.29999,0.40002,1
		c0,0.29999,0,0.59998,0,0.90002c0,0.29999-0.10004,0.59998-0.20001,0.89996c-0.10004,0.09998-0.10004,0.29999-0.20001,0.40002
		c0,0.19995-0.09998,0.29999-0.20001,0.39996c-0.09998,0.10004-0.20001,0.20001-0.29999,0.29999l-0.00006,0.00006h-3.8468
		c0.02283-0.09491,0.04688-0.1875,0.04688-0.30005c0.09998-0.29999,0.09998-0.5,0.09998-0.79999s-0.09998-0.5-0.09998-0.79999
		c-0.10004-0.20001-0.10004-0.5-0.20001-0.70001c-0.09998-0.5-0.29999-0.89996-0.5-1.20001c-0.40002-0.69995-0.70001-1-0.70001-1
		s0.20001,0.40002,0.5,1.29999c0,0.30005,0,0.70001,0,1.10004c0,0.20001-0.09998,0.40002-0.09998,0.59998
		c-0.10004,0.20001-0.10004,0.40002-0.20001,0.60004s-0.20001,0.29999-0.29999,0.5C53.10004,140.29999,53,140.5,52.90002,140.59998
		c-0.10004,0.10004-0.30005,0.20001-0.40002,0.30005H41.20001c0.79999-1.5,1.59998-3.5,1.59998-5c0-0.29999,0-0.59998,0-0.89996
		c0-2.10004,0.10004-4.30005-1.5-9.10004c-1.20001-3.69995,0.20001-5,2-6.59998c0.29999-0.29999,0.60004-0.5,0.79999-0.79999
		c2.60004-2.60004,7.40002-8.70001,10-19.90002c0.5-2.09998,0.90002-4.20001,1.30005-6.20001
		c0.21832-1.03412,0.43475-2.06177,0.65747-3.0802c0.30029,2.26349,0.94977,4.77252,2.04248,7.5802
		c0,0-3.5-35.70001,38.40002-29.40002c0,0-2.09265-1.01471-5.21448-2.01556c9.85071-1.54041,31.13812-6.03607,32.21448-6.28442
		h0.09998c0.1637-0.03278,1.43518-0.42145,3.28735-1.14746c8.24365-0.82599,14.22577,1.41174,15.31268-7.95258
		c0,0-1.40002,11.5,3.89996,20.70001c0,0-1.5-8.09998,2.40002-15.70001c0,0,0.70001,13.40002,13.5,18.20001
		c0,0-6.40002-6.5-3.40002-12.09998c0,0,7.5,0.70001,10.30005,9.5c2.79999,8.79999-1.20001,14.89996-1.20001,14.89996
		s2.70001-1.79999,5.29999-4.5c0,0,1.3172-1.03253,3.25677-3.39539c-0.08447,0.42389-0.11938,0.83002-0.05676,1.19543
		c0.5,3.5-1.79999,7.89996-4.09998,10.19995c-2.30005,2.30005-3.5,7.20001-3.5,4.10004c0-1.56952-0.97388-3.31671-1.93567-4.66107
		c-0.21606-0.63153-0.40112-1.07031-0.46436-1.23895C165.60004,85.89996,164.5,81.70001,166,79c1.40002-1.90002,1-5.60004,1-5.60004
		c-1.79999,1.20001-3.19995,3.5-3.59998,4.20001v0.10004c0,0.09998-0.10004,0.09998-0.10004,0.09998
		c-2.39996,4.5,0,10.5,0.10004,10.70001v0.09998c0,0.09998,2.79999,5.79999-0.20001,11.5
		c-3.30933,6.22943-1.97852,14.14728-1.35187,16.50238c-0.48108,0.87634-0.85144,1.71417-1.13049,2.51007
		c-0.33093,0.73267-0.66309,1.61847-0.91766,2.68756c-0.69995,2.90002,0,5.20001,0.5,6.29999
		c-0.36261,0.88074-0.58911,1.75635-0.7251,2.41461c-0.23907-0.17688-0.67206-0.41461-1.37488-0.41461
		c-1.09998,0-1.79999,1-1.79999,1c-0.59998-0.59998-1.70001-0.70001-2.29999-0.70001c-0.60004,0-1.5,0.80005-1.79999,1.30005
		c-0.60004,1.09998-0.30005,1.59998,0.29999,1.09998c0.70001-0.5,1-1.09998,2.20001-1.09998
		c1.19995,0,1.89996,1.09998,1.89996,1.09998C157,132.09998,157.60004,132,157.60004,132c1-0.20001,1.69995,0.29999,1.69995,0.29999
		l0.5,0.5c0.20001,0.20001,0.40002,1.29999,0.40002,2.09998l2.89996,0.30005c0.10004-0.40002,0.40002-1.40002,0.90002-1.40002
		c0.79999,0,1.79999,2.60004,2.29999,5.70001L162.88812,139.46838z M165.70001,9.70001c5.40002-0.40002,8,2.79999,8,2.79999
		s-2.39996,0-4,0.29999C167,11.79999,163,11.40002,158.5,14.20001c0,0,7.30005-1.5,9.70001,1.89996c0,0,0.10004,1-2.79999,0.5
		s-8.5,0.40002-11,2.90002c0,0,5-2.09998,7.5-0.79999c0,0-8,1.5-12.70001,11.89996C144.5,41,146,41.5,144.5,43.70001
		c0,0-0.20001,0.29999-0.5,0.79999c0.40002-1.79999,0-3-0.20001-4.59998c-0.39996-2.5-0.59998-13.20001,6.10004-20.80005
		C156.60004,11.40002,160.29999,10.09998,165.70001,9.70001z M184.40002,15.79999V9c0,0-0.10004-2.5,2.5-2
		c2.70001,0.5,2.20001,2.59998,2,3.70001c-0.20001,1.20001-2.79999,7.39996-2.79999,7.39996h-2.5c0,0-3.30005-6-8.80005-8.89996
		C167.5,5.29999,160.40002,5.59998,160.40002,5.59998s9.70001-2.89996,18.20001,0.20001
		C178.60004,5.79999,181.79999,8.29999,184.40002,15.79999z M192.79999,12.40002c1.90002,1.09998,0.80005,3.09998,0,3.5
		c-0.79999,0.39996-3.09998,0.69995-3.59998,1.19995s-1.29999,0.70001-1.29999,0.70001s1.29999-4.29999,1.89996-5
		C190.5,12.20001,190.90002,11.29999,192.79999,12.40002z M177.5,68.20001c0-4.29999,0-7.10004-1.09998-8.70001
		c-1.40002-2.09998-4.60004-4.5-6.30005-6.20001c-1.5-1.5-2.89996-2.40002-3.79999-3.20001
		c1.5,1.40002,7.60004,7.60004,8.79999,15.40002c1.40002,8.89996-2,11.39996-2,11.39996s0.40002-8.59998-5.39996-15.09998
		c-5.79999-6.59998-6.10004-10.40002-6.10004-10.40002s0.30005,3.5-0.39996,4.20001c0,0-5.40002-3-6.90002-8.89996
		c-1.5-5.90002-0.59998-8.5-0.59998-8.5S150,40.70001,149,44.40002c0,0-3.29999-14.70001,11.20001-20.20001
		c0,0-5.40002,16.20001,2.70001,22.20001c0,0-5.10004-8.20001-1.20001-16.5c0,0,1.20001,10.69995,7.39996,14.89996
		c6.20001,4.20001,11.30005,9.90002,11.30005,13.40002C180.40002,61.29999,179.20001,65.5,177.5,68.20001z M187.09998,68
		c-0.23193,0.18872-0.44244,0.40509-0.64313,0.63361c0.02612-0.34277,0.04797-0.66089,0.06561-0.94806
		c0.84985-0.79333,1.63654-1.54456,2.27753-2.18555c3.40002-3.40002,4.90002-12.29999,4.90002-12.29999c1.20001,2.29999,0,6.5,0,6.5
		S192.79999,63.29999,187.09998,68z M42.40002,41.29999c2.5,6-1.10004,11.79999-1.10004,11.79999s-3.39996,6.80005-4.59998,11.10004
		s-0.79999,10.39996,1.89996,13.09998C41.29999,80,48,79.40002,50.90002,78.29999c1.80371-0.68414,4.45734-1.40668,6.20673-1.85541
		c-0.34528,0.67584-0.66003,1.36896-0.95459,2.0733C53.62628,80.13257,49.96643,81.59998,46.70001,82
		c-5,0.59998-9.40002-2-11.5-6.60004c-2.10004-4.59998-0.60004-10.69995,0.5-13.59998c1.09998-2.90002,5.79999-12.5,5.79999-12.5
		S43.90002,41.5,37.29999,38.20001C30.70001,34.90002,24,43.09998,24,43.09998s-0.00104,0.00806-0.00269,0.02148
		c-0.2052-0.16791-0.41266-0.33038-0.63373-0.47748c0.01331-0.01654,0.02295-0.02716,0.03644-0.04401
		c3.19995-4,8-5.69995,9.19995-6.19995C33.90002,35.90002,39.90002,35.29999,42.40002,41.29999z"/>
	<path d="M202.40002,29.5c-0.40002,0-0.20001,0.09998,0.09998,0H202.40002z"/>
	<path class="st4" d="M190.70001,25.90002c0,0,0.89996-0.60004,2.09998,0c1.20001,0.59998,1,1.19995,1.5,1.79999
		c0.5,0.59998,1.20001,0,1.20001,0S194.5,27.59998,194,26c-0.39996-1.40002-2-1.20001-2.5-1.09998
		C190.79999,25.09998,189.5,25.90002,190.70001,25.90002z"/>
	<path class="st4" d="M157.29999,125.89996c0,0,1-1.19995-0.19995-2.19995c-1.10004-1-0.10004-6.20001,0.09998-8.90002
		c0.29999-2.70001-0.20001-7.09998,0.10004-10.5c0.29999-3.40002,2-8.79999,0.89996-14.79999c0,0,0.20001,5.39996-1.09998,9.79999
		c-1.30005,4.40002-1.60004,8.59998-1.40002,10.59998s-0.20001,9-0.89996,11c0,0-0.40002,1.20001-0.30005,1.80005h-0.59998
		c0,0,1.39996-5.40002,1.09998-10.10004c-0.29999-4.59998,0.5-10.5,1-12.39996c0.5-1.90002,0.80005-2.70001,1-4.5
		c0,0-2.29999,5-2.5,10.09998c-0.19995,5.09998-0.29999,10.29999-0.59998,11.70001c-0.79999,3.39996-1,5-1,5l-0.60004,0.09998
		c0,0,1.10004-5.5,0.90002-8.5s-0.20001-7,0.20001-8.59998c0,0-1.30005,3.29999-1.20001,9.29999c0.09998,5.90002-1.5,8-1.5,8
		s1.29999-4.70001,0.70001-9.5c-0.10004,0.5-0.79999,8.70001-2.79999,11.90002
		C148.60004,125.20001,155,122.20001,157.29999,125.89996z"/>
	<path class="st4" d="M148.70001,83.29999C146.79999,85.59998,146.5,89,146.5,89c0.60004-2.20001,2.60004-3.59998,2.60004-3.59998
		L148.70001,83.29999z"/>
	<path class="st4" d="M148.60004,82.40002L148,79.20001c-2.5,3.09998-2.79999,8.29999-2.79999,8.29999
		C146.29999,83.40002,148.60004,82.40002,148.60004,82.40002z"/>
	<path class="st4" d="M147.90002,77.79999c0,0-0.80005-2.79999-0.90002-3.89996c0,0-3.20001,8.09998-3.79999,11.5
		C143.20001,85.40002,146.10004,79.09998,147.90002,77.79999z"/>
	<path class="st4" d="M121.3913,82.00763c-0.00726,0.06708-0.00934,0.1333,0.00128,0.19757
		C121.38922,82.12567,121.38885,82.05768,121.3913,82.00763z"/>
	<path class="st4" d="M121.3913,82.00763c0.00385-0.03607-0.00049-0.07086,0.00873-0.10767
		C121.40002,81.89996,121.39453,81.94019,121.3913,82.00763z"/>
	<path class="st4" d="M125,88.70001c4.40002,0.5,7.10004-1.5,8.79999-3.20001c0,0-9.19995,3.90002-14.59998-1.5
		C119.20001,84,120.60004,88.20001,125,88.70001z"/>
	<path class="st4" d="M89.5,72.29999c0,0-2.79999-0.09998-1.40002-3.39996c0,0-2.89996,2.59998-1.09998,5.19995
		c1.79999,2.60004,1.90002,2.60004,1.90002,2.60004h0.79999c0,0,1.20001-5.30005,5.40002-6.90002
		C95.10004,69.79999,93,68.79999,89.5,72.29999z"/>
</g>
<g>
	<g>
		<path class="st4" d="M247.60001,107c-0.3,1.3-1.7,2.4-4.2,3.2c-2.5,0.9-5.3,1.3-8.7,1.3h-23.39999c-3.3,0-6-0.4-8-1.3
			s-2.89999-2-2.5-3.2l12.60001-50c0.10001-0.4,0.60001-0.8,1.39999-1.1c0.8-0.3,1.8-0.4,2.89999-0.4h7.8c1.2,0,2.10001,0.1,2.7,0.4
			c0.60001,0.3,0.89999,0.6,0.8,1.1l-11.10001,44c-0.3,1.3-1.7,2.4-4.2,3.2c-2.5,0.9-5.3,1.3-8.7,1.3h23.39999
			c1.2,0,2.10001-0.1,2.89999-0.4c0.8-0.3,1.2-0.6,1.39999-1.1l11.89999-47c0.10001-0.4,0.60001-0.8,1.39999-1.1
			c0.8-0.3,1.8-0.4,2.89999-0.4h7.8c1.20001,0,2.10001,0.1,2.70001,0.4c0.70001,0.3,0.89999,0.6,0.79999,1.1L247.60001,107z"/>
		<path class="st4" d="M307.5,55.4c3.29999,0,6,0.4,8,1.3c2,0.9,2.89999,2,2.5,3.2l-12.60001,50
			c-0.10001,0.4-0.60001,0.8-1.39999,1.1c-0.79999,0.3-1.79999,0.4-2.89999,0.4h-7.79999c-1.20001,0-2.10001-0.1-2.70001-0.4
			c-0.70001-0.3-0.89999-0.6-0.79999-1.1l4.60001-18.2c0.10001-0.4-0.20001-0.8-0.79999-1.1c-0.70001-0.3-1.60001-0.4-2.70001-0.4
			h-23.39999c3.29999,0,6,0.4,8,1.3s2.89999,2,2.5,3.2l-3.79999,15.2c-0.10001,0.4-0.60001,0.8-1.39999,1.1
			c-0.79999,0.3-1.79999,0.4-2.89999,0.4h-7.79999c-1.20001,0-2.10001-0.1-2.70001-0.4c-0.70001-0.3-0.89999-0.6-0.79999-1.1
			l12.60001-50c0.29999-1.3,1.70001-2.4,4.20001-3.2c2.5-0.9,5.29999-1.3,8.70001-1.3C284.1001,55.39999,307.5,55.39999,307.5,55.4z
			 M301.60001,63c0.10001-0.4-0.20001-0.8-0.79999-1.1c-0.70001-0.3-1.60001-0.4-2.70001-0.4h-23.39999c3.29999,0,6,0.4,8,1.3
			c2,0.9,2.89999,2,2.5,3.2L281,82.7c-0.10001,0.4,0.20001,0.8,0.79999,1.1c0.70001,0.3,1.60001,0.4,2.70001,0.4h7.79999
			c1.20001,0,2.10001-0.1,2.89999-0.4s1.20001-0.6,1.39999-1.1L301.60001,63z"/>
		<path class="st4" d="M330.5,57c0.10001-0.4,0.60001-0.8,1.39999-1.1s1.79999-0.4,2.89999-0.4h7.79999
			c1.20001,0,2.10001,0.1,2.70001,0.4c0.60001,0.3,0.89999,0.6,0.79999,1.1l-11.10001,44c-0.29999,1.3-1.70001,2.4-4.20001,3.2
			c-2.5,0.9-5.29999,1.3-8.70001,1.3h39c1.20001,0,2.10001,0.1,2.70001,0.4c0.70001,0.3,0.89999,0.6,0.79999,1.1l-0.79999,3
			c-0.10001,0.4-0.60001,0.8-1.39999,1.1c-0.79999,0.3-1.79999,0.4-2.89999,0.4h-31.20001c-3.29999,0-6-0.4-8-1.3
			s-2.89999-2-2.5-3.2L330.5,57z"/>
		<path class="st4" d="M379.10001,111.5c-1.20001,0-2.10001-0.1-2.70001-0.4c-0.70001-0.3-0.89999-0.6-0.79999-1.1l13.29999-53
			C389,56.6,389.5,56.2,390.29999,55.9s1.79999-0.4,2.89999-0.4h7.79999c1.20001,0,2.10001,0.1,2.70001,0.4
			c0.60001,0.3,0.89999,0.6,0.79999,1.1l-13.39996,53c-0.10001,0.4-0.60001,0.8-1.39999,1.1c-0.79999,0.3-1.79999,0.4-2.89999,0.4
			H379.10001z"/>
		<path class="st4" d="M451.70001,55.4c3.29999,0,6,0.4,8,1.3c2,0.9,2.89999,2,2.5,3.2l-12.60001,50
			C449.5,110.3,449,110.7,448.20001,111c-0.79999,0.3-1.79999,0.4-2.89999,0.4h-7.79999c-1.20001,0-2.10001-0.1-2.70001-0.4
			c-0.70001-0.3-0.89999-0.6-0.79999-1.1l4.60001-18.2c0.10001-0.4-0.20001-0.8-0.79999-1.1c-0.70001-0.3-1.60001-0.4-2.70001-0.4
			h-23.39999c3.29999,0,6,0.4,8,1.3s2.89999,2,2.5,3.2l-3.79999,15.2c-0.10001,0.4-0.60001,0.8-1.39999,1.1
			c-0.79999,0.3-1.79999,0.4-2.89999,0.4h-7.79999c-1.20001,0-2.10001-0.1-2.70001-0.4c-0.70001-0.3-0.89999-0.6-0.79999-1.1
			l12.60001-50c0.29999-1.3,1.70001-2.4,4.20001-3.2c2.5-0.9,5.29999-1.3,8.70001-1.3
			C428.30011,55.39999,451.70001,55.39999,451.70001,55.4z M445.89999,63c0.10001-0.4-0.20001-0.8-0.79999-1.1
			c-0.70001-0.3-1.60001-0.4-2.70001-0.4H419c3.29999,0,6,0.4,8,1.3c2,0.9,2.89999,2,2.5,3.2l-4.20001,16.7
			c-0.10001,0.4,0.20001,0.8,0.79999,1.1c0.60001,0.3,1.60001,0.4,2.70001,0.4h7.79999c1.20001,0,2.10001-0.1,2.89999-0.4
			s1.20001-0.6,1.39999-1.1L445.89999,63z"/>
		<path class="st4" d="M508.10001,110c-0.10001,0.4-0.60001,0.8-1.39999,1.1c-0.79999,0.3-1.79999,0.4-2.89999,0.4H496
			c-1.20001,0-2.10001-0.1-2.70001-0.4c-0.70001-0.3-0.89999-0.6-0.79999-1.1l11.89999-47c0.10001-0.4-0.20001-0.8-0.79999-1.1
			c-0.70001-0.3-1.60001-0.4-2.70001-0.4H477.5c3.29999,0,6,0.4,8,1.3c2,0.9,2.89999,2,2.5,3.2l-11.10001,44
			c-0.10001,0.4-0.60001,0.8-1.39999,1.1c-0.79999,0.3-1.79999,0.4-2.89999,0.4h-7.79999c-1.20001,0-2.10001-0.1-2.70001-0.4
			c-0.70001-0.3-0.89999-0.6-0.79999-1.1l13.39999-53c0.10001-0.4,0.60001-0.8,1.39999-1.1s1.79999-0.4,2.89999-0.4h31.20001
			c3.29999,0,6,0.4,8,1.3c2,0.9,2.90002,2,2.5,3.2L508.10001,110z"/>
		<path class="st4" d="M538.90002,111.5c-1.20001,0-2.09998-0.1-2.70001-0.4c-0.70001-0.3-0.90002-0.6-0.79999-1.1l11.90002-47
			c0.09998-0.4-0.20001-0.8-0.79999-1.1c-0.70001-0.3-1.59998-0.4-2.70001-0.4H536c-1.20001,0-2.09998-0.1-2.70001-0.4
			c-0.70001-0.3-0.90002-0.6-0.79999-1.1l0.79999-3c0.09998-0.4,0.59998-0.8,1.40002-1.1c0.79999-0.3,1.79999-0.4,2.90002-0.4h39
			c1.20001,0,2.09998,0.1,2.70001,0.4c0.59998,0.3,0.90002,0.6,0.79999,1.1l-0.79999,3c-0.09998,0.5-0.59998,0.8-1.40002,1.1
			c-0.79999,0.3-1.79999,0.4-2.90002,0.4h-23.40002c3.29999,0,6,0.4,8,1.3c2,0.9,2.90002,2,2.5,3.2L551,110
			c-0.09998,0.4-0.59998,0.8-1.40002,1.1c-0.79999,0.3-1.79999,0.4-2.90002,0.4H538.90002z"/>
	</g>
	<g>
		<path class="st4" d="M553.70001,137.8h2.59998V138.7H555.5v3.8h-0.90002v-3.8h-0.79999V137.8H553.70001z"/>
		<path class="st4" d="M557.40002,137.8h0.90002l1.09998,3.2l1.09998-3.2h0.90002l0.79999,4.60001h-0.90002l-0.5-2.89999l-1,2.89999
			H559l-1-2.89999l-0.5,2.89999h-0.90002L557.40002,137.8z"/>
	</g>
	<g>
		<path class="st1" d="M217,135c-2.2,4.60001-7.10001,7.89999-12.39999,7.89999c-6.39999,0-10.5-5.10001-9-11.60001
			s8-11.6,14.39999-11.6c4.10001,0,7,1.8,8,4.7l1-4.2h1.5l-1.8,7.4h-1.5c-0.10001-3.8-3-6.4-7.5-6.4c-5.7,0-11.2,4.5-12.5,10.2
			c-1.3,5.7,2.10001,10.2,7.7,10.2c4.5,0,8.60001-2.60001,10.5-6.39999H217V135z"/>
		<path class="st1" d="M266.39999,142.39999H260l0.29999-1.3l-4.5-7.3h-5.39999l-1.7,7.2h3.7l-0.3,1.3H243.2l0.3-1.3h3.7l4.7-19.7
			h-3.7l0.3-1.3H260c5,0,7.70001,2.6,6.70001,6.9c-0.89999,4.00001-4.5,6.50001-9,6.8l4.5,7.3h4.5L266.39999,142.39999z M257,132.5
			c4.10001,0,7.29999-2.10001,8.10001-5.5c0.79999-3.5-1.39999-5.5-5.5-5.5h-6.3L250.7,132.60001h6.3V132.5z"/>
		<path class="st1" d="M314.39999,121.5h-12.29999l-2.20001,9.10001h9.79999L309.39999,132h-9.79999L297.5,141h12.29999
			l1.10001-4.60001h1.39999L311.19998,141l0,0l-0.29999,1.39999H292l0.29999-1.3H296l4.70001-19.7H297l0.29999-1.3h18.89999
			l-0.29999,1.4l0,0l-1.10001,4.6h-1.39999L314.39999,121.5z"/>
		<path class="st1" d="M365,142.39999h-9l0.29999-1.3h4.5l-1.5-6.39999h-12l-4.5,6.39999h4.39999l-0.29999,1.3h-8.79999l0.29999-1.3
			h2.70001l13.89999-19.7h-4.29999l0.29999-1.3h6.5l4.89999,21h2.79999L365,142.39999z M356.5,121.8l-8.10001,11.5h10.70001
			L356.5,121.8z"/>
		<path class="st1" d="M413.70001,121.5l-1.10001,4.6h-1.39999l1.10001-4.6h-7.60001l-4.60001,19.60001H404.5l-0.29999,1.3
			h-10.29999l0.29999-1.3h4.39999l4.60001-19.6h-7.60001l-1.10001,4.6h-1.39999l1.39999-6H414L413.70001,121.5L413.70001,121.5z"/>
		<path class="st1" d="M442.29999,141.10001H446l-0.29999,1.3h-8.79999l0.29999-1.3h3.70001l4.70001-19.7h-3.70001l0.29999-1.3H451
			l-0.29999,1.3H447L442.29999,141.10001z"/>
		<path class="st1" d="M500.89999,121.4L486,142.60001h-1.5l-4.89999-21.2H476.5l0.29999-1.3H486l-0.29999,1.3h-4.39999
			l4.39999,19.2l13.5-19.2h-4.39999l0.29999-1.3h9.20001l-0.29999,1.3C504.00003,121.40001,500.89999,121.40001,500.89999,121.4z"/>
		<path class="st1" d="M547.20001,121.5H535l-2.20001,9.10001h9.79999L542.29999,132H532.5l-2.09998,9h12.29999l1.09998-4.60001
			h1.40002L544,141l0,0l-0.29999,1.39999h-18.90002l0.29999-1.3h3.70001l4.70001-19.7h-3.70001l0.29999-1.3H549l-0.29999,1.4l0,0
			l-1.09998,4.6h-1.40002L547.20001,121.5z"/>
	</g>
</g>
</svg>
