<svg xmlns="http://www.w3.org/2000/svg" viewBox="0 0 648 504"><defs><style>.a,.c{fill:#fff;}.b{fill:#231f20;}.c,.d{stroke:#fff;stroke-miterlimit:10;}.c{stroke-width:1.28px;}.d,.e{fill:none;}.d{stroke-width:5.13px;}</style></defs><path class="a" d="M237.2,278.8a8,8,0,0,1,.8,1.3,7.6,7.6,0,0,1,.6,1.6,6.4,6.4,0,0,1,.3,2v1.1a4.3,4.3,0,0,1-.2,1.1,20748771680352.6,20748771680352.6,0,0,1-.8,1.8,2.1,2.1,0,0,1-.4.6l-.3.5-.4.4-2.3-2.7.3-.2.3-.2.4-.3a1,1,0,0,0,.5-.4l.4-.5a37629093820273.9,37629093820273.9,0,0,0,.8-1.4,9,9,0,0,0,.3-1.6v-1.6A8,8,0,0,0,237.2,278.8Z"/><path class="a" d="M227.4,277.2a8,8,0,0,1,1.2,1.7,7.6,7.6,0,0,1,.8,2c.1.3.2.8.3,1.2s.1.9.1,1.4-.1.9-.1,1.4l-.4,1.3c-.1.5-.4.8-.5,1.2s-.5.7-.6,1a4.7,4.7,0,0,0-.6.9l-.5.5-.5.5-2.8-3.8.4-.2.4-.3c.2,0,.4-.2.6-.3l.6-.4.6-.6.6-.8.4-.8.4-1c0-.4.1-.7.1-1.1a12,12,0,0,0,0-1.9A9.1,9.1,0,0,0,227.4,277.2Z"/><path class="a" d="M415.6,277.6a5,5,0,0,1,.8,1.2,8.1,8.1,0,0,1,.6,1.3,5.7,5.7,0,0,1,.3,1.8c0,.4-.1.7-.1,1l-.3,1a3,3,0,0,1-.4.8,1.6,1.6,0,0,1-.4.7l-.4.6-.3.4-.3.3-2-2.7h.3l.3-.2.4-.2.4-.3.4-.4.4-.5.3-.6a5.5,5.5,0,0,0,.3-2.8A5.8,5.8,0,0,0,415.6,277.6Z"/><path class="a" d="M405.8,276.2a5.3,5.3,0,0,1,1.1,1.4,15,15,0,0,1,.9,1.8,4.3,4.3,0,0,1,.2,1.1v1.3a6.9,6.9,0,0,1-.2,1.3c-.1.4-.3.8-.4,1.2l-.6,1-.6.8a6.8,6.8,0,0,1-1.1,1.2l-.4.4-2.4-3.8h.4l1-.4c.1-.1.4-.2.5-.4l.6-.4.6-.6a4.3,4.3,0,0,0,.4-.7l.2-.4v-.4c.1-.3.1-.6.2-.9a9.1,9.1,0,0,0-.1-1.7A9.5,9.5,0,0,0,405.8,276.2Z"/><path class="a" d="M410.9,270.7a3.7,3.7,0,0,0-3-.6,2.3,2.3,0,0,0-1.6,1.5,4.2,4.2,0,0,0-3.2-2c-2.1,0-2.6,1-3.8,2s-1.5,0-.5-2a4.9,4.9,0,0,1,3.2-2.2c1.1,0,2.9.1,3.9,1.2a4.2,4.2,0,0,1,3.1-1.8,3.7,3.7,0,0,1,2.7.9l1.5,2.7Z"/><path class="b" d="M471.7,67.4l-.5-4.1-2.3-1.1-4.6-1.1V59l-1.7-4.3-4.8-2-3.4.9-2.1,2.9-5-6.4-10.9-2.6-12.9-.6-7.1,1.3-6.7,2.7,3.1,2.9v2.6l-7.9,5.8L392.5,73.1l-7.7,13.8-2.7,11.6L381,114v7.5l6.8,4.7,9,1.1,5.6,13.1,10.4,1.6,10,8.1,5.9,10.3,2.7,9.2v9l7-3.2,7.9-8.5,11.6-3,8-6.1,6.8-10.8,1-7.4-1.8-6.7-7.9-5L453.3,116l-7.5-8.5-.5-3.1s2.5-8.6-3.8-21.1,2.4-3.4,2.4-3.4l4.7-3,3.7-2.4,6.5,1,3.8-2.7,5.3-2.3"/><path class="b" d="M440.6,84s5.9,10.4,3.9,21.1,8,11.6,8,11.6l9.2,7,8.1,1.5h5.7l2.5,2.1,6.2.7,2.6-3.6,3.3-6.7,2.7-4.1,1.1-4.9V99.9l1.1-5.7-5.2-2.5L487,89.1l-4.5-1.5L481,84.1l-4.1-2.8-4.3-1.9v-7l-5.3-.5-6.5,1.9-5.1,1.5-6.3,1Z"/><path class="b" d="M202.1,104.9c14.5,5.5,3.7,32.3,3.7,32.3s-16.2,27.7-2.8,38.7S244.3,165,244.3,165l20.4-9,19.1-.8,19.8-3.5,51.7-11.3,20.3-10.6,11.4-3.9,20.6,15.4,12.5,6.9,9,12.9,2.4,15.8-.9,2.4,10.2-6.5,3.5,17.4-13,30.3-5.7,26.9,3.7,15.5-4.8,23.5-43-1.7,2-4.5,4.2-7.6-3.7-6.1v-6.1l2.2-7.7-2.4-8.2.2-9.1-4.2-6.4-.2-7.8-14.5-.6-60.8-10.5-39.6,19-11.4,9.1L235,245.9l-6.1,9.1s-3.7,8.9-3,9.7,1.9,9.3,1.9,9.3l4.3-2.5,4.1,1.9,6.4-.8,5.7,7.9-.7,7.6L233,289.9,203,286l2.1-5.1.7-7-1.3-8.7-2.4-8.2,3.7-9.1,9-9.2,6-11.8,5.1-15,3-13.4,1.2-13.3h-7.2l-11.4,1.7-14-7.2-5-9.2V160l3.6-13.6,7.4-15.9,2.2-9.6-2.3-6.9-7.3-5.1-8.6.6-5.6,3.2-5.2,5.8-8.2.2,8-5.5s12.5-13.1,25.5-8.3"/><path class="a" d="M155.6,121.7c-.4,1-4.1,9.8-11.4,12.6a15.7,15.7,0,0,1-4.3.7,9.5,9.5,0,0,0,4.4.8h3.4a32.7,32.7,0,0,0,6-1c-3.8,3.6-10.4,5.2-10.4,5.2a36.7,36.7,0,0,1-4.9.9s1,.5,5,.3a58.3,58.3,0,0,0,12.8-2.2,67.2,67.2,0,0,1-12.9,6.2l-1.7.5a33.2,33.2,0,0,1-4.1.7,19.4,19.4,0,0,0,5-.1c2.7-.3,24.6-4.7,28.5-5.8h.1a8.2,8.2,0,0,0,2.5-.8h.1l-.2-.6.3.6a13.7,13.7,0,1,0-18.2-17.9"/><path class="c" d="M173.6,114.4s15.2-15.4,26.7-11.3,16.9,18.8,7.5,34.4-12,36.3,1.9,38.4,35.5-12.4,35.5-12.4-6.2,5.8-8.1,9.8c0,0-8.8,2.2-13.9,4.1s-16.7,3-21.4-1.7-5.3-15.2-3.2-22.7,7.9-19.2,7.9-19.2,6.2-10,1.9-20.5a13.8,13.8,0,0,0-16.8-8.5c-2.2.8-10.5,3.8-15.9,10.8S173.6,114.4,173.6,114.4Z"/><path class="c" d="M176.7,116.3s11.6-14.2,23-8.5,7.2,19.2,7.2,19.2-8.1,16.6-10,21.6-4.5,15.6-.9,23.5,11.4,12.5,19.9,11.5,18.5-6.3,21.2-10.3l-6,20.8s.6-6.9-4.7-6.9-9.3,2.8-19.5.2-17.5-13-15.1-26.4,7.4-20.8,11.1-29.7,3.9-17.5-4.1-21-16.9,1.5-20.3,9.2S176.7,116.3,176.7,116.3Z"/><path class="d" d="M377.7,125.5c-10.5,10.5-29.3,16.3-29.3,16.3s-55.3,11.7-62.8,11.7c-11.4,0-21-1.8-36,7.2-17.9,10.6-18.6,31.6-23.2,51.3s-13.2,29.7-16.6,33.2-8.4,6.2-5.5,15.4,2.4,12.3,2.4,16.5-4.8,11.2-4.8,11.2h47.4s.8-15.4-5.6-17.3c-3-.9-4.3,0-4.8,1.3a1.2,1.2,0,0,1-2.1.4c-1.7-1.9-4.2-3.3-6.4,1.9,0,0-5.9-4.9-3.2-14.5s7.5-12.6,7.5-12.6,28.4-13,35.6-20.3c0,0-1.6,7.6.9,12.6a6.4,6.4,0,0,1,.5,4.5,33.9,33.9,0,0,1-2.3,6.8,4.2,4.2,0,0,0-.2,2.9c.9,2.7,3.2,8,8.5,14.6,7.6,9.6-.5,18.8-.5,18.8l43.6-.6s-1.2-11.9-4.5-15.2-12.5-1.2-15.1-3.8-4.1-9.6-4.1-9.6,6-13.1,4.5-18.8-3.3-13.6,2.8-19.7,19-5.8,24.3-1.9,36.3,8.5,51.7,1.3a18.2,18.2,0,0,0,3.1,13.4,6.6,6.6,0,0,1,1.1,4.5,21.8,21.8,0,0,0,2.2,13.3,4.9,4.9,0,0,1,.3,4.1l-2.2,6.8s.2,3.4,3,8.3-5.1,7.9-5.1,15.8l43.1.4s-1.2-14.9-6.8-14.9c-3.3,0-4.1,4.5-4.1,4.5s.1-4-1.5-5.6a22.1,22.1,0,0,1,1.8-6.4,14.5,14.5,0,0,1-1.2-10.3c1.4-6.1,4.2-8.2,3.7-9.7s-4-16.1,1.9-27.3.5-22.3.5-22.3-4.1-9.7-.2-16.6"/><path class="d" d="M456.5,172.9c-3.3,10.9-13.1,26.4-13.1,26.4a125.6,125.6,0,0,0-12,26.3c-4.8,15.1-1.8,29.4.3,33.7s-1.5,10.7-1.5,10.7c2.6,5.3,8.9,4.7,10.1,4.7s.2-2.1,5.8-2.1,2.9,12.8,2.9,12.8H426.9"/><path class="e" d="M436,58.1c8.2,4.1,17,15,17,15h4.4s4.5-10.9,4.9-12.9,1.1-5.6-3.5-6.4-4.4,3.4-4.4,3.4V69.1c-4.5-13-10.1-17.4-10.1-17.4C433.5,50,422,54.9,422,54.9A35.1,35.1,0,0,1,436,58.1Z"/><path class="e" d="M415.3,73.9c-4.3-2.3-13,1.4-13,1.4,4.3-4.3,13.9-5.8,19-5s4.9-1,4.9-1c-4.1-5.9-16.7-3.3-16.7-3.3,7.9-4.7,14.7-4.1,19.4-2.4a47,47,0,0,1,6.8-.5s-4.6-5.6-13.8-4.8-15.9,3-27.4,16.3-11.3,31.8-10.6,36.1c.5,2.7,1.1,4.8.4,7.9l1-1.3c2.6-3.8-.3-4.9,7.9-22.8S415.3,73.9,415.3,73.9Z"/><path class="e" d="M462.6,71.3c.9-.8,4.9-1.4,6.2-2.1s3.4-4.3,0-6.1-3.9-.4-5.1.8-3.3,8.7-3.3,8.7A6,6,0,0,0,462.6,71.3Z"/><path class="e" d="M427.7,119.1c-10.7-7.2-12.8-25.7-12.8-25.7-6.7,14.3,2.1,28.5,2.1,28.5-13.9-10.4-4.6-38.5-4.6-38.5-25,9.5-19.3,35-19.3,35,1.7-6.5,8.1-10.8,8.1-10.8s-1.5,4.5,1.1,14.8,11.9,15.4,11.9,15.4.8-7.2.8-7.2.6,6.6,10.6,18,9.3,26.2,9.3,26.2,5.9-4.5,3.5-19.8c-2.1-13.5-12.8-24.3-15.3-26.6l-.6-.5.6.5a76.8,76.8,0,0,1,6.5,5.5c3,2.9,8.4,7,10.8,10.7s2,7.7,1.9,15.1a36.1,36.1,0,0,0,5-17.4C447.3,136.3,438.5,126.3,427.7,119.1Z"/><path class="e" d="M476.6,117.2c1.4.7,5.6-1.4,6.7-2.5s2.3-.5,2.9-1.1a18.3,18.3,0,0,0,2.7-2.8,9.9,9.9,0,0,0,1.9-3.4s1.2-3.5-.1-4.9-2.2-5.5-7-4.7c0,0-3.5,1.7-1.8-.4a2.6,2.6,0,0,1,3.2-.7s2.1-2.1,4-2.1a3.9,3.9,0,0,1,2.7.8,8.1,8.1,0,0,1,2.9-.7l-.3-.5a3.8,3.8,0,0,0-3.9-.4c-1.3.6-3.1-.9-4.8-1h0c.9-.1,2.8-.4,3.2-1.5s-3.6-.7-5.2-.2-3.9.8-3.9.2,1.3-.8,2.8-1.2,2.3-1,1.1-1.4-2.8-.4-3.4.3-1.1-.7.1-1.2.3-.6-1-1.4-.9-1.7-2-2.3-2.2-1.3-3.7-1.3-1-.7,1-.7,3.2.4,4.2,1.4,2.2,3.1,3.4,3.1-.7-3.2-2.6-3.9a35,35,0,0,0-9.4-2.9l.8-2.3c.4-1.4,1.3-4.1.9-4.4s-2.1-.6-4.6-.6-5.2,1.9-5.8,2.4,0,1.7,0,1.7c6.5,3.4,5.8,5.4,5.8,5.4-2.2-3-6.8-4.1-9.3-5a10.2,10.2,0,0,0-5.5,0l-3.9,3.7-1.8.4,1.8,3.1s-3,.5-4.4-.9a1.9,1.9,0,0,0-2.8,0c2.9,10.2-6.4,21.7-6.4,21.7-1.5-9.2,2.6-15.7,3.3-17.4s-1.4-4.2-3.1-5.9-5.2-2.7-6.7-3.3,2.8-4.4,6.3-5.2,5.7.9,8,2.1,4.7.2,4.7-1.6-5.3-4.5-9.2-5.6a8.8,8.8,0,0,0-2.7-.4c-1.2.4-12.7,4.1-14.1,10.2S434,87.4,434,87.4c-14.4,1.2-13,13.2-13,13.2,2.7-3.8,7.5-3.4,7.5-3.4-6,7.8,0,17.3,0,17.3,0-2.6,3.8-5.5,3.8-5.5-2.7,10.1,7.4,16.9,7.4,16.9s7.6,3.2,12.4,13.8c3.6,8.1.2,16.9-1.6,20.7,4.2-2.9,12.3-7.7,12.3-18.4s-12.4-10.6-19-17.2-5.7-11.6-4.9-16.2,4.5-12.4,4.5-12.4-4.5,15.7.3,21.7,12.1,9.2,13.8,12c0,0-1.7-8.3-7.9-12.3s-4.3-13.2-4.3-13.2,1.1,4.8,4.6,6.6,4.1,2.9,4.1,2.9a8.4,8.4,0,0,0-.1-5.9,9.1,9.1,0,0,1-.9-5,3.6,3.6,0,0,1,4.5,1.5c1.7,2.7,7.6,3.1,10.3,3.1a5.4,5.4,0,0,0-2.3,4.8c0,3.4-4.2,2.5-4.2,2.5s-1,1.4,2.1,1a6.2,6.2,0,0,0,3.3-1.2l.4-.4-.4.4a4,4,0,0,0-1,3.6,6.5,6.5,0,0,0,4.2-1.9,8.6,8.6,0,0,0-1.3,3.1,13.7,13.7,0,0,1,3.2-1.3l2.4-.6m-7.6-32.8c.9-.2,3.6-.5,4.3,1.9s2.5,2.9,2.5,2.9a1.4,1.4,0,0,1-2,0c-.9-.9-.5-2-2.6-3a3.9,3.9,0,0,0-3.7,0C463.1,86.6,465.4,85.1,466.6,84.8Zm1.8,7.7a7.3,7.3,0,0,0-2.5-.4h-3.8a5.9,5.9,0,0,1-2.2-.5,4.5,4.5,0,0,1-2-2.1l-.4-.8-5.2-1.8,8.2.7,2.7-.3a3.8,3.8,0,0,1,3.2,1.2l1.9,2.1,10.6,4.5Z"/><path class="e" d="M485.1,125.3c.2-1,1.1-1,1.3-1.7a3.4,3.4,0,0,0,.2-2.7l-5.1.5c-.8,0-3.1-.8.5-2s7.1-1.8,6.7-2.9-3.5-.1-5.6.9-5.3,3.5-9.2,4h0a16.3,16.3,0,0,0-1.1,1.7,5.8,5.8,0,0,1,3.2,0c2.3.8,3.5,2.9,4.2,3.1"/><path class="e" d="M493.7,105.8a4.4,4.4,0,0,0-1.6,1.5c-1.1,1.9.3,5.2.5,5.6a4.2,4.2,0,0,0,.9-1.9C493.7,109.6,493.2,107.3,493.7,105.8Z"/><path d="M467.1,114.3l-.4.4Z"/><path d="M423.1,128.4l-.6-.5Z"/><path class="a" d="M468.3,90.6l-1.9-2.1a3.8,3.8,0,0,0-3.2-1.2l-2.7.3-8.2-.7,5.2,1.8.4.8a4.5,4.5,0,0,0,2,2.1,5.9,5.9,0,0,0,2.2.5h3.8a7.3,7.3,0,0,1,2.5.4l10.5,2.6Z"/><path class="a" d="M411.8,54.8c-10.5,4.4-10.9,4.2-22.5,18.8s-10.8,32.6-10.4,36a25.1,25.1,0,0,1-7.3,20,15.1,15.1,0,0,1-7.3,6.8l-10.7,4.5s-14.2,4.8-7.6,2.9c18.7-5.4,33.1,4,35.2-15.4,0,0-2.4,20,6.8,35.9,0,0-2.6-14,4.3-27.2,0,0,1.2,23.3,23.3,31.6,0,0-11-11.3-5.9-20.9,0,0,13,1.2,17.9,16.4s-2.2,25.7-2.2,25.7a59.7,59.7,0,0,0,9.1-7.7h0s4-3.2,9.2-10.5c3.1-2.7,13.1-11.4,18.2-16.4s8.4-21.3,8.4-21.3c2,4,0,11.2,0,11.2s-1.5,6.2-11.5,14.4-2.4,40-2.4,40c.6-1.8.7-14.2,1.4-17.4s-.1-3.2,2.5-10.6a24.7,24.7,0,0,1,6.2-9.4c3.4-3.4,8.2-11.2,9.3-18.1a18.6,18.6,0,0,0-3.5-13.6,10.8,10.8,0,0,1-.3-5,5.1,5.1,0,0,1,3.6-.4c.3,0,.7.4,1.1.8a8.3,8.3,0,0,1,2.1,3.9c1.6,6.5,6.3,8.6,6.3,8.6-.9-6.6.6-9.3.6-9.3,0,2.9,3.1,5.7,3.1,5.7a25.5,25.5,0,0,1,.4-9.5c1.6-4.8,2.6-5.5,5-9.8a11.9,11.9,0,0,0,1.6-6.5v-.3c0-3,3.3-6.7,3.3-6.7,2.2-5.4-1.5-10.2-3.3-11s-4.3-.6-5.5-1.7-6-3-6-3c0-1.6-.9-2.3-2.2-3.7s-5.7-3.9-7-4.8c.4-2.7.7-7-2.7-7.5,0,0,3.6-11-7.2-11,0,0,1.2-6.9-6-7.5s-7.1,2.6-7.1,2.6l-3.3-5.9a4.7,4.7,0,0,0-1.6-.9c-13.7-3.7-26.1-2.8-34.4.1,0,0-14.6,5.6-17.9,16C394.9,63.7,400.3,56.2,411.8,54.8Zm57,8.3c3.4,1.8,1.4,5.4,0,6.1s-5.3,1.3-6.2,2.1a6,6,0,0,1-2.2,1.3s2.2-7.6,3.3-8.7S465.5,61.2,468.8,63.1ZM444.3,51.7s5.6,4.4,10.1,17.4V57.2s-.2-4.3,4.4-3.4,3.9,4.4,3.5,6.4-4.9,12.9-4.9,12.9H453s-5.7-10.4-15.2-15.5a53.7,53.7,0,0,0-25-6.3S429.5,46.3,444.3,51.7Zm-59,65.6-1,1.3c.7-3.1.1-5.2-.4-7.9-.7-4.3-1-22.8,10.6-36.1S412.6,59,421.9,58.3s13.8,4.8,13.8,4.8a47,47,0,0,0-6.8.5c-4.7-1.7-11.5-2.3-19.4,2.4,0,0,12.6-2.6,16.7,3.3,0,0,.1,1.7-4.9,1s-14.7.7-19,5c0,0,8.7-3.7,13-1.4,0,0-13.8,2.6-22.1,20.6S387.9,113.5,385.3,117.3Zm57,42.4c.1-7.4,0-12.3-1.9-15.1s-7.8-7.8-10.8-10.7a76.8,76.8,0,0,0-6.5-5.5c2.5,2.3,13.2,13.1,15.3,26.6,2.4,15.3-3.5,19.8-3.5,19.8s.6-14.9-9.3-26.2-10.6-18-10.6-18,.5,6-.8,7.2-9.3-5.2-11.9-15.4-1.1-14.8-1.1-14.8-6.4,4.3-8.1,10.8c0,0-5.7-25.5,19.3-35,0,0-9.3,28.1,4.6,38.5,0,0-8.8-14.2-2.1-28.5,0,0,2.1,18.5,12.8,25.7s19.6,17.2,19.6,23.2A36.1,36.1,0,0,1,442.3,159.7Zm31.5-42.1-2,.6a13.7,13.7,0,0,0-3.2,1.3,8.6,8.6,0,0,1,1.3-3.1,6.5,6.5,0,0,1-4.2,1.9,4,4,0,0,1,1-3.6,6.2,6.2,0,0,1-3.3,1.2c-3.1.4-2.1-1-2.1-1s4.2.9,4.2-2.5a5.4,5.4,0,0,1,2.3-4.8c-2.7,0-8.6-.4-10.3-3.1A3.6,3.6,0,0,0,453,103a9.1,9.1,0,0,0,.9,5,8.4,8.4,0,0,1,.1,5.9s-.5-1-4.1-2.9-4.6-6.6-4.6-6.6-1.8,9.2,4.3,13.2,7.9,12.3,7.9,12.3c-1.7-2.8-9.1-6-13.8-12s-.3-21.7-.3-21.7-3.7,7.8-4.5,12.4-1.7,9.6,4.9,16.2,19,5.8,19,17.2-8.1,15.5-12.3,18.4c1.8-3.8,5.2-12.6,1.6-20.7-4.8-10.6-12.4-13.8-12.4-13.8s-10.1-6.8-7.4-16.9c0,0-3.8,2.9-3.8,5.5,0,0-6-9.5,0-17.3,0,0-4.8-.4-7.5,3.4,0,0-1.4-12,13-13.2,0,0-13.9-3-12.4-9.5s12.9-9.8,14.1-10.2a8.8,8.8,0,0,1,2.7.4c3.9,1.1,9.2,3.7,9.2,5.6s-2.5,2.8-4.7,1.6-4.4-3-8-2.1-7.8,4.6-6.3,5.2,5.1,1.7,6.7,3.3,3.7,4.1,3.1,5.9-4.8,8.2-3.3,17.4c0,0,9.3-11.5,6.4-21.7a1.9,1.9,0,0,1,2.8,0c1.4,1.4,4.4.9,4.4.9l-1.8-3.1,1.8-.4,3.9-3.7a10.2,10.2,0,0,1,5.5,0c2.5.9,7.1,2,9.3,5,0,0,.7-2-5.8-5.4,0,0-.5-1.1,0-1.7s3.4-2.4,5.8-2.4,4.2.1,4.6.6-.5,3-.9,4.4l-.8,2.3a35,35,0,0,1,9.4,2.9c1.9.7,2.6,3.9,2.6,3.9s-2.4-2.1-3.4-3.1-2.2-1.4-4.2-1.4-2.6.7-1,.7,2.5.8,3.7,1.3.7,1.4,2,2.3,2.2.9,1,1.4-.8,1.8-.1,1.2,2.2-.7,3.4-.3.5,1-1.1,1.4-2.8.5-2.8,1.2,2.2.3,3.9-.2,5.7-1.8,5.2.2-2.3,1.4-3.2,1.5c1.7.1,3.5,1.6,4.8,1a3.8,3.8,0,0,1,3.9.4l.3.5a8.1,8.1,0,0,0-2.9.7,3.9,3.9,0,0,0-2.7-.8c-1.9,0-4,2.1-4,2.1a2.6,2.6,0,0,0-3.2.7c-1.7,2.1,1.8.4,1.8.4,4.8-.8,5.7,3.4,7,4.7s.1,4.9.1,4.9a9.9,9.9,0,0,1-1.9,3.4,18.3,18.3,0,0,1-2.7,2.8c-.6.6-1.8,0-2.9,1.1s-5,3.3-6.4,2.6A6.2,6.2,0,0,0,473.8,117.6Zm6.4,7.3a21.3,21.3,0,0,0-4.2-1.8,5.8,5.8,0,0,0-3.2,0,16.3,16.3,0,0,1,1.1-1.7h0c3.9-.5,7.5-3.2,9.2-4s5.3-2.1,5.6-.9-3,1.7-6.7,2.9-1.3,2-.5,2l5.1-.5a4.1,4.1,0,0,1,0,2.9,3,3,0,0,1-1.9,1.9S483.2,126.7,480.2,124.9ZM493.5,111a4.2,4.2,0,0,1-.9,1.9c-.2-.4-1.6-3.7-.5-5.6a4.4,4.4,0,0,1,1.6-1.5C493.2,107.3,493.7,109.6,493.5,111Z"/><path d="M485.7,92.8h0Z"/><path class="a" d="M465.1,86.6a3.9,3.9,0,0,1,3.7,0c2.1,1,1.7,2.1,2.6,3a1.4,1.4,0,0,0,2,0s-1.7-.1-2.5-2.9-3.4-2.1-4.3-1.9S463.1,86.6,465.1,86.6Z"/><path class="a" d="M420.4,191.1s6.5,6.6,6.5,11.9,2.1-3.1,6.1-7,8-11.7,7-17.7,10.9-17.8,10.9-17.8l7.1-4.7s-.4,16.8-4.8,25.6-18.9,29.6-23.7,52.5,5.5,20.5,1.4,34.8c0,0-1.8,6,9.4,6,0,0,12.3-8.2,8.1,9.1H426.9s-1.8-13.7-6.5-13.7-3.9,3-3.9,3l-4.3-4.5,1.9-5.3s-5.6-7.9,1.2-20.1c0,0-3.6-18.4,4.9-29.5S420.4,191.1,420.4,191.1Z"/><path class="a" d="M392.3,258.4s11.1-5.2,15.1,1.3a2.7,2.7,0,0,0-.3-3.8c-1.9-1.6-.2-10.6.3-15.3s-.4-12.3.1-18.2,3.6-15.2,1.5-25.5c0,0,.4,9.3-1.8,17a61.3,61.3,0,0,0-2.5,18.4c.2,3.4-.4,15.6-1.6,19a12.1,12.1,0,0,0-.5,3.1h-1.1s2.4-9.4,1.9-17.4a80.1,80.1,0,0,1,1.7-21.4,36.3,36.3,0,0,0,1.7-7.8s-4,8.8-4.3,17.5-.5,17.8-1.1,20.3c-1.4,6-1.8,8.8-1.8,8.8h-1.1s1.9-9.4,1.5-14.6-.3-12.1.4-14.8c0,0-2.3,5.8-2.1,16s-2.5,13.9-2.5,13.9a46,46,0,0,0,1.2-16.4S395.8,252.9,392.3,258.4Z"/><path class="a" d="M393.1,189.5a13,13,0,0,0-4.5,6.1s.5-5.8,3.8-9.8Z"/><path class="a" d="M392.3,184.3s-4.1,1.7-5.9,8.7c0,0,.5-8.9,4.9-14.4Z"/><path class="a" d="M391.1,176.3s-1.3-4.9-1.5-6.7c0,0-5.6,14-6.6,19.9C383,189.5,388,178.6,391.1,176.3Z"/><path class="a" d="M383.8,214.8s2.8-6,2-8.6a2.6,2.6,0,0,1-2.6,1.6c-2.1,0-1.4-5,0-6.5a6.8,6.8,0,0,0-4.5,4.2l-2-2.8s3.6-3.2,5-6.7c0,0-6.8,5-10.4,5.4,0,0-4.3-4.1,1-12.6s2.9-10,3.7-12.9,2.7-7.9,7.2-10.2c0,0-5.3.6-9.4,12.2s-29.8,10.5-28.6,5.7c0,0-.8,4.7,6.2,5.8s16.5-.3,21.1-5.8a13.2,13.2,0,0,1-3.5,6.9c-3,3-4.5,4.8-10.1,6.4s-13.6-.2-19.2-5.7-5.9-12.8-12.8-21.4-11.1-3.1-11.1-3.1a5.2,5.2,0,0,0,3.7,1.3c2.6,0,8.8,2.7,10.2,13.4a11,11,0,0,0-7.3.7s5,.3,7,2.3c0,0-.5.6-2.9.6s2.1.1,2.6,2,.6,3.2-.4,4.2-3.4.9-3.4.9a6.6,6.6,0,0,0,4.3,1.5c2.6,0-.8,2.4-2.7,1.5a30.9,30.9,0,0,0-20-.4s8.9-6.8,17.5-5.7c0,0-7.8-9.1-26.9-2,0,0,6.3-.4,7.5.9l-3.8,3.3s4.8-3.3,8.3-2.8,4.6-.3,1.3,1.5-9.8,5-14,8.2-11.4,6.1-22.6,20.6a118.3,118.3,0,0,1-8.6,9.7l4.3,8.6,2,5.6-1.6,6.5-1.1,4.9,2.9,6.5,6.1,8.9,2.5,10.5-3.5,7.5,43.6-.6-.8-6.5-1.8-6.4-4.3-3.6-10.2-1.6-4.8-4.3-1-6.2,1.9-7.6,2.3-7.8-.4-6.4-1.6-5.2.8-7,2.8-4.2,8-4.1,6.2-.7,8.3,1.3,6.1,2.9,11.6,2.5,14.4,2,8.1-1.4,9.9-1.9,5.4-2.5Z"/><path class="a" d="M366.6,189.7s-15.9,6.7-25.3-2.7c0,0,2.5,7.3,10.1,8.1A17.2,17.2,0,0,0,366.6,189.7Z"/><path class="a" d="M287.6,161s-5.1,4.4-1.9,8.9l3.2,4.5h1.4s2.1-9.1,9.3-11.8c0,0-3.6-1.7-9.6,4.3C290,166.9,285.3,166.6,287.6,161Z"/><path class="a" d="M232.7,246.1s-5.2,2.2-11.9,8.9c0,0-5,4.5-4.5.9s4.1-7.2,8.4-9.9,5.9-3.2,16.3-5.4c6.3-1.2,10.2-4.1,13.9-6.2s12.2-16.3,17.6-23.6,13.4-9.9,17.4-16.7,2.3-9.8,3.6-13.1,4-8.6,8.8-9.9c0,0-6.1,4.8-5.1,10.3,0,0,11.6-7.8,26-4.9,0,0-17.1-.6-25.5,8.5,0,0-2.6,3.8-4.7,11.4a33.5,33.5,0,0,1-9.6,16.3c-4.1,4.1-12.9,12.3-17.8,16.8s-21.2,14.2-21.2,14.2Z"/><path class="a" d="M235.7,209.4s-6.2-61.8,66.4-50.8c0,0-30-14.5-46.1-1.3C243.6,167.5,223.2,177.4,235.7,209.4Z"/><path class="a" d="M417.6,176.1s2.7-5.2,6.4-7.5c0,0,.6,6.9-2,10s-3.3,2.2-3.3,2.2Z"/><polygon class="a" points="567.7 296.6 77.4 296.6 81 284 571.3 284 567.7 296.6"/><path class="a" d="M121.9,373.9c-.4,1.8-2.3,3.2-5.6,4.4a35.7,35.7,0,0,1-11.5,1.7H73.5a28.5,28.5,0,0,1-10.7-1.7c-2.7-1.2-3.9-2.6-3.4-4.4L76.3,307c.1-.6.7-1.1,1.8-1.4A10.7,10.7,0,0,1,82,305H92.4a8.4,8.4,0,0,1,3.6.6c.9.3,1.3.8,1.1,1.4L82.3,365.8c-.5,1.8-2.3,3.2-5.6,4.4a36.8,36.8,0,0,1-11.6,1.7H96.4a11.4,11.4,0,0,0,3.9-.6,2.5,2.5,0,0,0,1.8-1.4L118,307c.1-.6.7-1.1,1.8-1.4a11.4,11.4,0,0,1,3.9-.6h10.4a9.2,9.2,0,0,1,3.7.6c.8.3,1.2.8,1,1.4Z"/><path class="a" d="M201.9,305a28.5,28.5,0,0,1,10.7,1.7c2.7,1.2,3.9,2.7,3.4,4.4L199.1,378q-.2.9-1.8,1.5a14.8,14.8,0,0,1-3.9.5H183a11.8,11.8,0,0,1-3.7-.5c-.8-.4-1.2-.9-1-1.5l6.1-24.3c.2-.6-.2-1.1-1.1-1.5a8.4,8.4,0,0,0-3.6-.6H148.4a26.5,26.5,0,0,1,10.7,1.8c2.7,1.1,3.9,2.6,3.4,4.3L157.4,378c-.1.6-.8,1.1-1.8,1.5a14.8,14.8,0,0,1-3.9.5H141.3a11.8,11.8,0,0,1-3.7-.5c-.8-.4-1.2-.9-1.1-1.5l16.9-66.9c.5-1.7,2.3-3.2,5.6-4.4a36.8,36.8,0,0,1,11.6-1.7Zm-7.8,10.1c.2-.6-.2-1-1-1.4a9.2,9.2,0,0,0-3.7-.6H158.2a26.8,26.8,0,0,1,10.7,1.8c2.7,1.1,3.8,2.6,3.4,4.3l-5.7,22.3c-.1.6.2,1.1,1.1,1.5a11.5,11.5,0,0,0,3.6.5h10.5a14.8,14.8,0,0,0,3.9-.5,2.8,2.8,0,0,0,1.8-1.5Z"/><path class="a" d="M232.7,307c.1-.6.7-1.1,1.8-1.4a11.4,11.4,0,0,1,3.9-.6h10.4a9.2,9.2,0,0,1,3.7.6c.8.3,1.2.8,1,1.4l-14.8,58.8c-.4,1.8-2.3,3.2-5.6,4.4a36.4,36.4,0,0,1-11.6,1.7h52.2a9,9,0,0,1,3.6.6c.9.3,1.2.8,1.1,1.4l-1.1,4.1q-.2.9-1.8,1.5a13.7,13.7,0,0,1-3.9.5H229.9a28.5,28.5,0,0,1-10.7-1.7c-2.7-1.2-3.9-2.6-3.4-4.4Z"/><path class="a" d="M297.7,380a10.6,10.6,0,0,1-3.6-.5c-.9-.4-1.3-.9-1.1-1.5l17.9-71a2.5,2.5,0,0,1,1.8-1.4,11.4,11.4,0,0,1,3.9-.6h10.5a9,9,0,0,1,3.6.6c.8.3,1.2.8,1.1,1.4l-18,71q-.2.9-1.8,1.5a13.7,13.7,0,0,1-3.9.5Z"/><path class="a" d="M394.8,305a29.1,29.1,0,0,1,10.8,1.7c2.7,1.2,3.8,2.7,3.3,4.4L392.1,378c-.2.6-.8,1.1-1.9,1.5a13.7,13.7,0,0,1-3.9.5H375.9a10.6,10.6,0,0,1-3.6-.5c-.9-.4-1.3-.9-1.1-1.5l6.1-24.3c.2-.6-.2-1.1-1-1.5a9.2,9.2,0,0,0-3.7-.6H341.3a27,27,0,0,1,10.8,1.8c2.7,1.1,3.8,2.6,3.4,4.3L350.3,378q-.2.9-1.8,1.5a13.7,13.7,0,0,1-3.9.5H334.2a10.6,10.6,0,0,1-3.6-.5c-.9-.4-1.3-.9-1.1-1.5l16.9-66.9c.4-1.7,2.3-3.2,5.6-4.4a35.9,35.9,0,0,1,11.6-1.7Zm-7.7,10.1c.1-.6-.2-1-1.1-1.4a9,9,0,0,0-3.6-.6H351.1a26.8,26.8,0,0,1,10.7,1.8c2.7,1.1,3.8,2.6,3.4,4.3l-5.6,22.3c-.2.6.2,1.1,1,1.5a11.8,11.8,0,0,0,3.7.5h10.4a14.8,14.8,0,0,0,3.9-.5q1.6-.6,1.8-1.5Z"/><path class="a" d="M470.3,378c-.2.6-.8,1.1-1.9,1.5a13.7,13.7,0,0,1-3.9.5H454.1a11.5,11.5,0,0,1-3.6-.5c-.9-.4-1.2-.9-1.1-1.5l15.9-62.9c.1-.6-.2-1-1.1-1.4a9,9,0,0,0-3.6-.6H429.3a26.8,26.8,0,0,1,10.7,1.8c2.7,1.1,3.8,2.6,3.4,4.3L428.5,378q-.2.9-1.8,1.5a13.7,13.7,0,0,1-3.9.5H412.4a10.6,10.6,0,0,1-3.6-.5c-.9-.4-1.3-.9-1.1-1.5l17.9-71a2.5,2.5,0,0,1,1.8-1.4,11.4,11.4,0,0,1,3.9-.6h41.8a28.9,28.9,0,0,1,10.7,1.7c2.7,1.2,3.8,2.7,3.4,4.4Z"/><path class="a" d="M511.5,380a11.8,11.8,0,0,1-3.7-.5c-.8-.4-1.2-.9-1-1.5l15.8-62.9c.2-.6-.2-1-1-1.4a9.2,9.2,0,0,0-3.7-.6H507.5a8.7,8.7,0,0,1-3.6-.6c-.9-.3-1.3-.8-1.1-1.4l1-4.1a2.5,2.5,0,0,1,1.8-1.4,11.6,11.6,0,0,1,4-.6h52.1a9,9,0,0,1,3.6.6c.9.3,1.3.8,1.1,1.4l-1,4.1a2.5,2.5,0,0,1-1.8,1.4,11.6,11.6,0,0,1-4,.6H528.4a26.8,26.8,0,0,1,10.7,1.8c2.7,1.1,3.8,2.6,3.4,4.3L527.6,378q-.1.9-1.8,1.5a14.8,14.8,0,0,1-3.9.5Z"/><path class="a" d="M531.3,415.1h3.4v1.2h-1.1v5h-1.2v-5h-1.1Z"/><path class="a" d="M536.1,415.1h1.2l1.4,4.4,1.5-4.4h1.1l1.1,6.2h-1.2l-.6-3.9-1.4,3.9h-1l-1.3-3.9-.7,3.9h-1.1Z"/><path class="a" d="M80.9,411.4a18.5,18.5,0,0,1-16.6,10.5c-8.6,0-14.1-6.8-12-15.5S63,390.8,71.6,390.8c5.4,0,9.3,2.4,10.7,6.3l1.3-5.7h2l-2.4,10h-2c-.1-5.1-4-8.6-10-8.6-7.6,0-15,6-16.8,13.6S57.2,420,64.7,420a15.6,15.6,0,0,0,14-8.6Z"/><path class="a" d="M146.9,421.3h-8.5l.4-1.7-5.9-9.7h-7.3l-2.2,9.6h5l-.5,1.8H116l.4-1.8h4.9l6.3-26.3h-4.9l.4-1.8h15.3c6.8,0,10.4,3.5,9,9.3s-5.9,8.7-12.1,9.1l6,9.7h6.1Zm-12.4-13.2c5.5,0,9.8-2.8,10.9-7.4s-1.9-7.4-7.4-7.4h-8.4l-3.5,14.8Z"/><path class="a" d="M211.2,393.3H194.8l-2.9,12.2H205l-.4,1.8H191.5l-2.9,12.1H205l1.5-6.1h1.9l-1.5,6.1h.1l-.5,1.9H181.3l.4-1.8h4.9l6.2-26.3h-4.9l.4-1.8h25.3l-.5,1.9h0l-1.5,6.1h-1.8Z"/><path class="a" d="M278.9,421.3h-12l.4-1.8h6.1l-2-8.5h-16l-6,8.5h6l-.5,1.8H243.1l.5-1.8h3.6l18.6-26.3H260l.4-1.8H269l6.6,28.1h3.7Zm-11.4-27.5-10.8,15.4H271Z"/><path class="a" d="M344,393.3l-1.5,6.1h-1.9l1.5-6.1H331.9l-6.2,26.2h5.9l-.4,1.8H317.4l.4-1.8h5.9l6.2-26.2H319.8l-1.5,6.1h-1.9l1.9-8h26.1l-.4,1.9Z"/><path class="a" d="M382.3,419.5h4.9l-.4,1.8H375l.4-1.8h4.9l6.2-26.3h-4.9l.5-1.8h11.8l-.4,1.8h-5Z"/><path class="a" d="M460.6,393.2l-19.9,28.3h-2l-6.6-28.3H428l.4-1.8h12.3l-.4,1.8h-5.8l5.8,25.7,18-25.7h-5.9l.5-1.8h12.3l-.4,1.8Z"/><path class="a" d="M522.6,393.3H506.2l-2.9,12.2h13.1l-.4,1.8H502.9L500,419.4h16.4l1.5-6.1h1.8l-1.4,6.1h0l-.4,1.9H492.6l.5-1.8H498l6.2-26.3h-4.9l.4-1.8H525l-.5,1.9h0l-1.5,6.1h-1.9Z"/></svg>